<svg width="14" height="22" viewBox="0 0 14 22" fill="none" xmlns="http://www.w3.org/2000/svg">
<path fill-rule="evenodd" clip-rule="evenodd" d="M13.6763 14.3195C13.2446 13.8935 12.5448 13.8935 12.1132 14.3195L8 18.3793L8 1.33333C8 0.596953 7.55228 -2.81839e-07 7 -3.0598e-07C6.44772 -3.30121e-07 6 0.596953 6 1.33333L6 18.3793L1.8868 14.3195C1.45517 13.8935 0.755355 13.8935 0.323723 14.3195C-0.107909 14.7455 -0.107909 15.4363 0.323723 15.8623L6.21846 21.6805C6.43428 21.8935 6.71714 22 7 22C7.28286 22 7.56572 21.8935 7.78154 21.6805L13.6763 15.8623C14.1079 15.4363 14.1079 14.7455 13.6763 14.3195Z" fill="#F0F0F0"/>
</svg>
