<svg width="50" height="35" fill="none" xmlns="http://www.w3.org/2000/svg"><path d="M39.743 29.679a.923.923 0 0 0-.6.23c-.368.297-.736.594-1.108.884a4.184 4.184 0 0 1-.43.293c-.098.058-.233.106-.299-.015-.044-.081-.034-.218 0-.31.043-.113.14-.204.208-.308.044-.07.077-.146.136-.26-.41.058-.777.102-1.143.162-.946.157-1.893.238-2.853.149a3.216 3.216 0 0 1-1.232-.388c-.275-.147-.437-.39-.412-.7.022-.28.064-.576.18-.828.318-.686.848-1.195 1.49-1.574a2.667 2.667 0 0 1 1.832-.333c.307.05.491-.057.669-.327-.222-.044-.424-.08-.622-.124-.562-.126-1.104-.292-1.508-.746a2.09 2.09 0 0 1-.543-1.686l.044-.407c-.248-.02-.479-.032-.709-.059-.208-.024-.422-.037-.62-.1-.276-.089-.335-.31-.127-.514a1.64 1.64 0 0 1 .555-.356c.386-.148.8-.212 1.207-.139.375.067.673-.134 1.005-.21.058-.013.108-.097.145-.158.089-.149.167-.305.259-.476-.06-.074-.125-.146-.183-.223-.133-.18-.309-.344-.383-.546-.13-.36-.38-.637-.563-.958-.263-.463-.479-.954-.697-1.441-.072-.161-.131-.308-.276-.427-.39-.321-.552-.754-.543-1.256.008-.444.08-.87.368-1.235-.321-.473-.841-.499-1.316-.668-.052.094-.096.18-.147.26-.243.375-.487.749-.733 1.122a.37.37 0 0 1-.129.132c-.06.029-.16.059-.197.03-.058-.045-.12-.15-.105-.21.033-.13.113-.247.175-.369l.601-1.176c-.252-.133-.463-.264-.689-.354-.083-.033-.21.017-.308.054-.279.102-.552.219-.83.324a.96.96 0 0 1-.216.05c-.571.075-.802-.074-.946-.637-.067-.263-.103-.533-.16-.834h-1.732c-.02.088-.05.242-.093.39-.138.471-.529.615-.92.317-.174-.132-.308-.32-.447-.494-.084-.106-.141-.233-.23-.383-.124.126-.233.24-.345.353-.15.149-.293.307-.456.44-.376.31-.692.66-.937 1.093-.168.297-.418.559-.673.791-.371.339-.821.505-1.335.452-.12-.012-.242-.015-.39-.024l-.058.426c-.018.14-.076.248-.232.234-.135-.012-.174-.122-.178-.245v-.208c-.21-.086-.29.069-.39.169-.537.537-1.079 1.067-1.77 1.409-.54.267-1.092.487-1.71.423-.255-.027-.506-.094-.777-.146.002.398.082.796.19 1.19.03.108.074.22.065.326-.006.065-.09.149-.156.176-.044.017-.146-.034-.182-.084-.056-.077-.076-.18-.116-.271l-.75-1.723c-.457.391-.873.741-1.278 1.102-.055.049-.079.15-.085.231-.057.68-.106 1.361-.16 2.078-.023-.022-.008.007.012.01.54.099.886.457 1.203.874a7.037 7.037 0 0 1 1.267 2.72c.142.62.09 1.21-.316 1.738-.31.403-.74.57-1.209.67-.095.02-.193.025-.316.04.05.248.093.478.142.707a8.91 8.91 0 0 1 .197 2.303c-.01.197-.042.398-.097.587-.049.171-.158.313-.357.34-.198.026-.345-.068-.433-.23-.15-.272-.279-.555-.415-.833-.053-.11-.101-.223-.146-.32L11 29.828c-.02.083-.052.187-.069.294-.207 1.313-.794 2.427-1.735 3.356-.16.158-.305.309-.378.538-.093.297-.228.34-.548.273a.498.498 0 0 0-.245.002c-1.124.358-2.177-.203-2.722-.972-.155-.218-.313-.305-.577-.299-.735.019-1.36-.222-1.819-.835a.605.605 0 0 0-.306-.184C1.638 31.726.954 31.11.458 30.26.096 29.639.17 28.897.87 28.43a4.585 4.585 0 0 1 1.614-.68c-.146-.036-.293-.07-.439-.108-1.686-.434-2.203-1.72-1.975-3.18.028-.176.05-.332-.017-.507a.72.72 0 0 1-.04-.401c.126-.52.27-1.034.421-1.546.038-.129.12-.247.196-.36.328-.492.72-.895 1.37-.94.066-.13.126-.264.198-.392.124-.222.271-.425.55-.458.155-.019.193-.13.235-.25.14-.4.27-.804.427-1.197.226-.558.5-1.087 1.017-1.442a.372.372 0 0 0 .095-.112c.197-.317.477-.532.808-.696.112-.055.196-.165.315-.268-.283-.165-.524-.29-.75-.441a3.755 3.755 0 0 1-.586-.456c-.15-.15-.302-.247-.513-.247-.037 0-.073-.012-.11-.018-.112-.017-.237-.035-.251-.175-.017-.161.102-.207.235-.228.022-.003.043-.021.094-.047-.042-.107-.085-.218-.13-.328-.292-.707-.493-1.43-.49-2.208.001-.907.303-1.704.775-2.458.413-.66.92-1.242 1.474-1.777a26.797 26.797 0 0 1 1.85-1.619c.296-.237.65-.413 1-.57.545-.246 1.122-.113 1.524.334.132.147.248.201.446.167.843-.146 1.69-.272 2.534-.407.048-.008.093-.032.156-.055.028-.154.062-.31.084-.468.114-.782.559-1.343 1.182-1.78.1-.07.218-.12.334-.157.536-.166.837-.045 1.113.435.157.034.317.06.471.104.154.043.303.105.492.172.356-.428.82-.654 1.376-.571.472-.636 1.145-.89 2.019-.762-.034-.214-.07-.417-.096-.621-.064-.482.094-.7.578-.771 1.285-.19 2.345.203 3.161 1.269.062-.08.122-.152.178-.228A4.397 4.397 0 0 1 25.197.72C25.91.313 26.6.227 27.255.877c.034-.056.055-.096.08-.133.147-.212.23-.217.39-.017l1.257 1.575c.053.066.11.128.18.208.031-.043.059-.065.067-.093.13-.43.315-.537.744-.424.346.091.583.326.763.618.215.349.413.709.632 1.09.65-.037 1.124.332 1.582.834.097-.117.173-.233.27-.325.32-.302.615-.237.785.165.014.034.034.068.04.104.051.4.284.7.547 1.001.245-.055.496-.125.751-.163.207-.031.429-.068.625-.022.19.043.337.007.495-.068l1.055-.494-.182-.502c-.025-.07-.075-.141-.07-.21a.322.322 0 0 1 .097-.212c.033-.026.15.006.192.05.128.132.24.283.36.431.148.058.38-.115.451.118.03.096-.083.234-.153.405l.946 2.183c.117-.035.22-.067.323-.096.579-.162 1.07.04 1.348.572a4.37 4.37 0 0 1 .473 1.602c.014.147.025.296.04.474.119-.025.212-.042.304-.064.355-.089.712-.11 1.068-.024.13.031.264.076.38.143.544.317.648.78.261 1.278-.165.212-.391.378-.598.555-.101.087-.221.155-.344.238l.217.905c.198-.01.379-.026.56-.026.122 0 .252 0 .363.04.06.023.13.133.124.196-.006.062-.095.15-.16.165-.152.034-.312.03-.518.047.352.464.567.947.752 1.448.04.108.148.195.232.283.435.456.793.96.96 1.578.163.594.152 1.19-.074 1.762a1.564 1.564 0 0 0-.11.87c.03.182.022.37.032.57.145.008.28.005.41.02.542.066.822.408.75.954-.039.306-.133.605-.212.951.276.219.605.441.888.713.274.263.5.574.746.864.107-.387.204-.783.33-1.17.088-.27.212-.53.33-.791.058-.129.152-.23.31-.232.166-.002.24.115.295.244.08.182.164.364.222.554.254.834.515 1.666.744 2.506.26.952.434 1.92.387 2.915-.03.621-.223 1.196-.492 1.75-.131.269-.353.403-.646.441a1.573 1.573 0 0 1-.972-.179c-.404-.218-.797-.456-1.191-.69-.12-.07-.229-.162-.393-.044.036.068.073.141.114.212.247.432.52.851.733 1.3.148.31.24.654.31.992.092.442-.038.59-.481.64-.035.005-.069.019-.12.032.012.156-.042.316.165.407.057.025.101.175.084.253-.057.267-.143.528-.218.79-.039.133-.123.228-.263.223-.148-.005-.203-.125-.23-.254-.018-.085-.027-.171-.038-.245-.369-.09-.74-.142-1.08-.273-.332-.128-.633-.335-.965-.517-.087.239-.262.424-.204.704.038.18-.095.292-.251.373-.14.073-.283.15-.402.252-1.355 1.146-2.87 1.409-4.522.802-.602-.22-1.035-.672-1.124-1.333-.095-.715.064-1.37.705-1.813.224-.155.437-.294.5-.604.027-.132.199-.243.322-.343.103-.083.232-.136.414-.24l-.004.003Zm7.147-1.62c.461.25.878.487 1.31.699.139.068.31.075.47.09.253.027.443-.086.523-.326.138-.412.303-.822.372-1.247.15-.927-.035-1.84-.26-2.734-.242-.965-.552-1.912-.836-2.866-.03-.1-.08-.196-.12-.294-.431.931-.738 1.872-.643 2.906.25.05.463.068.656.142.092.035.205.178.2.266-.006.088-.131.206-.23.244-.169.066-.359.08-.54.116-.043.168-.065.331-.132.474-.034.073-.15.154-.223.149-.072-.006-.163-.104-.198-.183-.046-.104-.046-.23-.069-.358l-.692.095c.083.179.146.3.197.426.131.322.292.637.377.971.117.458.201.933-.16 1.43h-.002Zm-9.387.676c-.48.102-.946.233-1.421.292a4.331 4.331 0 0 1-1.07-.023c-.447-.057-.576-.296-.397-.71.102-.236.257-.452.405-.666.124-.18.272-.345.416-.523-.402-.096-.685-.09-1.07.041-.814.278-1.394.837-1.798 1.582-.09.168-.114.377-.148.57-.042.239.069.4.284.51.407.207.839.285 1.288.312 1.249.075 2.463-.2 3.69-.351.302-.037.462-.188.56-.453l-.74-.58h.001ZM3.45 28.263c-1.052.68-1.317 2.476-.502 3.37.054.059.142.11.219.117.543.045 1.087.06 1.623-.076.157-.04.265-.13.373-.27.24-.314.27-.609.073-.946-.074-.127-.118-.274-.166-.415-.163-.482-.463-.874-.796-1.245a1.824 1.824 0 0 0-.825-.534v-.001Zm9.457-2.766.474 1.195c.59.028 1.097-.142 1.432-.663.249-.387.275-.829.164-1.26-.11-.433-.25-.86-.417-1.273a5.552 5.552 0 0 0-1.154-1.769.817.817 0 0 0-.732-.269c.094.323.184.62.266.919.043.161.114.29.255.393.286.206.387.514.383.85-.003.209-.02.431-.096.622-.163.412-.367.808-.576 1.256v-.001ZM42.84 33.13c-1.632-.1-3.01-.575-3.82-2.094-.596.262-.837.74-.836 1.364 0 .54.35 1.027.918 1.237 1.256.464 2.456.334 3.593-.377.037-.024.067-.06.145-.13ZM5.542 10.288c-.126.24-.25.43-.328.635-.404 1.068-.017 1.97.61 2.815.028.036.088.087.117.078.27-.077.571-.113.79-.266a1.02 1.02 0 0 0 .426-.758c.018-.223.054-.445.078-.668.04-.353.076-.704-.334-.889a.188.188 0 0 1-.078-.078c-.1-.186-.26-.19-.444-.172-.568.057-.665-.024-.754-.591-.002-.019-.025-.034-.084-.107h.001Zm33.092 13.861c-.042-.282-.185-.43-.44-.443-.093-.004-.19.044-.283.077-.675.233-1.364.359-2.08.283-.364-.04-.73-.126-.968-.416-.263-.322-.567-.262-.884-.231-.38 1.107.296 2.378 1.814 2.4-.067-.45.19-.72.528-.942.388-.254.813-.42 1.266-.512l1.047-.215Zm4.816 8.074c-.08.023-.137.045-.197.058-.407.087-.56.017-.734-.373a2.76 2.76 0 0 1-.18-.567.54.54 0 0 0-.266-.38 2.953 2.953 0 0 0-1.663-.447c-.346.01-.682.098-.993.305.022.066.035.125.06.178.213.472.581.796 1.006 1.069.806.517 1.702.652 2.634.63a.671.671 0 0 0 .22-.036c.17-.065.21-.206.113-.437ZM.44 24.638c-.284.784.179 1.938.939 2.356.654.36 1.378.432 2.161.58-.198-.205-.27-.376-.022-.535-.59-.49-1.034-1.046-1.263-1.724-.344-.085-.665-.135-.963-.247-.298-.111-.57-.284-.854-.43H.44Zm5.023-10.689c-.208-.43-.436-.832-.599-1.258-.381-1-.107-2.164.696-2.87.354-.31.559-.714.848-1.057-.46-.491-.965-.548-1.466-.16-.49.38-.73.915-.79 1.513-.044.455-.048.922-.002 1.377.089.864.44 1.63 1.008 2.287.074.085.133.222.305.168Zm7.83 16.732c.325-.56.155-2.79-.217-3.55-.555-.177-1.072-.345-1.592-.505a.525.525 0 0 0-.281-.013c-.175.051-.342.131-.508.199.076.463.07.47.265.585.542.326.99.748 1.31 1.297.07.12.157.163.296.177.388.04.436.173.207.504-.02.03-.037.064-.062.105.164.404.297.825.583 1.2Zm-10.4-2.466c-.035-.026-.052-.05-.071-.051-.75-.047-1.383.242-1.94.71-.323.272-.39.66-.198 1.054.33.679.814 1.216 1.503 1.545.069.033.15.043.288.08-.666-1.256-.35-2.333.418-3.338Zm37.236-1.874c-.444 0-.825-.005-1.207.002-.394.007-.788.027-1.23.044-.052.365-.102.717-.141 1.002.225.217.42.358.556.544.187.255-.096.412-.222.621l.622.417c.54-.894 1.153-1.689 1.622-2.63ZM16.422 7.368l-.637-2.147c-.077.015-.172.047-.266.048-.26.004-.383.15-.49.373-.155.324-.352.627-.534.938-.072.124-.152.244-.23.368.207.116.39.197.548.313.209.15.184.422-.035.558a.52.52 0 0 1-.5.028c-.154-.067-.299-.158-.447-.238-.295.309-.297.376-.014.788l2.605-1.028v-.001ZM27.31 2.67l.06-.057c-.017-.247-.032-.495-.052-.742-.065-.8-.842-1.29-1.577-.987a3.27 3.27 0 0 0-.59.313c-.444.3-.837.66-1.115 1.128-.226.378-.18.711.14 1.013.3-.598.619-1.186 1.335-1.35.733-.167 1.268.257 1.8.681v.001Zm11.194 17.01c.438.416.867.831.981 1.44.262.034.482.073.702.087.09.006.2-.019.268-.072.2-.16.384-.342.586-.526l-.38-1.46c-.571.08-1.138.252-1.544-.352l-.613.883ZM5.524 32.97c.526.927 1.766 1.347 2.559.844-.018-.484-.023-.994-.062-1.5-.032-.413-.23-.517-.608-.333-.245.12-.467.283-.708.408-.382.198-.772.38-1.181.58Zm3.224-11.505c.533-.102 1.029.009 1.493.23.333.16.636.383.948.585.104.067.188.165.29.234.202.137.421.076.51-.145a6.19 6.19 0 0 0 .245-.706.652.652 0 0 0-.015-.36 4.806 4.806 0 0 0-.288-.647c-.138-.263-.44-.291-.634-.072-.082.093-.151.207-.251.272-.068.044-.206.06-.264.02-.054-.037-.06-.17-.054-.258.003-.068.054-.134.084-.2l-.056-.056c-.588.512-1.264.854-2.008 1.102v.001ZM20.496 9.298c-.606.15-1.155.29-1.707.419-.21.048-.314.173-.343.379-.01.073-.03.145-.046.218-.067.326-.047.357.27.436.587.147 1.173.293 1.76.443.138.035.274.08.427.126.05-.184.102-.336.133-.493.022-.118.058-.257.018-.359-.148-.378-.324-.746-.512-1.17ZM35.685 20.74l1.551-1.896c-.104-.125-.165-.243-.263-.307-.233-.153-.482-.28-.738-.426-.35.178-.67.423-.936.744-.22.265-.365.564-.395.905-.01.112.017.263.088.34.207.222.446.416.692.64Zm-25.07 9.065-.09-.055c-.04.035-.095.063-.116.108-.058.122-.09.259-.155.376-.362.643-.916.958-1.65.94-.23-.007-.445.001-.608.232.176.286.38.568.53.876.148.303.241.633.372.99.99-.982 1.567-2.12 1.716-3.467Zm9.742-27.639c.109-.054.194-.098.28-.139.724-.338 1.297-.09 1.542.68.07.221.11.453.167.698l.583.04.61.042c-.014-.877-.414-1.45-1.11-1.866-.495-.296-1.024-.364-1.573-.345-.714.025-.677.093-.563.692.011.057.035.111.064.198Zm22.368 25.48c-.017-.366-.064-.679-.038-.987.038-.476-.144-.77-.55-1.018-.295-.18-.544-.251-.87-.11.139.264.262.518.532.69.4.255.453.645.175 1.025-.095.13-.203.251-.315.367a.817.817 0 0 0-.251.479c-.053.369-.24.676-.542.904-.061.045-.11.106-.165.16l.03.056c.491-.1.983-.2 1.465-.3.05-.305.089-.576.14-.843.042-.219.13-.406.389-.424v.001ZM6.688 8.506a3.03 3.03 0 0 1 1.85-.808c-.361-.58-.86-.948-1.298-1.391-.625.504-1.238 1.019-1.83 1.699.54-.026.926.147 1.278.5ZM42.81 20.895c-.212.187-.426.297-.51.47-.12.248-.17.52-.495.583-.027.006-.052.052-.07.084-.19.365-.36.735-.289 1.112.255.167.463.316.684.444.089.05.21.09.307.073.345-.055.662-.182.894-.438-.415-.704-.36-1.497-.522-2.328ZM16.794 8.616l-.286-.888-2.554 1.01c.103.546.39.859.904.935.09.013.2-.003.28-.046.438-.233.873-.472 1.302-.722.125-.072.228-.184.354-.29Zm8.965-4.38c.352-.561.845-.898 1.435-1.164-.143-.127-.229-.215-.327-.287a4.516 4.516 0 0 0-.465-.309c-.495-.276-1.04-.184-1.415.244-.232.263-.392.57-.517.94.398.252.864.32 1.29.575ZM7.882 23.163c-.115.237-.206.413-.287.594-.118.265-.117.314.13.454.408.233.83.445 1.25.655.222.11.463.183.68.303.389.213.439.417.239.826-.01.018.002.046.005.092l.364.242c-.14-.97-.4-1.802-.985-2.504a.575.575 0 0 0-.199-.163c-.384-.167-.773-.324-1.196-.5Zm-5.612-.705c-.65.354-1.211.786-1.6 1.418-.15.245-.148.294.053.477.4.363.888.497 1.402.555.027-.359.03-.682.08-.998.05-.317.13-.634.231-.938.07-.21.039-.358-.166-.514Zm16.916-6.29c-.403-.221-.403-.223-.744-.026-.96.556-1.956 1.01-3.085 1.082-.033.002-.065.03-.11.05.04.267.248.357.452.433.334.125.683.123 1.024.038.994-.246 1.779-.827 2.463-1.578Zm20.682-1.448c-.36-.104-.663-.16-.939.11-.084.084-.216.118-.326.174-.065.034-.167.052-.19.104-.139.33-.48.574-.403 1 .053.297-.03.611.088.924.275-.104.525-.21.782-.293.178-.057.24-.177.291-.343.098-.32.214-.634.34-.943.1-.24.226-.468.357-.733Zm-4.131-5.509c.12-.539.24-1.057.347-1.579.015-.07-.025-.176-.076-.228-.2-.2-.416-.385-.63-.579-.13.078-.23.154-.34.205-.412.186-.42.576-.4.92.024.39.156.773.247 1.188l.852.073Zm2.1-.418c.113-.925-.072-3.144-.29-3.519-.404.52-.66 1.109-.87 1.72-.086.25.013.502.167.692.303.374.64.72.992 1.107Zm-2.927 19.78c.662.21 1.766.09 2.358-.24.026-.538-.238-.852-.743-.982a2.445 2.445 0 0 1-.347-.128c-.172-.074-.306-.034-.42.113-.226.293-.463.578-.682.877-.075.103-.11.236-.166.36ZM8.763 17.752c-.341-.046-.593-.092-.847-.11-.084-.005-.183.05-.256.102-.24.174-.458.384-.71.536-.35.211-.723.384-1.086.573-.365.191-.435.404-.269.782.037.083.06.177.067.268.032.425.676.846 1.083.7a.248.248 0 0 0 .09-.062c.169-.177.335-.355.527-.56-.237-.07-.425-.128-.615-.177-.18-.047-.365-.074-.542-.129-.253-.078-.296-.249-.123-.447.032-.038.072-.068.11-.1.66-.542 1.388-.954 2.213-1.187.106-.03.198-.103.358-.188Zm36.924 4.189c.029.678.054 1.32.086 1.963a.481.481 0 0 0 .073.243c.044.061.13.13.2.132.391.012.784.006 1.232.006-.036-.222-.039-.408-.096-.575-.261-.773-.774-1.34-1.494-1.77ZM11.472 19.46c.331-.558.637-1.064.932-1.578.035-.06.036-.183-.003-.237-.149-.209-.29-.447-.495-.582-.11-.072-.346.027-.516.078-.134.04-.287.099-.376.199-.16.183-.28.403-.43.627.473.271.702.665.702 1.199 0 .085.104.17.186.294Zm29.306-9.566c.052-.082.145-.163.15-.248a3.675 3.675 0 0 0-.499-2.075c-.239-.406-.698-.445-1.093-.114.218.546.437 1.101.662 1.653.03.078.08.157.14.214.187.177.385.344.64.571ZM9.98 24.17l.469 1.136c.696-.514 1.4-.898 2.207-.174l.303-.5-1.073-1.173c-.24.33-.406.732-.796.785-.363.05-.745-.043-1.11-.073Zm-1.837-1.551c.347.198.692.347.977.573.348.274.732.465 1.133.627.638.259.946.134 1.277-.475.123-.228.051-.347-.216-.345-.148.001-.296.02-.445.022-.897.01-1.72-.194-2.38-.854-.02-.021-.06-.023-.115-.041-.087.185-.17.362-.23.494l-.001-.001Zm30.77 6.446c.267.121.476.155.696-.062.405-.4.833-.779 1.254-1.164.096-.087.172-.172.153-.317-.059-.42-.208-.807-.395-1.22-.584.944-1.14 1.845-1.709 2.763Zm-5.428-12.758c-.039.38.023.73.098 1.082.042.198.15.294.343.33.487.093.976.153 1.472.087.14-.018.278-.046.497-.083-.782-.612-1.454-1.234-2.41-1.416Zm-20.058-3.688c.403-.145.62-.379.771-.696a3.9 3.9 0 0 1 .393-.673c.148-.195.132-.354-.007-.53-.06-.074-.113-.152-.189-.254l-1.528.907.56 1.245Zm-5.94-2.264c.09.055.1.066.11.066.544.032 1.094.024 1.594.296.038.02.098.018.142.005.431-.121.625-.412.58-.864-.01-.098-.027-.194-.04-.283-.68-.243-.836-.233-1.4.124-.321.203-.634.42-.986.656Zm31.52-2.674c-.567.53-.745 1.168-.75 1.868-.002.09.079.218.159.264.22.128.459.222.72.343.03-.4.095-.752.466-.95l-.595-1.525ZM4.063 24.243c-.222-.2-.429-.395-.642-.58-.216-.188-.379-.44-.658-.592-.175.635-.344 1.23-.214 1.899l1.02.059.494-.786ZM41.322 10.04l-.08.903c.508-.23.616-.264 1.066.324.11-.072.227-.139.332-.22.116-.092.231-.189.33-.298.342-.378.258-.71-.22-.883a.606.606 0 0 0-.143-.035c-.435-.046-.863-.042-1.286.208v.001Zm4.416 15.185c-.052.641-.101 1.184-.137 1.728a.3.3 0 0 0 .096.222c.27.209.554.402.812.586.225-.119.218-.284.22-.447.012-.732-.347-1.335-.674-1.947-.035-.067-.17-.08-.317-.143Zm-40.82-5.259c-.07-.122-.122-.236-.198-.333a.406.406 0 0 0-.2-.136c-.395-.107-.458-.218-.326-.607.117-.344.13-.842.025-1.252-.488.676-.703 1.436-.94 2.186.278.13.527.274.795.365.302.103.61.115.844-.223ZM.34 23.622c.31-.317.555-.608.84-.852.288-.246.616-.445.895-.642l-.137-1.048c-.377.002-.612.238-.83.494-.488.571-.616 1.28-.769 2.049l.001-.001Zm12.288-8.49c-.207.21-.41.405-.249.763.087.194.043.418-.075.61l-.145.24.552.642.993-1.641-1.076-.615Zm2.918 1.597.048.1c1.032-.131 1.943-.57 2.833-1.12l-.456-.724-2.425 1.744ZM28.161 5.925c.292-.12.554-.222.813-.333.258-.111.553-.133.825-.316l-1.556-1.24c-.18.078-.231.192-.213.365.05.493.085.986.13 1.525ZM8.98 7.617l.996-.585-.224-.797-1.828.112c-.01.046-.018.063-.013.068l1.07 1.2v.002Zm-4.788 6.645.763-.168c-.896-1.04-1.247-2.22-1.227-3.528-.481 1.016-.184 2.586.464 3.696Zm2.372 7.293c-.315.386-.35.782-.085 1.218.234 0 .468-.004.703.002.132.003.188-.07.257-.171.18-.266.381-.516.57-.776.037-.05.052-.118.084-.194l-1.529-.08Zm35.202-3.41c.269-.247.484-.429.678-.63.058-.06.072-.177.076-.27.029-.57-.35-.91-.707-1.282l-.504.402.457 1.78Zm-15.33-7.754c-.11.165-.21.308-.302.455-.038.061-.099.14-.086.197.065.31.086.64.41.835.35.21.726.255 1.154.27-.15-.305-.279-.57-.379-.771-.168-.087-.33-.115-.385-.208-.123-.21.188-.254.216-.449l-.115-.33h-.513Zm15 3.274-.18 1.284.584.465c.2-.285.402-.524.545-.794.115-.217.183-.502-.001-.7-.23-.249-.526-.429-.948-.255Zm-11.024-.106.924-.6c-.054-.173-.094-.303-.136-.432-.093-.29-.38-.444-.655-.333-.34.138-.674.294-1.011.442.193.408.445.677.877.923ZM5.26 32.606c.923-.17 1.54-.777 2.31-1.084l-1.122-.378c-.323.212-.654.423-.977.647a.411.411 0 0 0-.167.225c-.034.177-.03.361-.045.59h.001ZM47 31.003c.05-.764-.995-2.625-1.586-2.822-.032.146-.056.293-.096.435-.06.215-.005.37.164.524.526.481.96 1.034 1.208 1.715.058.159.158.206.311.148Zm-3.313-7.348c.071.014.142.031.213.044.121.02.219.072.214.21-.005.144-.12.18-.233.192-.135.015-.272.01-.407.016-.078.003-.156.012-.282.023.318.147 1.684.206 2.212.105l-.758-1.49-.959.9Zm-4.593-2.642c-.297-.516-.555-.948-1.087-1.137-.092-.032-.177-.17-.205-.276a.513.513 0 0 0-.291-.363c-.142.16-.29.297-.4.459-.182.271-.15.422.144.566.465.23.941.437 1.417.645.108.048.23.06.422.105v.001Zm-10.7-11.18c-.108-.469-.188-.884-.304-1.288-.068-.238-.445-.295-.567-.09-.276.467-.503.951-.198 1.548.322-.05.66-.104 1.07-.17ZM3.76 26.17a2.707 2.707 0 0 1 1.84-.009c-.096-.532-.42-.857-.722-1.166l-1.053.4c-.078.237-.177.478-.065.775Zm10.473-16.04c-.052-.08-.07-.143-.106-.158-.478-.195-.957-.392-1.444-.565-.094-.034-.223.032-.364.057.061.235.105.426.163.614.02.066.061.141.116.179.212.148.433.282.657.425l.978-.551Zm22.055 5.952c.045.493.239.908.468 1.318l.87-.255v-1.018c-.222.011-.437.083-.59.015-.246-.112-.47-.096-.748-.06Zm-7.199-3.319-.737.199c.062.308.105.59.178.865.073.278.112.298.39.294.38-.005.71-.153 1.028-.34l-.859-1.018Zm-.526-6.628c.299.29.555.394.896.27.25-.09.492-.03.739.116.335.197.736.175 1.124.221a2.949 2.949 0 0 0-.555-.554c-.246-.177-.519-.318-.857-.52l-1.348.467h.001Zm17.814 26.08-1.37-1.669-.624.858c.596.422 1.17.803 1.994.812ZM22.438 3.936l-.303.63c.57.344 1.15.559 1.798.7V3.96c-.086.077-.131.111-.168.151-.32.353-.501.377-.898.114-.134-.089-.266-.18-.429-.29ZM6.752 16.865c-.675.35-.956.954-1.16 1.665.636-.179 1.51-.712 1.752-1.026l-.593-.64.001.001Zm18.426-9.2c-.302.016-.57.022-.838.046-.323.029-.363.113-.227.404.214.459.424.92.636 1.38.029.061.064.12.096.18.056-.141.049-.273.059-.402.006-.084.014-.183.06-.246.295-.399.3-.838.214-1.361Zm-4.757 7.862c.541-.222.945-.481 1.34-.757.414-.288.415-.297.287-.795-.02-.08-.05-.157-.091-.28-.356.258-.68.499-1.01.73-.357.251-.42.633-.525 1.1l-.001.002ZM12.45 8.724c.261-.292.526-.56.725-.963-.961.044-1.756.405-2.624.82.397.254.783.091 1.095.23.157-.205.425-.234.804-.087Zm2.771-5.247.013-.092c-.08-.043-.155-.107-.24-.123a.804.804 0 0 0-.604.119c-.408.262-.72.611-.92 1.05-.118.258-.18.535-.162.825.381.002.39.006.474-.195.291-.699.704-1.285 1.44-1.584ZM4.834 20.745c.597.622.974 1.313.957 2.21l.28-.133c-.21-.536-.08-1.02.157-1.482l-1.012-1.035-.382.44Zm37.932-.399-.198-2.374-.68.566.399 1.808h.479Zm.97 4.987-.03.076c.439.494.952.905 1.506 1.377.037-.453.067-.821.095-1.19.006-.083.001-.167.001-.263h-1.572ZM3.878 22.147c-.66-.094-.712-.061-.925.555.418.454.866.888 1.356 1.291.095-.194.097-.195.04-.319-.228-.481-.464-.96-.47-1.527ZM25.486 5.585l.044-.698c-.21-.138-.394-.263-.583-.379-.191-.116-.338-.313-.625-.364-.005.365-.012.696-.015 1.028 0 .142.064.23.214.254.303.047.606.1.965.16Zm7.933 5.7c.235.17.462.313.664.487.321.277.654.284 1.057.083l-.409-1.101-1.312.53Zm4.26 9.681-1.116-.69-.522.682c.477.335.954.583 1.492.637l.146-.629ZM26.097 4.403l.643.487c.707-.557.917-1.022.67-1.492-.538.187-.992.478-1.313 1.005Zm-6.392 3.43c-.474.533-.954 1.242-1.021 1.511l1.644-.377c-.1-.2-.177-.366-.265-.527-.108-.194-.224-.381-.358-.609v.001Zm2.991 4.794c.385-.27.748-.526.906-.879.197-.44.23-.956.325-1.44.008-.044-.048-.1-.104-.208-.12.803-.667 1.219-1.213 1.66l.086.867Zm15.648-1.712c-.108-.112-.177-.175-.236-.247-.06-.074-.157-.156-.158-.234-.003-.382-.258-.461-.553-.518-.28-.053-.556-.122-.837-.174-.165-.031-.334-.041-.52-.063-.01.124-.015.206-.02.281.46.213.953.333 1.206.719.228 0 .41-.002.592 0 .189.002.203.324.525.235Zm-2.165 6.507c-.169-.452-.486-.783-.787-1.127a.923.923 0 0 0-.603-.321c-.255-.037-.505-.122-.75-.205-.242-.081-.476-.188-.733-.29l-.19.35c.603.086 1.156.258 1.646.574.488.315.946.677 1.417 1.018Zm-.045 8.199c.462.34.562.34.935.059.247-.186.501-.363.753-.543.168-.12.314-.256.41-.511-.8.174-1.57.28-2.098.995Zm8.772 3.011.052-.253c.133-.703.196-.473-.34-.96-.229-.207-.475-.41-.831-.556.115.44.212.822.316 1.202a.271.271 0 0 0 .1.148c.216.137.44.263.703.42Zm-5.13 1.525a3.75 3.75 0 0 1 2.393.376v-1.108c-.814.271-1.628.409-2.393.732ZM11.335 26.16c.41-.21.744-.43 1.018-.733-.42-.53-1.335-.37-1.653.312.205.136.416.276.636.42l-.001.001Zm32.479-9.88c-.094.185-.137.304-.209.4-.129.175-.142.35-.086.556.11.393.196.792.302 1.187.04.146.107.286.177.471.151-.207.303-.348.275-.568-.086-.675-.256-1.33-.46-2.045ZM28.504 3.769 29.9 4.877l.142-.472-.9-1.236-.639.6h.001ZM13.054 7.4c-.086-.288-.085-.3-.247-.305-.284-.01-.571-.026-.853.003a1.565 1.565 0 0 0-1.31 1.04c.78-.359 1.546-.662 2.41-.738ZM37.96 25.933c.599-.02 1.155-.163 1.74-.365l-.625-.745c-.716.362-.91.47-1.115 1.11Zm-26.732-11.01-.74 1.662c.215-.032.422-.056.625-.097.052-.01.105-.062.14-.109.198-.268.39-.541.615-.855l-.64-.6ZM36.282 9.28l1.52.32c-.133-.438-.697-1.164-1.058-1.374l-.462 1.055Zm-4.615 2.296c.021.036.028.066.047.076.522.277 1.044.554 1.57.826.05.025.125.046.17.026.172-.076.335-.171.5-.258l-.008-.089c-.577-.245-1.157-.483-1.729-.739-.229-.102-.398-.073-.55.157Zm11.08 17.719-.093.009c-.025.084-.07.167-.071.252-.004.285.011.57.011.855 0 .305.102.538.373.712.173.111.305.286.457.43.025.024.06.036.103.059.065-.06.129-.115.188-.176.015-.015.013-.045.024-.093-.563-.55-.74-1.318-.992-2.049v.001Zm-26.121-25.1c-.324.345-.397.755-.41 1.18-.01.235.124.407.31.443.199.038.361-.062.46-.285.218-.488.1-.951-.36-1.338ZM31.47 7.23 30.335 7c-.057.204-.097.373-.151.535-.054.16-.123.316-.19.483.915.052 1.436-.223 1.477-.788Zm-10.718 6.88 1.13-.844-.264-.962-.563.244c.082.095.216.184.225.284.007.078-.128.192-.223.252-.313.194-.444.567-.305 1.027ZM8.22 15.84l.12.719c.334.148.688.261 1.137.255l-.235-1.11-1.022.137Zm4.762 2.412 1.224-1.015-.348-.95-.911 1.507c-.089.146-.052.283.035.458Zm-4.23 3.663c.645.641 1.398.78 2.254.735-.595-.664-1.571-.982-2.254-.735Zm7.17-11.837c.581.268 1.018.21 1.403-.197l-.372-.787c-.414.167-.819.56-1.032.985ZM6.96 26.814c0 .156-.052.323.009.402.256.33.545.634.808.931.464-.071.351-.507.574-.74-.445-.256-.871-.466-1.392-.593Zm31.183-3.578c-.074-.407-.223-.67-.65-.705-.28-.024-.554-.127-.834-.16-.41-.048-.825-.133-1.28-.004l2.764.869ZM25.85 7.669c-.334.95-.526 1.86.039 2.785.102-.177.112-.187.045-.255-.218-.223-.243-.475-.138-.755.179-.476.355-.953.531-1.428.024-.066.044-.133.076-.23l-.553-.117Zm8.623 11.801.787-1.234-1.448-.112c.166.497.373.942.66 1.345v.001Zm-20.649-6.24c.093.129.168.243.253.348.094.115.19.23.297.332.27.258.49.2.589-.167.057-.21.078-.43.118-.662-.288-.059-.54-.114-.794-.16-.082-.015-.17-.002-.272-.002l-.19.31ZM6.858 9.437c-.688.149-1.001.622-.793 1.225.145-.015.301-.02.453-.05.452-.088.62-.38.475-.82-.038-.115-.086-.227-.135-.355Zm2.559 10.594c.352 0 .623-.013.892.004.223.014.35-.094.433-.278.05-.11.084-.228.126-.347-.276-.233-.576-.32-.936-.35l-.515.97Zm1.157-6.292c-.157-.41-.39-.672-.853-.602-.493.074-.715.27-.823.741.565.027 1.125.024 1.676-.139Zm.193 1.127c-.337.351-.769.53-1.195.674l.263 1.138c.533-.51.79-1.124.932-1.813Zm23.283-1.17-.898-.495c-.36.273-.425.427-.265.653.196.276.437.503.755.62l.408-.778ZM12.864 5.972l-2.49 1.226.09.467c.635-.927 1.51-1.004 2.467-.914-.022-.265-.04-.481-.067-.78ZM5.821 27.17c-.312.11-.561.233-.823.28-.252.044-.517.009-.777.009l-.024.065 1.379.837c.04-.446.333-.768.245-1.191Zm9.441-11.535 2.13-1.24-.45-.183c-.435.363-.904.628-1.46.655-.171.229-.298.453-.22.768Zm-9.56 11.016c-.621-.218-1.235-.17-1.86-.024.003.35.257.365.458.428.54.166 1.013.055 1.403-.404Zm-.277-3.94c-.011-.697-.337-1.181-.767-1.656-.203.267-.37.501-.385.782l1.153.875ZM25.317 11.99c-.518.504-.527.636-.088 1.181a.978.978 0 0 0 .182.185c.077.055.168.086.248.125.233-.334.28-.655.139-.845-.154-.209-.31-.416-.482-.646ZM8.595 30.809c.821 0 1.403-.456 1.456-1.154l-1.35.595-.106.56ZM19.09 3.646c.121-.171.226-.323.333-.472.11-.153.221-.304.34-.467-.756-.247-1.179-.158-1.364.51.217.134.436.27.691.43ZM8.026 29.212c-.1-.167-.186-.302-.262-.442-.067-.122-.163-.159-.3-.17-.313-.027-.623-.078-.959-.122.014-.016-.014.001-.016.021-.02.144-.034.29-.049.427a2.315 2.315 0 0 0 1.586.286Zm9.38-16.39c.19-.34.173-.664.106-1.003-.242-.06-.455.01-.654.104-.087.041-.19.15-.2.238-.02.214-.05.441.066.66h.682Zm-7.969 5.31c-.336.055-.631.002-.829.234-.248.292-.505.588-.576 1.005.427-.204.815-.388 1.2-.579a.232.232 0 0 0 .113-.132c.037-.152.056-.309.092-.528ZM19.595 5.543c.123-.794.006-.956-.639-.915-.126.316-.314.622-.296 1.039l.935-.124Zm21.83 12.819-.451-1.696c-.311.119-.346.216-.294.467.058.278.087.563.137.843.036.2.087.397.139.63l.47-.244ZM30.978 3.742c-.271-.47-.442-.954-.81-1.25l-.438.345c.238.393.505.77.871 1.07l.377-.165Zm8.492 17.783-.41.47c.174.287.542.478.741.358.282-.17.547-.372.752-.691l-1.083-.138ZM6.519 19.38l1.054.269L8 18.47c-.526.206-1.023.456-1.48.91ZM38.103 5.534l-.05.023.216 2.363.563-.684-.729-1.702ZM10.9 27.802l.135 1.308c.332-.03.643-.043.944-.203-.28-.457-.593-.84-1.079-1.105Zm15.887-19.81c-.323.543-.493 1.098-.643 1.659-.02.074.028.166.057.316.468-.592.689-1.22 1.016-1.844l-.43-.132Zm-7.326 7.043.512-.38-.103-.788c-.338.067-.667.258-.991.564l.582.604ZM37.647 13.7c.103-.517-.084-.802-.705-1.134l-.504.592 1.209.542ZM20.113 7.68c.204.388.376.717.55 1.044.126.234.128.233.417.119V7.821c-.315-.046-.606-.09-.967-.142Zm-2.638-.646-.046-.758h-.923c.118.332.144.663.314.968l.655-.21Zm-6.572 5.188c.185-.138.307-.22.42-.316.139-.116.166-.416.042-.528-.189-.17-.39-.324-.6-.498-.097.088-.195.178-.319.288l.457 1.054Zm11.898-5.925c.162.188.308.37.468.538.16.17.245.415.498.556.088-.466.086-.868-.238-1.208-.28-.292-.431-.275-.727.114H22.8ZM8.333 30.235l-1.622-.11c.054.117.07.24.127.264.362.149.73.283 1.1.406.153.05.266-.038.314-.184.037-.113.052-.234.082-.376h-.001Zm1.973-23.4 1.777-.9-.015-.043-1.952.304.19.639Zm18.06.712c.332.56.652.683 1.14.458-.153-.316-.305-.632-.56-.912l-.58.454ZM2.323 21.057c-.03.356-.048.645.133.885.5-.02.765-.323 1.01-.716l-1.143-.169Zm13.356-8.732c.247-.237.493-.38.598-.594.148-.3.192-.652.289-1.012a130.01 130.01 0 0 0-.376-.071c-.21.533-.494 1.011-.51 1.677Zm7.554-2.639c-.235.363-.478.704-.682 1.068-.087.155-.054.348.055.543.308-.254.59-.495.744-.843.116-.259.153-.523-.117-.768Zm-1.75-1.844c0 .198-.003.357 0 .515.004.168.014.336.023.516.248.011.45.02.703.033l-.118-1.064h-.609ZM8.158 11.557l.784-.576a3.346 3.346 0 0 0-1.352-.182c-.01.367.18.62.568.759v-.001Zm29.482 2.679.017-.116-1.465-.647.406 1.039 1.042-.276Zm-15.647-6.74c.017-.281-.154-1.486-.236-1.635-.025-.044-.086-.068-.159-.121-.084.596-.144 1.15-.092 1.732l.486.024ZM40.3 12.16c-.152-.17-.265-.317-.398-.44-.152-.141-.435-.11-.55.063-.135.204-.248.423-.4.686a3.342 3.342 0 0 0 1.348-.31ZM3.453 32.156c.189.39.836.6 1.476.467l-.052-.573-1.425.106Zm39.813-11.282c.033.895.1 1.285.28 1.591l.453-1.37-.733-.22ZM24.09 6.178l.144 1.199c.254-.02.518-.04.82-.065-.203-.52-.506-.887-.963-1.133v-.001Zm16.163 16.369.696.351.478-1.269c-.27.012-.27.012-.391.133-.254.254-.507.51-.783.785ZM8.872 8.093c-.36.235-.745.383-1.047.685.268.032.526.03.785.033.243.003.498.18.752-.069l-.49-.649Zm24.243 6.514c-.14-.126-.236-.204-.321-.292-.463-.475-.478-.72-.092-1.262.01-.016.001-.044.001-.121-.136-.026-.297-.107-.424-.07-.18.053-.315.588-.208.748.177.268.369.526.56.785.098.134.228.22.485.212ZM31.523 4.115c.06.17.107.31.158.449.088.237.507.514.758.483a.304.304 0 0 0 .192-.136c.026-.045.004-.146-.033-.194-.226-.288-.502-.51-.861-.61-.06-.016-.13.004-.214.01v-.002Zm3.955 10.577c-.328-.378-.7-.541-1.053-.747-.161.193-.313.353-.328.638.434.155.864.164 1.38.109Zm-22.193-1.516-1.435.632c.34.18.646.229.963.234.034 0 .085-.008.101-.031.158-.241.384-.452.372-.835h-.001Zm8.61-10.03c-.046-.387-.131-.702-.457-.843-.327-.142-.614.008-.895.246.453.2.876.387 1.353.596v.001Zm5.333 3.284c-.31-.538-.68-.568-1.285-.115l.201.425 1.084-.31ZM4.252 22.325c.065.536.274 1.026.51 1.216l.472-.355c.008-.006.008-.023.012-.035-.242-.344-.634-.676-.995-.826Zm7.008-7.816.85.704.257-.341c-.338-.327-.558-.765-1.107-.741v.377Zm2.898-9.394c.29-.08.49-.13.689-.192.054-.018.126-.055.143-.1.106-.283.244-.56.208-.907-.53.225-.782.65-1.04 1.2Zm3.174-.668c.09-.04.187-.068.26-.125.071-.055.19-.745.17-.883-.364.008-.658.138-.858.444l.427.564Zm10.753-1.653.623-.163c-.181-.36-.786-1.113-1.01-1.266l.387 1.429ZM5.709 17.297c-.185-.086-.241.039-.304.144-.19.32-.373.645-.57.963-.126.204-.132.388.025.572.228-.024.299-.169.358-.368.108-.367.257-.723.391-1.083.029-.076.066-.15.1-.228Zm9.04-11.888c-.255.045-.447.072-.636.116-.05.012-.116.068-.13.116-.104.353-.12.71-.063 1.162.336-.477.61-.88.83-1.394Zm-2.965 6.97h1.075l-.325-.775c-.61.267-.724.38-.75.775Zm28.746 6.346c-.246-.326-.543-.55-.893-.748-.064.096-.128.17-.168.257-.102.217.053.554.287.584.251.031.512.045.774-.093ZM15.637 3.76l-.226 1.032c.156-.014.28-.012.396-.04a.271.271 0 0 0 .16-.126c.11-.216.205-.44.32-.692l-.65-.174Zm19.072 9.782c.043.098.046.13.063.14.403.261.817.506 1.138.879.09.105.196.064.289-.062l-.304-.736c-.506.22-.584.195-.78-.25l-.406.028ZM7.562 25.628c-.12-.338-.227-.646-.36-1.025l-.482.99.15-.095.257.38.435-.25Zm28.32-14.848-.136 1.045.085.042c.333-.214.567-.542.937-.826l-.886-.26ZM12.587 25.744l-.824.633 1.185.315a2.363 2.363 0 0 0-.361-.948ZM36.347 6.73l.577-1.266c-.268.117-.509.11-.64.32-.121.197-.224.405-.342.62l.405.326ZM12.53 20.508c.075-.473.153-.874.077-1.301l-.778.707.702.594Zm8.562-16.315c-.132-.091-.246-.235-.34-.223-.356.045-.72.092-1.102.297l1.03.362.412-.436ZM39 18.099l-.095-.064c-.151.105-.304.208-.453.314-.385.274-.436.504-.2.997.258-.428.638-.758.748-1.247ZM8.79 27.7c-.28.36-.286.377-.092.682.092.145.207.277.319.407.104.122.209.11.284.004-.026-.217-.042-.412-.076-.603a.443.443 0 0 0-.108-.22c-.092-.096-.207-.172-.327-.27ZM19.397 3.884l1.139-.283-.374-.708c-.313.28-.522.599-.766.99Zm23.749 22.476-.093.03.1 1.426.474.079c-.123-.517-.227-.976-.343-1.431-.011-.043-.09-.07-.138-.104ZM6.28 15.16l-1.486-.304-.029.078c.37.297.784.518 1.257.711l.257-.486ZM36.29 26.84l.87.35.114-.77c-.459-.15-.7.115-.984.42ZM24.388 9.575c-.159-.388-.312-.768-.518-1.124-.426.476-.162.84.123 1.208l.395-.084Zm-16.02 2.468c-.325.015-.63.324-.752.757.466-.15.923-.232 1.395-.19.167.014.183-.128.202-.252-.219-.218-.386-.011-.57.055-.139.05-.283.22-.428.033-.133-.174.111-.24.152-.402Zm15.259 1.083.088.045c.201-.217.407-.43.602-.654.043-.05.08-.138.068-.198-.037-.198-.098-.39-.169-.658-.382.485-.362 1.022-.59 1.465Zm-8.358 3.31 2.081-1.505c-.365.134-.703.31-1.028.507-.317.192-.622.405-.93.61-.12.08-.212.176-.123.388ZM3.386 26.4v-1.028h-.709c.134.393.336.707.709 1.028ZM7.802 5.994c.537-.061 1.088-.006 1.651-.116-.403-.493-1.13-.345-1.65.116Zm15.299 3.13c.016-.107.048-.175.03-.222-.13-.334-.264-.667-.41-.994-.018-.04-.114-.043-.236-.083l.118 1.137.497.16v.001Zm-4.57-.956c-.172.095-.347.183-.512.288-.055.035-.113.112-.115.172-.013.277-.006.555-.006.896.426-.393.527-.857.633-1.356Zm-8.181 6.516c-.468-.088-.87-.033-1.32.085l.383.412c.466-.09.632-.176.937-.496Zm14.637-8.277c.131.232.249.418.345.616.194.396.215.4.496.041.014-.017.014-.045.024-.083l-.279-.574h-.586Zm2.6 4.7c.072.372.199.61.44.823l.235-1.003c-.287-.094-.5-.022-.675.18Zm5.563-4.865c-.25.02-.507.03-.762.063-.219.029-.286.182-.174.37.05.082.119.155.182.238.223-.11.432-.217.645-.316.155-.071.19-.176.109-.354Zm-13.551 5.142-.044.105c.242.388.618.544 1.079.618l.099-.384-1.134-.34Zm-6.902 11.502c-.163 0-.286-.014-.403.003-.191.028-.258.166-.139.315.197.245.417.47.627.704l.067-.039-.15-.982-.002-.001Zm31.858-5.423.078-.011c.1-.714-.059-1.358-.56-1.907l.482 1.918Zm-28.18-4.271c-.14-.008-.254-.035-.358-.013-.067.014-.164.095-.17.155-.018.175-.077.357 0 .554l.716-.153-.188-.543Zm24.903 5.713.414 1.499c.123.018.185-.058.15-.216-.1-.447-.207-.894-.312-1.34-.005-.017-.038-.026-.07-.046l-.182.103ZM21.806 11.08c.112-.172.256-.292.254-.41a3.128 3.128 0 0 0-.2-1.063c-.35.486-.192.941-.054 1.473Zm15.07.962.74-.79c-.188-.008-.333-.058-.428-.01-.294.149-.53.375-.746.659l.435.14Zm.809 5.557-.694.237.506.74c.36-.297.184-.625.188-.977ZM8.49 25.048c.085.409.272.616.629.651.083.008.164.05.244.082.097.039.192.074.256-.044.08-.143-.03-.211-.128-.257-.312-.143-.63-.273-1-.432Zm24.06-2.207.003.085c.287.018.574.039.86.054.323.017.337.003.419-.383-.454-.01-.893-.015-1.282.243Zm8.817-10.626c.271.36.46.427.851.294l-.148-.633-.703.34v-.001Zm-16.642-.19c.282-.315.586-.537.326-.964l-.34-.036c-.237.332-.048.627.014 1Zm21.336 18.742.068-.07c-.151-.38-.402-.684-.711-.998l-.22.489.863.58ZM19.176 7.026c-.516.038-.933.083-1.322.32l.056.32c.356-.126.69-.236 1.015-.367.082-.033.133-.141.25-.272l.001-.001Zm-7.62 6.455c.435-.13.786-.26 1.103-.514l-.983-.126-.12.64Zm3.627-1.585-.87.65c.315.06.561.109.828.161.06-.281.21-.515.042-.81Zm5.904-4.433v-.628c-.413.12-.804.337-.925.516l.925.112ZM8.242 29.84c.021-.147-.005-.229-.14-.23-.087 0-.174.01-.26.002-.387-.035-.774-.076-1.249-.122.12.113.18.217.262.24.455.128.921.139 1.388.11ZM18.888 3.954l-.691-.441-.171.722c.339-.023.63.031.863-.28h-.001Zm21.21 6.39c-.13-.247-.151-.542-.38-.74-.245.315-.22.71.036 1.037l.345-.296Zm-1.925 1.08v1.027c.071.006.131.018.19.014.057-.004.112-.023.163-.034.056-.712-.005-.912-.353-1.007ZM17.468 7.419l-.579.212.209.661c.43-.15.44-.463.37-.872Zm5.93 5.247a3.576 3.576 0 0 0-.08-.03c-.651.529-.663.56-.423 1.269l.503-1.239Zm-11.144-1.737c-.036-.518-.15-.648-.645-.735.076.48.29.724.645.735Zm-4.03 10.263c.127-.056.25-.069.289-.134.135-.221.282-.445.334-.796l-.787.476.164.454Zm2.41-3.943h-.536c-.157.002-.258.072-.267.241-.004.085 0 .17 0 .284l.411.085.392-.61Zm-2.763-.47-.828-.49c-.094.302.22.689.662.839.05-.108.103-.218.166-.35Zm24.068-7.395-.014.083c.173.085.376.137.512.263.258.237.499.115.832.054-.469-.25-.838-.55-1.33-.4Zm-24.522.567c.297-.178.568-.326.755-.625-.3.02-.6.04-.933.06l.178.564Zm35.587 4.718.3 1.6c.282-.605.074-1.118-.3-1.6Zm-7.021.587-1.002.102c.236.385.564.356.914.315l.088-.417Zm-.193-2.723.277.477c.205-.246.364-.437.535-.64-.338-.124-.609-.07-.812.163ZM7.015 14.476c.407.113.797-.039 1.062-.395-.168-.171-.337-.157-.522-.022-.13.094-.277.162-.41.253-.051.036-.082.102-.13.164Zm36.026 3.528c-.064.498.038 1.452.16 1.666.18-.587.09-1.132-.16-1.666Zm-9.235-5.243c.258.123.451.219.648.308.178.08.267-.01.326-.157-.351-.479-.368-.482-.974-.15Zm-14.681 2.5-.58-.623c-.164.043-.225.128-.14.273.111.187.23.37.358.573l.362-.223Zm-5.162.052c.215-.289.403-.508.506-.802h-.693l.187.802Zm26.126-1.82v-.366c-.047.01-.075.01-.091.022-.315.244-.632.465-1.063.44-.17-.01-.173.13-.131.277l1.286-.373Zm-26.528 1.789-.172-.783c-.255-.013-.427.1-.518.34l.69.442ZM31.588 9.42c-.093-.087-.122-.138-.158-.143-.342-.047-.686-.086-1.028-.126-.009-.001-.019.013-.056.04l.028.306c.401-.048.776-.004 1.214-.077ZM9.225 20.422l-.23.505c.4-.1.712-.22 1.022-.505h-.792Zm-2.467.752c.4.084.73.147 1.093.044l-.136-.353c-.292.156-.654.007-.957.309Zm2.884 6.776.293.307c.248-.162.228-.401.256-.615.008-.056-.032-.16-.073-.173-.054-.017-.155.012-.19.058-.107.13-.192.28-.286.423ZM37.21 12.246l.372.29c.316-.24.183-.54.19-.907l-.562.618Zm-18.09.44.034-.09-.718-.52-.037.698.722-.087Zm19.315-2.423c.112.361.307.547.53.708.145.105.247.05.335-.09-.169-.344-.493-.438-.865-.618ZM8.535 26.6c-.234 0-.443.014-.648-.004-.202-.019-.401-.07-.601-.108l-.005.025 1.253.559v-.473Zm31.763-9.447c-.275.07-.408.22-.456.477l.578.4-.121-.877ZM13.525 5.742c-.143.042-.299.052-.291.237.01.233.033.467.07.697.008.043.11.07.221.135v-1.07.001Zm20.071-1.426-.438.508.251.339.38-.331-.193-.516ZM9.133 17.185l-.928-.261-.16.386c.384.057.709.074 1.088-.125Zm18.737-4.617c-.54 0-1.067-.068-1.568-.302-.08.221.065.258.19.301.458.155.917.109 1.378 0Zm2.936-2.694-.033.081c.16.108.322.212.479.323.163.115.266.051.353-.11l-.156-.294h-.643Zm.682 3.442-.734.467.517.26c.162-.291.234-.533.217-.727Zm-21.347 5.38.752.256c-.06-.35-.206-.56-.536-.626-.07.117-.13.222-.217.37Zm25.236 4.748c.342.293 1.18.339 1.549.108l-1.55-.108Zm-.329-.448c.454.103.865.118 1.233.027l-1.186-.301-.047.274Zm-.92-12.422c-.447.048-.91.014-1.331.212.491.217.91-.013 1.332-.212Zm11.196 14.242.003-.082c-.477-.01-.953-.02-1.43-.022-.025 0-.05.09-.078.145.374.077 1.262.048 1.505-.041Zm-1.19-4.103c.089-.212.218-.37.216-.61-.169.074-.306.13-.44.192-.122.058-.242.123-.424.216l.648.203v-.001Zm1.302.154c.188-.634.137-.799-.249-.894-.062.325.03.605.249.894Zm-31.323-5.085.256.805c.277-.248.201-.55.217-.872l-.473.067Zm-8.417 14.93c.205-.085.27-.175.181-.36-.123-.258-.252-.5-.566-.662l.385 1.023ZM10.122 8.14l-.075-.735-.63.386.705.35Zm.432 20.02c-.2.26-.236.515-.238.766 0 .17.134.22.327.18a3.131 3.131 0 0 0-.089-.946Zm4.766-16.885c.434-.371.5-.598.237-.812-.13.176-.262.35-.4.535l.163.277Zm24.134 13.313c.362.547.488.66.692.623-.177-.516-.215-.711-.692-.623ZM8.666 29.822c.3-.063.56-.098.77-.29-.305-.308-.56-.098-.847.005l.077.285Zm-.434-1.48c-.256.382.077.565.186.843l.343-.098-.53-.746Zm.055-2.804c-.195-.377-.35-.65-.626-.852.017.288.16.723.284.794.072.042.173.032.342.058Zm-.085-5.8.016.114c.137.007.317.074.402.011.185-.135.33-.331.419-.548l-.063-.059c-.258.161-.515.322-.774.482Zm21.75-12.8-.65-.067.418.693.083-.008.15-.618Zm10.1 8.3c-.204.396-.399.76-.482 1.21.182-.041.277-.066.296-.237.017-.166.093-.328.16-.484.062-.147.146-.283.026-.49Zm-6.285-7.589c.08.437.094.47.274.642.158-.24.247-.48.034-.758l-.307.116h-.001ZM44.249 21.7l-.353 1.086c.49-.34.575-.576.353-1.085ZM29.035 9.03c-.187-.203-.338-.37-.49-.537a9.791 9.791 0 0 0-.055.038l.222.953.322-.453Zm16.253 13.165-.078-.04c-.08.1-.162.2-.248.305.125.243.238.46.35.68l.067-.03-.091-.915ZM18.544 4.619c-.117.032-.179.04-.23.066-.124.064-.316.112-.349.21-.063.19.17.228.28.327.013.01.046 0 .08-.003.064-.178.131-.359.22-.6Zm11.519 7.35c-.206-.06-.332-.09-.454-.133-.138-.049-.289-.069-.35.08-.035.085.032.212.057.343l.746-.29Zm10.015 1.967c-.312.068-.572.121-.88.296l.88.112v-.408Zm-28.24-4.638-.018-.11-.813-.097.301.487.53-.28Zm-5.563 6.91-.104.01c-.051.066-.11.128-.151.199-.087.145-.166.294-.277.493.134-.018.238 0 .284-.044.124-.117.241-.25.322-.397.03-.056-.046-.172-.074-.26ZM25.89 5.622c.14 0 .252.016.356-.006.055-.012.124-.085.135-.141.01-.056-.026-.152-.072-.18-.119-.074-.255-.12-.42-.193v.52h.001ZM8.912 27.126c.254-.026.461-.06.669-.064.384-.004.384 0 .572-.162H8.927l-.015.226Zm35.053 3.088c.116-.578.026-.834-.401-.79l.401.79ZM8.608 11.682c.411.218.571-.117.823-.27-.067-.133-.138-.212-.263-.128-.191.127-.374.265-.56.398Zm33.357-.205c-.106-.121-.18-.272-.254-.273-.088 0-.195.116-.262.205-.073.098-.11.224-.163.338l.063.045.616-.315ZM23.38 8.492c.064-.14.102-.23.143-.316.053-.116.1-.237-.005-.341-.122-.12-.257-.08-.418-.004l.28.661Zm-15.276 6.11c.48-.113.898-.21 1.365-.318-.284-.024-.517-.052-.75-.06a.49.49 0 0 0-.266.074c-.11.071-.202.173-.349.304ZM5.873 23.28l.412.62.208-.343-.246-.366-.374.089Zm30.983-7.987.217.34c.2-.14.516-.019.563-.395l-.78.055Zm-9.214-9.948c.118-.252.127-.48-.01-.764l-.358.624.367.14h.001Zm3.012 6.322c.008-.03.015-.06.024-.088-.236-.093-.469-.193-.708-.276-.125-.043-.211.016-.23.174.31.043.591.245.915.19Zm4.38-1.154.316.831c.023-.005.047-.01.07-.017l.08-.66-.465-.154Zm-14.31-7.476c.13.464.213.602.819.355l-.82-.355Zm23.62 25.88c.01.285.13.494.36.63l.097-.456-.457-.173ZM8.78 12.982c-.391-.007-.782-.009-1.1.275.393.015.74-.157 1.1-.275Zm29.56.57.096-.01v-.642h-.313c-.082.292.15.44.217.653Zm-5.71-5.479c-.216.17-.564.177-.545.61l.663-.397-.118-.213Zm-10.423 4.882.111-.019-.088-.904c-.142-.008-.239.037-.215.158.05.258.126.51.192.765Zm.506-7.587.007-.062-.796-.4.14.428.649.034ZM7.731 15.276l1.107-.12c-.34-.21-.717-.18-1.107.12ZM6.058 27.928c-.19.577-.19.593.054.73-.054-.24.269-.468-.054-.73ZM31.352 5.004l-.71-.53-.048.063c.232.155.213.618.76.467h-.002Zm-9.005 1.37-.092.017c.058.345.114.691.176 1.036.004.021.055.034.174.102-.176-.418-.11-.809-.258-1.155Zm12.379 3.154c-.033.259.13.249.276.265.168.018.345.06.416-.22l-.692-.045Zm-.098 13.477.035-.342c-.352-.003-.381.02-.466.342h.431ZM7.386 16.03c.147.165.323.26.547.336-.08-.478-.196-.542-.547-.335Zm12.63-11.252v.613l.06.024.334-.483-.394-.154ZM5.13 24.256l.234-.64-.067-.043c-.137.111-.273.223-.417.342l.25.34Zm-.048-6.977c-.4-.046-.48.087-.377.627l.377-.627Zm32.998.256.033.555.538-.522-.57-.033ZM6.71 24.82l.25-.543a129 129 0 0 0-.485-.059l.236.602Zm32.223-11.891c-.058.17-.03.28.168.258a.643.643 0 0 0 .472-.258h-.64Zm-36.17 7.271c-.23.13-.299.298-.358.523.14.012.25.022.359.03V20.2Zm6.395 6.302c.25.125.458.11.742.05l-.331-.261-.411.21ZM33.494 8.168c-.042-.127-.082-.25-.13-.391l-.333.118c.075.22.23.312.463.273Zm-5.277-4.66.46-.414a.89.89 0 0 0-.42.034c-.079.022-.152.06-.26.103l.22.277Zm-17.985 9.076c-.39-.113-.62-.093-.69.06.22.105.43.098.69-.06Zm18.63-2.427.01.12.786-.145c.075-.014.15-.034.224-.05l-.015-.084c-.341.012-.672.09-1.005.16Zm3.641-1.287.016.08.535.085-.164-.393-.387.228Zm1.818.886c-.086-.317-.154-.342-.684-.229.256.09.426.265.684.229Zm-22.733 6.747c.194.13.266.005.341-.082.118-.136.119-.188.04-.45-.133.186-.25.348-.38.532Zm21.51-10.64c-.117-.16-.28-.206-.466-.25l-.169.31.636-.06ZM3.895 21.753l.186-.497-.068-.038-.477.505.359.03Zm37.41 4.913-.065.042.185.57.253-.303-.372-.31ZM21.265 4.992l.268-.444c-.263.015-.461.175-.444.331l.177.112Zm-3.755 6.016-.079-.03-.319.473.398-.051v-.392Zm24.915 5.04v-.69l-.318.332.318.358ZM5.925 23.994l-.22-.27-.213.541.05.023.383-.294Zm33.882-.75c.083.385.369.247.613.235l-.613-.234Zm.08-12.105c.264.12.372-.003.514-.101l-.14-.288-.373.39Zm-10.59-1.841-.285.416.63-.111-.345-.305Zm-14.085 1.044c-.18-.038-.287-.152-.452-.036l.213.37.239-.334Zm2.81-4.194c.13.294.252.48.544.478-.238-.068-.171-.445-.544-.478ZM4.072 24.873l.049.058c.139-.065.278-.13.46-.212l-.268-.204-.24.359H4.07Zm.864-8.037c.277.051.47-.078.581-.387l-.58.387Zm1.097 7.592c-.326.181-.368.328-.18.608l.18-.608Zm7.67-15.126.053-.055-.177-.339-.39.2c.22.084.368.14.515.194ZM41.236 15.9l.3-.242-.342-.274-.056.046.098.471ZM32.01 5.83l.082.012c.065-.12.13-.24.219-.408l-.375-.04.074.436ZM7.422 26.156l.548.09.026-.063-.208-.248c-.08.031-.148.053-.21.086-.04.02-.07.059-.156.135Zm2.69-11.945c.446.184.541.17.629-.103l-.628.103Zm24.283-7.78c-.109.067-.217.113-.212.133.032.138.088.271.136.406l.076-.02V6.43Zm-6.555 3.916c-.151.013-.302.025-.462.04.097.268.156.267.462-.04Zm12.951 5.546c-.124.14-.295.232-.188.46.18-.101.243-.254.188-.46ZM28.63 6.859h-.546l.13.337.416-.337Zm-5.724.119c.031.346.13.47.297.373l-.297-.373Zm8.61 1.914c-.16-.263-.181-.265-.555-.046.213.018.374.03.554.046Zm2.274-.186c-.204-.059-.33-.094-.492-.142.146.377.15.38.492.142Zm-4.27.255c.125.147.227.278.415.343-.036-.22-.174-.335-.416-.343Zm6.48 12.934.024-.058c-.137-.071-.274-.142-.428-.22l-.122.278h.525ZM33.81 10.194l.01-.052-.914.09.009.078.895-.116ZM6.354 25.464c.01-.22.077-.39-.08-.537.006.165-.239.338.08.537Zm-3.19-5.285-.067.323.463-.117-.003-.068-.394-.139Zm2.628-5.936-.063.071c.166.173.347.325.577.4l.042-.061-.556-.41ZM3.434 20.8c.38.137.402.13.582-.177l-.582.177Zm13.321-7.58.194.365.247-.365h-.44Zm6.153-3.786-.295-.047v.454l.054.01.24-.417h.001Zm16.147 12.009-.484-.145a.39.39 0 0 0 .113.22c.04.044.087.08.145.131l.225-.206ZM31.585 5.81c.018-.304.008-.381-.093-.42-.045-.017-.116.037-.202.067l.295.353Zm-1.282 2.57c.334.088.354.085.664-.059l-.664.058Zm-17.281.296.057.054.366-.175a75.475 75.475 0 0 1-.118-.235l-.305.356Zm-.42 13.836c-.035-.135-.004-.27-.165-.35-.041.123-.076.223-.12.35h.285Zm20.616-15.48-.045-.071c-.136.066-.272.132-.424.204.18.124.336.08.468-.132ZM6.844 14.867c.126.258.255.19.455.033l-.455-.033Zm29.435.817.342-.044-.202-.413c-.06.2-.093.306-.14.457Zm-16.551.006c-.196-.144-.358-.124-.488.061l.488-.061Zm3.002-9.93-.476-.033.23.295.246-.261v-.001Zm17.691 18.708.304.339c.034-.193-.068-.306-.304-.339ZM34.784 6.35v.39l.276-.17-.276-.221ZM10.021 18.208c-.248 0-.255.014-.245.42l.245-.42ZM30.358 4.85l-.065.025v.332l.267-.085c-.08-.107-.14-.19-.202-.27V4.85ZM7.743 8.327c-.32.041-.338.052-.549.32l.549-.32Zm32.884 3.153-.06-.048c-.082.045-.164.09-.277.15l.223.197.114-.299ZM9.103 27.472c.145.14.207.281.335.107.024-.032.031-.076.06-.149l-.395.042Zm-3.655-12.87c-.202-.254-.346-.203-.547-.066l.547.066Zm13.926-8.654-.376.077c.109.148.234.122.376-.077Zm1.713 3.646.085-.02-.09-.366c-.168.205-.035.286.005.386ZM9.927 8.456l-.386-.19c.064.164.086.398.387.19Zm23.688-1.227c.392-.044.394-.047.215-.305l-.215.305Zm9.304 9.1a.623.623 0 0 0 .118.508c-.05-.211-.083-.36-.117-.508ZM7.148 23.721l.024-.36c-.196.128-.248.217-.024.36Zm7.66-6.35-.076.03c.017.14.08.265.192.376l-.115-.406Zm2.67-8.586c-.114.101-.102.252.034.451l-.033-.45Zm7.206 1.609-.165-.453c-.046.167-.127.348.165.453Zm-3.647-5.06c-.174-.12-.306-.102-.397.055l.397-.054Zm9.91 5.957c-.047-.18-.142-.262-.33-.13.13.05.23.09.33.13Zm-9.72.295.094.021c.137-.099.141-.208-.024-.373l-.07.352Zm12.636 3.626-.03.089.478.168.03-.09-.478-.167ZM11.8 11.255l.022.311c.117-.094.192-.153.311-.25l-.333-.06Zm13.042-5.38-.012.074.513.085.01-.065-.512-.093ZM14.71 11.7c.188-.093.252-.197.19-.311l-.19.312Zm-1.007 2.076c-.011.194.063.29.223.284l-.223-.284Zm19.38 2.679-.037.002v.454l.06-.003-.023-.453Zm1.286-7.924c-.065.145-.033.268.097.368l-.097-.368ZM8.504 33.346l-.06-.003c-.01.076-.026.15-.028.226 0 .015.05.032.112.069l-.024-.292ZM41.888 20.9c-.184-.032-.27.016-.26.145l.26-.145ZM13.354 7.15l.117.288.183-.256-.3-.031ZM7.6 11.733l.017.316.199-.224-.216-.091v-.001Zm33.037 1.255a.36.36 0 0 0-.027.397l.027-.397ZM35.701 5.98c-.099.035-.24-.004-.286.155.175.085.242-.017.286-.155ZM7.325 20.545c.184-.018.271-.101.261-.25l-.261.25ZM26.702 6.983l-.326.151.208.211.118-.363Zm-9.226 6.94.02.097.24-.05-.011-.073c-.083.01-.166.018-.248.026h-.001Zm-6.82-4.55.055-.092c-.075-.04-.148-.083-.226-.115-.013-.006-.046.04-.098.088l.268.12Zm21.105 4.864.343.102a70.23 70.23 0 0 1-.228-.3l-.114.198Zm-21.96-2.403c0 .129-.021.205.007.248.02.03.108.014.217.023l-.224-.27Zm29 11.095-.318-.098c.05.224.136.25.317.098Zm-27.756-2.943c.231-.067.232-.067.15-.313l-.15.313Zm-5.855-.413-.044-.307c-.204.142-.094.225.044.307Zm24.468-8.818.001-.121-.274.014v.077l.273.03Zm-6.192-6.853-.414-.052c.122.153.215.2.414.052Zm7.285 1.63c.076.118.15.239.296.266-.075-.117-.114-.271-.296-.266Zm7.57 16.177-.293-.232c-.01.203.054.267.293.232Zm-27.446 4.634-.244-.184v.259l.244-.075Zm28.452-2.957c-.128-.212-.225-.139-.32-.066-.008.007 0 .035 0 .066h.32ZM19.65 6.955l.084.063.173-.237-.079-.06-.178.234Zm-3.948 7.362.019.1.316-.097a5.403 5.403 0 0 1-.015-.063l-.32.06Zm12.716-2.467.065.041.073-.368-.045-.01-.093.337Zm2.758-7.454c-.006-.15-.011-.303-.26-.203l.26.203ZM17.97 5.547l-.05.03.08.192.166-.072-.196-.15Zm2.98.557c.26.014.231-.1.21-.25l-.21.25Zm-8.305 12.392-.09-.053-.135.252.059.034.166-.233Zm-2.48-7.055-.11.038.13.242.064-.028-.084-.253Zm20.175-1.316-.056.092.318.16.034-.064-.296-.188ZM6.036 29.173a3.432 3.432 0 0 1-.052.037l.145.21c.018-.013.037-.026.054-.04l-.148-.207Zm29.21-16.712c-.002-.143-.068-.176-.195-.1l.195.1Zm7.617 19.117c.058.17.149.266.273.29l-.273-.29ZM35.577 13.45c.168-.105.164-.183 0-.294v.294ZM20.434 5.858l-.05-.059-.194.174.049.057.195-.171v-.001Zm-11.881 7.7-.282.155c.178.09.23.025.282-.155Zm.253 12.428c.085.122.18.15.286.08l-.286-.08ZM6.326 27.6l.107-.014-.07-.219-.068.017c.01.072.02.144.032.216Zm29.48-11.536a8.665 8.665 0 0 0-.086.087l.111.139.098-.097-.123-.128Zm10.723 8.724.003-.068-.272.016.002.053h.267Zm-.165 6.785c.029-.18-.003-.248-.19-.258l.19.258ZM18.46 13.146l-.01.078c.04 0 .083.006.122-.001.045-.009.088-.031.131-.047l-.01-.04-.234.01Z" fill="#F0F0F0"/></svg>