<svg width="461" height="423" fill="none" xmlns="http://www.w3.org/2000/svg"><path d="M185.117 276.744c3.23-1.521 5.003-.094 5.82 2.853 1.545-.566 2.853-1.326 4.223-1.47 1.979-.202 1.91 1.885 2.677 3.286.678-.408 1.288-.66 1.747-1.074.986-.899 2.205-1.144 3.085-.315.591.56.943 1.879.735 2.684-.716 2.746-1.734 5.41-2.614 8.113-.352 1.081-1.263 2.168.176 3.934a9215.58 9215.58 0 0 0 3.966-9.157c.157.044.307.095.465.139-.139.672-.227 1.357-.428 2.011-.308.974-.905 1.898-1.012 2.884-.842 7.692-5.636 12.789-11.405 17.112-3.601 2.696-6.329 5.832-7.428 10.25-.139.546-.271 1.187-.629 1.577-3.626 3.978-3.883 9.1-4.776 13.989-2.331 12.775-4.405 25.595-6.925 38.333-1.942 9.823-4.393 19.538-6.661 29.48h28.002c4.167-4.588 9.546-7.541 15.233-9.917 3.57-1.495 7.302-2.601 10.985-3.814a10.001 10.001 0 0 1 3.016-.49c7.296-.063 14.592-.283 21.882-.044 9.005.295 17.998.98 26.991 1.527 2.62.157 5.253.295 7.843.691 9.112 1.401 18.224.421 27.336.075 3.852-.144 7.692-.465 11.997-.735l-9.364-14.517c-.817 4.186.39 8.277-.308 12.261-2.319.597-2.664-.679-2.759-2.181-.188-3.179-.383-6.366-.509-9.552-.075-1.929-.012-3.864-.012-6.033-3.098-.301-3.922-2.607-4.996-4.732-1.596-3.154-3.274-6.265-4.94-9.382a54.16 54.16 0 0 1-5.567-16.087c-.139-.773-.34-1.653-.114-2.351.202-.609.962-1.42 1.496-1.426.497-.013 1.477.917 1.458 1.407-.132 4.022 1.408 7.617 2.828 11.193 1.301 3.267 3.023 6.372 4.638 9.514 1.458 2.828 3.022 5.605 4.744 8.785 4.682-.616 9.408-1.206 14.121-1.854 5.335-.729 10.419-2.4 15.453-4.241 3.965-1.452 7.189-3.859 9.671-7.674-3.217-5.555-6.422-11.192-9.721-16.772-3.538-5.983-7.095-11.965-10.797-17.847-2.545-4.054-5.191-8.063-8.119-11.846-1.345-1.735-3.356-3.029-5.235-4.261-10.174-6.674-21.913-8.672-33.526-10.947-4.581-.899-9.232-1.464-13.857-2.124-.986-.138-2.017-.019-3.004-.019-1.238 2.413-2.45 4.72-3.619 7.057-3.582 7.171-8.629 13.109-14.957 18.005-11.883 9.2-24.684 10.243-38.233 4.286-3.733-1.641-6.605-4.362-8.993-7.981.805-.874 1.534-1.678 2.294-2.508 7.485 9.558 19.607 13.071 31.371 9.577 11.481-3.412 19.072-11.242 24.779-21.234 1.778-3.117 3.871-6.196 4.342-10.105-1.603-.911-2.79-.786-3.651.899-1.194 2.331-2.407 4.662-3.607 6.988-5.223 10.13-13.398 17.055-24.132 20.348-6.127 1.879-12.688 1.37-18.683-1.603-3.707-1.835-5.674-5.121-7.088-9.061 4.449-4.588 5.077-10.746 6.573-16.553.176-.698.1-1.898-.339-2.231-1.791-1.364-1.383-3.431-2.351-5.379 3.991-.729 7.667-1.458 11.362-2.068 3.488-.572 7.032-.848 10.489-1.546 5.592-1.131 10.023-4.21 13.41-8.791.233-.308.201-.811.308-1.314-1.973-.873-2.564.786-3.368 1.653-2.96 3.199-6.492 5.373-10.765 6.24-2.005.409-4.054.61-6.077.918-3.607.546-7.239.961-10.809 1.696-7.352 1.515-14.51.924-21.549-1.571-3.745-1.326-5.215-3.393-5.435-7.384-.403-7.277-.685-14.56-1.339-21.812-.716-7.918 1.056-14.925 6.473-20.883 1.609-1.772 3.148-3.613 4.776-5.366 1.697-1.829 2.708-3.802 2.463-6.442-.345-3.739-.264-7.516-.647-11.242-.44-4.305 1.119-8.144 2.696-11.871 4.908-11.588 14.026-18.457 26.054-21.077 14.479-3.155 28.059-.025 40.735 7.459 3.129 1.848 4.807 5.354 7.56 7.208 2.821 1.904 5.8 3.463 7.999 6.152 4.368 5.354 7.032 11.375 7.523 18.35.597 8.528-.905 16.773-2.677 25.049-2.344 10.947-3.928 22.001-2.175 33.231.597 3.834 1.42 7.629 4.041 10.916-1.156 2.451-2.935 3.884-5.719 4.694-5.53 1.609-10.589.503-15.541-1.822-.942-.44-1.728-1.471-2.281-2.407-.798-1.357-1.319-2.872-2.35-4.261l.402 3.928c-3.67.188-6.982-2.665-10.633-.974-.634 3.073.402 5.637 2.131 8.358.647-.465 1.212-.943 1.841-1.314 2.639-1.539 5.536-.942 7.629 1.37.521.572 1.408.993 2.187 1.119 6.862 1.137 13.781 1.986 20.599 3.337 7.931 1.571 15.962 3.224 23.164 6.95 5.574 2.885 11.299 5.845 14.718 11.758 4.103 7.101 8.672 13.932 12.952 20.933 3.984 6.517 7.867 13.09 11.77 19.657.641 1.074 1.181 2.212 1.709 3.349 1.414 3.048 1.339 3.256-1.822 5.047 5.938 14.56 13.272 28.731 13.901 45.265 1.671.113 3.104.295 4.53.289 16.779-.057 33.558-.145 50.343-.207.905 0 1.905-.126 2.677.213.566.245 1.075 1.15 1.132 1.804.037.389-.767 1.087-1.314 1.257-.729.226-1.577.081-2.381.081l-50.004.019h-4.229c0 2.558.012 4.701 0 6.844-.044 5.599-.61 6.447-5.989 7.817s-10.891 1.138-16.339.673c-8.522-.723-17.043-1.49-25.508-2.659-5.052-.697-9.979-2.268-14.994-3.318-6.573-1.37-13.134-2.922-19.777-3.833-10.614-1.452-21.328-1.936-32.043-2.275-3.839-.119-7.491.138-10.815 2.363-1.018.685-2.369.855-3.444 1.477-2.557 1.477-5.096 2.928-7 5.373-1.301 1.665-3.073 3.041-4.827 4.267-2.011 1.395-4.204.905-6.548.477-2.08-.377-4.424 1.119-6.403-.886-.403-.408-1.226-.641-1.823-.584-1.508.138-2.683-.239-3.582-1.483-.251-.352-.628-.735-1.024-.842-2.332-.641-4.676-1.219-7.02-1.791-2.388-.578-3.475-2.338-2.909-4.839.226-.999.572-1.967.823-2.96.251-.98.446-1.967.716-3.186h-28.806c-1.559 1.653-2.948 3.494-4.695 4.87-1.395 1.1-3.186 2.174-4.876 2.306-3.79.296-6.938 2.068-10.275 3.469-3.293 1.383-6.611 1.483-9.986.145-3.531-1.402-5.511-3.903-5.894-7.679-.088-.899-.245-1.791-.421-3.023H60.859v-3.425c22.202-.088 44.411-.044 66.833-.075.365-2.948.748-5.738 1.056-8.534 1.332-11.953 5.015-23.17 11.092-33.508 5.077-8.641 10.582-17.036 15.867-25.558 2.646-4.261 5.273-8.534 7.799-12.864.597-1.03 1.024-2.325 1.024-3.494 0-1.948.578-3.538 1.798-5.015 1.816-2.186 2.576-4.637 2.476-7.572-.151-4.311-.522-8.748 1.181-12.851 2.344-5.65 3.94-11.695 8.289-16.339.157-.164.27-.371.421-.541 2.708-2.991 4.65-2.702 6.429 1.395l-.007-.031Zm97.726-.013c-.188-.653-.276-1.099-.446-1.52-2.03-4.889-3.167-9.98-3.45-15.252-.44-8.251.742-16.371 2.074-24.465.943-5.725 2.369-11.387 3.111-17.13 1.175-9.094.804-18.049-4.77-25.923-2.42-3.419-4.751-7.051-9.376-7.981-.528-.107-1.119-.754-1.37-1.294-1.471-3.161-4.072-5.128-6.951-6.844-8.106-4.826-16.917-7.34-26.293-7.736-6.529-.276-12.989.34-19.047 3.117-10.533 4.826-17.181 12.889-19.902 24.144-.377 1.559-.798 3.167.276 5.329 1.238-2.331 2.212-4.116 3.142-5.926.553-1.068 1.163-1.891 2.583-1.785 2.149.164 4.311.139 6.46.271 6.599.408 13.178.729 19.745-.578 3.677-.736 7.422-1.151 11.142-1.672.409-.057.849.1 1.439.182 0 4.066-.169 8.013.032 11.94.54 10.495 3.406 20.405 8.138 29.756 1.533 3.029 3.431 5.888 6.366 8.125 2.237-1.137 4.405-2.381 6.692-3.355 1.578-.673 3.419-1.087 4.764.471 1.32 1.527 1.357 3.444.459 5.153-1.93 3.651-4.701 6.353-8.886 7.453-2.149.566-4.035.138-5.964-.704-.943-.408-2.099-.798-2.577.578-.414 1.194.434 1.936 1.427 2.382.679.302 1.433.428 2.514.742-3.507 5.762-5.021 11.77-4.6 18.237 1.621.144 2.865.22 4.097.37 1.288.157 2.564.377 3.858.566.264-8.697.321-8.968 2.59-10.884.308 1.074.597 1.985.835 2.916.503 1.979 1.1 3.946 1.446 5.957.779 4.499 3.934 6.429 7.905 7.39 1.64.396 3.425.71 5.065.49 2.514-.339 5.285-.232 7.479-2.507l-.007-.013Zm-96.946-29.586c-.365 1.653.873 1.741 1.728 2.219 2.564 1.439 5.172 2.815 7.629 4.43 1.313.861 2.262 2.269 3.532 3.224.86.647 1.967 1.074 3.022 1.301.352.075 1.169-.717 1.276-1.22.075-.364-.742-1.319-1.056-1.281-1.552.207-2.199-.949-3.154-1.71-2.407-1.91-4.77-3.89-7.322-5.586-1.64-1.088-3.55-1.93-5.649-1.383l-.006.006Zm18.72-5.31c-.905-2.979-1.608-5.825-3.349-8.201-.585-.798-1.911-1.426-2.922-1.47-2.483-.107-4.211 1.502-5.675 3.311-.182.227-.057.937.176 1.176.239.238.886.358 1.188.201.697-.358 1.282-.937 1.948-1.377 2.331-1.558 3.198-1.282 4.323 1.402.484 1.156.842 2.369 1.37 3.5.421.911.88 1.936 2.941 1.452v.006Zm24.427-31.578c2.998 1.1 3.903 3.513 4.512 6.102.214.911.383 1.935 1.609 1.778 1.439-.182 1.351-1.401 1.194-2.394-.427-2.646-1.533-5.015-3.456-6.906-1.615-1.584-2.382-1.339-3.859 1.414v.006Zm-22.265-10.067c-.038-.114-.069-.22-.107-.334-1.803.616-3.695 1.056-5.373 1.917-1.15.591-2.099 1.691-2.934 2.728-.271.333-.063 1.3.245 1.759.169.251 1.043.17 1.539.019.396-.119.691-.559 1.025-.861 1.853-1.659 4.009-2.495 6.516-2.394.993.037 2.244.308 2.281-1.226.032-1.382-1.124-1.495-2.168-1.596-.339-.031-.678 0-1.018 0l-.006-.012Zm-3.393 15.019c-.12-1.131-.993-1.477-2.118-1.477-1.841 0-3.588 1.81-3.639 3.764-.031 1.339 1.043 2.476 2.281 2.407 1.521-.088 3.532-2.702 3.476-4.694Zm22.422 8.917c-.044-.961-.534-1.891-1.967-1.917-1.414-.025-3.092 2.156-3.117 3.922-.019 1.276.735 1.86 1.866 1.973 1.684.163 3.205-1.609 3.218-3.978Z" fill="#F0F0F0"/><path d="M282.846 276.732c-2.193 2.281-4.964 2.168-7.478 2.508-1.64.226-3.425-.088-5.065-.491-3.972-.961-7.127-2.89-7.906-7.39-.345-2.011-.942-3.978-1.445-5.957-.239-.93-.528-1.848-.836-2.916-2.269 1.916-2.331 2.187-2.589 10.884-1.295-.195-2.577-.415-3.859-.565-1.231-.151-2.476-.227-4.097-.371-.421-6.467 1.094-12.474 4.6-18.237-1.081-.308-1.841-.434-2.514-.742-.992-.446-1.841-1.194-1.426-2.381.478-1.37 1.634-.987 2.576-.578 1.93.842 3.809 1.269 5.964.703 4.179-1.099 6.951-3.802 8.886-7.453.905-1.709.861-3.626-.459-5.153-1.344-1.558-3.179-1.144-4.763-.471-2.281.974-4.456 2.218-6.693 3.356-2.941-2.238-4.832-5.097-6.366-8.126-4.732-9.351-7.597-19.261-8.138-29.756-.201-3.927-.031-7.874-.031-11.94-.591-.081-1.031-.239-1.439-.182-3.721.528-7.46.936-11.142 1.672-6.567 1.307-13.147.986-19.745.578-2.149-.132-4.311-.107-6.46-.27-1.421-.107-2.03.71-2.583 1.784-.93 1.804-1.904 3.589-3.142 5.926-1.075-2.161-.654-3.77-.277-5.329 2.721-11.261 9.364-19.317 19.902-24.144 6.058-2.777 12.525-3.393 19.048-3.117 9.37.396 18.186 2.91 26.293 7.736 2.878 1.716 5.48 3.677 6.95 6.844.252.54.836 1.187 1.37 1.294 4.625.937 6.957 4.563 9.376 7.981 5.574 7.874 5.945 16.829 4.77 25.923-.741 5.75-2.168 11.406-3.111 17.13-1.332 8.095-2.513 16.22-2.073 24.465.282 5.279 1.42 10.369 3.45 15.252.169.415.257.867.446 1.521l.006.012Z" fill="#202634"/><path d="M185.904 247.146c2.105-.547 4.009.289 5.649 1.382 2.552 1.691 4.921 3.677 7.321 5.587.956.76 1.603 1.917 3.155 1.709.314-.044 1.131.918 1.056 1.282-.101.503-.924 1.295-1.276 1.219-1.062-.226-2.162-.653-3.023-1.3-1.269-.956-2.218-2.357-3.531-3.224-2.451-1.615-5.065-2.992-7.629-4.431-.855-.477-2.093-.565-1.729-2.218l.007-.006ZM204.627 241.835c-2.061.484-2.52-.534-2.941-1.451-.528-1.131-.88-2.344-1.37-3.501-1.131-2.683-1.992-2.959-4.323-1.401-.66.44-1.245 1.018-1.949 1.376-.301.151-.948.038-1.187-.201-.233-.239-.358-.955-.176-1.175 1.464-1.81 3.192-3.419 5.674-3.312 1.012.044 2.338.673 2.923 1.471 1.74 2.375 2.444 5.222 3.349 8.201v-.007ZM229.035 210.257c1.483-2.752 2.244-3.003 3.859-1.414 1.929 1.892 3.029 4.261 3.456 6.907.157.993.245 2.212-1.194 2.394-1.232.157-1.395-.867-1.609-1.778-.616-2.596-1.514-5.003-4.512-6.102v-.007ZM206.78 200.196c.34 0 .679-.025 1.018 0 1.044.101 2.2.214 2.168 1.596-.037 1.534-1.282 1.264-2.281 1.226-2.507-.094-4.656.735-6.517 2.394-.339.302-.634.742-1.024.861-.49.151-1.37.233-1.539-.019-.308-.459-.516-1.426-.246-1.759.836-1.037 1.785-2.137 2.935-2.728 1.678-.861 3.57-1.301 5.373-1.916.038.113.069.22.107.333l.006.012ZM203.382 215.209c.057 1.993-1.954 4.607-3.475 4.695-1.238.069-2.313-1.069-2.281-2.407.05-1.954 1.797-3.771 3.638-3.764 1.125 0 1.999.345 2.118 1.476ZM225.803 224.133c-.013 2.369-1.533 4.142-3.217 3.978-1.132-.113-1.886-.691-1.867-1.973.025-1.766 1.709-3.947 3.117-3.921 1.433.025 1.923.955 1.967 1.916Z" fill="#000"/><path d="M366.441 268.518c-2.589.088-4.097.962-5.53 2.112-3.381 2.715-6.762 5.429-10.187 8.088a38.506 38.506 0 0 1-3.965 2.677c-.899.534-2.137.968-2.74-.139-.409-.741-.321-1.992 0-2.84.39-1.031 1.288-1.86 1.91-2.815.409-.635.71-1.339 1.251-2.376-3.771.528-7.152.93-10.514 1.483-8.703 1.439-17.419 2.175-26.249 1.358-4.066-.377-7.786-1.653-11.337-3.545-2.532-1.351-4.021-3.575-3.795-6.403.207-2.564.597-5.279 1.665-7.579 2.922-6.284 7.799-10.935 13.712-14.41 5.197-3.054 10.935-4.022 16.848-3.048 2.828.465 4.519-.515 6.153-2.991-2.043-.402-3.897-.723-5.719-1.131-5.172-1.156-10.162-2.677-13.876-6.825-3.959-4.417-5.637-9.539-4.996-15.434.12-1.118.245-2.237.403-3.72-2.275-.182-4.406-.295-6.517-.54-1.917-.22-3.89-.34-5.706-.918-2.539-.811-3.086-2.834-1.169-4.707a15.094 15.094 0 0 1 5.103-3.255c3.55-1.351 7.365-1.936 11.11-1.269 3.444.609 6.184-1.226 9.238-1.923.534-.12.999-.886 1.339-1.446.816-1.363 1.533-2.79 2.381-4.355-.559-.678-1.15-1.338-1.678-2.042-1.225-1.64-2.846-3.149-3.525-4.996-1.207-3.293-3.494-5.832-5.178-8.767-2.426-4.235-4.412-8.728-6.416-13.19-.66-1.471-1.207-2.815-2.539-3.903-3.595-2.941-5.084-6.9-4.996-11.494.075-4.059.729-7.962 3.381-11.299-2.954-4.329-7.736-4.568-12.104-6.12-.484.861-.88 1.646-1.357 2.381a1216.41 1216.41 0 0 1-6.743 10.269c-.308.465-.704.974-1.182 1.206-.553.264-1.47.541-1.816.277-.534-.409-1.099-1.376-.961-1.929.301-1.182 1.037-2.256 1.609-3.369 1.803-3.519 3.619-7.038 5.53-10.758-2.325-1.226-4.261-2.42-6.341-3.243-.767-.302-1.929.157-2.834.49-2.564.936-5.078 2.005-7.636 2.973-.628.238-1.319.358-1.992.446-5.253.697-7.377-.673-8.697-5.826-.616-2.4-.955-4.87-1.483-7.629h-15.924c-.189.805-.459 2.212-.861 3.576-1.27 4.305-4.864 5.624-8.465 2.897-1.596-1.207-2.834-2.935-4.11-4.525-.773-.967-1.301-2.13-2.124-3.506-1.131 1.156-2.137 2.206-3.167 3.23-1.377 1.364-2.696 2.809-4.192 4.034-3.463 2.841-6.372 6.039-8.628 9.999-1.546 2.714-3.846 5.115-6.19 7.239-3.412 3.098-7.554 4.625-12.28 4.135-1.106-.113-2.224-.138-3.582-.22-.201 1.458-.383 2.677-.54 3.903-.163 1.269-.704 2.262-2.13 2.136-1.245-.113-1.609-1.118-1.641-2.243-.012-.654 0-1.307 0-1.904-1.935-.786-2.664.634-3.582 1.545-4.945 4.921-9.935 9.766-16.295 12.896-4.964 2.444-10.048 4.455-15.723 3.871-2.35-.245-4.663-.861-7.157-1.339.018 3.645.754 7.29 1.753 10.903.27.981.672 2.005.591 2.973-.051.597-.817 1.363-1.433 1.609-.409.163-1.339-.308-1.672-.761-.515-.71-.704-1.653-1.068-2.488a7951.35 7951.35 0 0 0-6.9-15.761c-4.204 3.576-8.031 6.78-11.764 10.08-.503.446-.723 1.382-.779 2.117-.522 6.228-.975 12.456-1.477 19.017-.201-.202-.063.062.113.094 4.971.898 8.157 4.173 11.073 7.993 5.693 7.472 9.571 15.774 11.657 24.898 1.301 5.675.829 11.067-2.91 15.9-2.846 3.682-6.799 5.215-11.123 6.127-.873.182-1.778.232-2.909.377.458 2.262.861 4.367 1.307 6.46 1.483 6.95 2.174 13.976 1.816 21.077a23.965 23.965 0 0 1-.892 5.373c-.453 1.565-1.452 2.859-3.287 3.105-1.823.245-3.174-.623-3.984-2.099-1.377-2.489-2.564-5.078-3.815-7.629-.49-1.006-.936-2.036-1.345-2.929-4.26.566-8.307 1.1-12.675 1.678-.182.76-.484 1.709-.635 2.69-1.91 12.015-7.308 22.214-15.968 30.717-1.464 1.439-2.809 2.822-3.475 4.921-.861 2.714-2.099 3.11-5.046 2.501-.723-.151-1.565-.208-2.25.012-10.344 3.274-20.028-1.854-25.043-8.892-1.426-1.998-2.884-2.796-5.31-2.734-6.768.17-12.518-2.036-16.735-7.641-.616-.817-1.79-1.389-2.821-1.684-8.849-2.52-15.14-8.157-19.708-15.937-3.33-5.681-2.639-12.474 3.796-16.735 4.543-3.004 9.414-5.071 14.85-6.215-1.345-.333-2.696-.654-4.041-.999-15.51-3.972-20.267-15.742-18.168-29.096.252-1.615.465-3.042-.157-4.638-.434-1.119-.64-2.533-.364-3.676 1.156-4.751 2.482-9.458 3.87-14.146.346-1.175 1.1-2.256 1.798-3.293 3.016-4.5 6.623-8.188 12.612-8.597.604-1.2 1.157-2.426 1.816-3.594 1.144-2.03 2.495-3.89 5.053-4.192 1.433-.17 1.785-1.194 2.174-2.294 1.282-3.657 2.476-7.352 3.928-10.941 2.074-5.109 4.6-9.954 9.357-13.196.358-.246.635-.648.874-1.031 1.81-2.903 4.386-4.87 7.434-6.366 1.024-.503 1.803-1.515 2.89-2.457-2.595-1.502-4.82-2.658-6.9-4.035-1.89-1.25-3.789-2.582-5.385-4.172-1.376-1.37-2.778-2.256-4.72-2.256-.339 0-.672-.114-1.011-.164-1.037-.157-2.18-.32-2.313-1.602-.157-1.477.943-1.892 2.162-2.087.207-.031.396-.194.867-.433-.39-.974-.785-1.992-1.2-2.998-2.683-6.473-4.531-13.084-4.512-20.21.019-8.301 2.796-15.591 7.139-22.491 3.802-6.04 8.47-11.368 13.561-16.264 5.41-5.21 11.155-10.117 17.024-14.812 2.721-2.174 5.983-3.783 9.188-5.215 5.02-2.25 10.33-1.037 14.032 3.054 1.213 1.345 2.275 1.84 4.104 1.527 7.755-1.333 15.541-2.489 23.314-3.727.44-.069.855-.289 1.433-.496.258-1.408.566-2.84.773-4.286 1.043-7.158 5.141-12.286 10.872-16.289.917-.64 2.005-1.1 3.079-1.433 4.927-1.52 7.698-.414 10.237 3.978 1.445.308 2.916.547 4.336.95 1.414.395 2.784.96 4.525 1.576 3.274-3.92 7.547-5.988 12.656-5.228 4.341-5.82 10.533-8.142 18.576-6.97-.307-1.96-.641-3.82-.886-5.686-.584-4.412.868-6.404 5.323-7.058 11.827-1.74 21.574 1.86 29.084 11.614.565-.723 1.124-1.39 1.633-2.087a40.39 40.39 0 0 1 12.902-11.556C239.167-.214 245.52-1 251.54 4.952c.315-.516.503-.88.736-1.213 1.357-1.948 2.117-1.986 3.594-.157 3.859 4.8 7.705 9.608 11.557 14.41.49.603 1.018 1.175 1.659 1.904.289-.39.54-.597.616-.855 1.194-3.934 2.903-4.908 6.843-3.877 3.186.835 5.367 2.985 7.026 5.655 1.98 3.193 3.796 6.486 5.813 9.967 5.982-.333 10.337 3.042 14.554 7.642.893-1.075 1.596-2.13 2.489-2.973 2.947-2.765 5.656-2.174 7.214 1.502.132.315.32.629.364.956.478 3.663 2.621 6.41 5.04 9.162 2.256-.503 4.563-1.144 6.913-1.496 1.898-.283 3.94-.616 5.75-.2 1.747.395 3.098.062 4.556-.617 3.167-1.483 6.341-2.96 9.703-4.524-.666-1.835-1.169-3.218-1.672-4.594-.232-.641-.691-1.295-.653-1.917.044-.691.39-1.54.899-1.948.301-.239 1.382.057 1.765.452 1.182 1.22 2.2 2.602 3.306 3.953 1.364.535 3.507-1.055 4.16 1.081.264.874-.767 2.143-1.408 3.702 2.721 6.259 5.669 13.02 8.698 19.983 1.081-.32 2.023-.615 2.972-.88 5.329-1.482 9.848.359 12.399 5.23 2.401 4.587 3.846 9.5 4.355 14.666.132 1.345.232 2.703.371 4.33 1.093-.226 1.948-.377 2.796-.584 3.262-.81 6.548-1.006 9.829-.22 1.2.289 2.425.697 3.487 1.313 5.009 2.904 5.964 7.133 2.407 11.695-1.514 1.942-3.601 3.457-5.498 5.078-.937.798-2.036 1.414-3.168 2.181.66 2.721 1.295 5.341 1.999 8.276 1.816-.088 3.481-.233 5.153-.233 1.118 0 2.312 0 3.337.371.559.201 1.2 1.207 1.143 1.785-.056.565-.873 1.37-1.483 1.508-1.388.314-2.859.283-4.757.434 3.237 4.242 5.216 8.666 6.913 13.247.364.993 1.364 1.785 2.143 2.595 3.997 4.173 7.29 8.786 8.835 14.441 1.49 5.436 1.396 10.878-.691 16.119-1.049 2.633-1.495 5.179-1.012 7.969.283 1.659.208 3.381.302 5.216 1.332.063 2.564.037 3.777.182 4.977.603 7.554 3.727 6.9 8.722-.365 2.803-1.232 5.543-1.961 8.71 2.539 1.999 5.568 4.035 8.176 6.523 2.514 2.401 4.594 5.254 6.862 7.906.987-3.544 1.873-7.17 3.029-10.708.811-2.476 1.955-4.858 3.042-7.24.534-1.175 1.395-2.105 2.853-2.124 1.527-.019 2.199 1.056 2.715 2.231.729 1.672 1.508 3.337 2.042 5.071 2.338 7.629 4.732 15.246 6.844 22.938 2.394 8.71 3.996 17.564 3.563 26.67-.27 5.687-2.055 10.947-4.531 16.012-1.207 2.464-3.249 3.695-5.939 4.041-3.173.415-6.183-.144-8.948-1.634-3.714-1.998-7.328-4.179-10.96-6.322-1.094-.641-2.099-1.477-3.613-.396.333.622.672 1.289 1.049 1.936 2.275 3.953 4.782 7.792 6.749 11.89 1.358 2.84 2.206 5.988 2.853 9.087.842 4.04-.358 5.404-4.43 5.863-.321.037-.635.163-1.106.289.113 1.426-.383 2.891 1.521 3.72.521.226.93 1.603.773 2.313-.522 2.444-1.32 4.832-2.011 7.239-.352 1.213-1.125 2.08-2.414 2.036-1.363-.05-1.872-1.15-2.117-2.331-.164-.773-.245-1.565-.346-2.237-3.4-.824-6.812-1.301-9.942-2.502-3.054-1.168-5.825-3.066-8.879-4.732-.798 2.187-2.413 3.884-1.873 6.448.346 1.64-.873 2.671-2.312 3.412-1.289.667-2.602 1.37-3.702 2.3-12.462 10.495-26.406 12.896-41.601 7.347-5.543-2.024-9.521-6.153-10.338-12.198-.88-6.548.584-12.543 6.479-16.597 2.061-1.42 4.028-2.689 4.606-5.523.245-1.207 1.829-2.225 2.96-3.136.949-.767 2.131-1.251 3.808-2.2l-.031.025Zm65.752-14.818c4.242 2.275 8.081 4.456 12.053 6.391 1.276.622 2.859.685 4.324.83 2.325.239 4.072-.792 4.813-2.992 1.27-3.764 2.784-7.522 3.419-11.405 1.382-8.484-.321-16.848-2.382-25.024-2.231-8.83-5.084-17.495-7.698-26.224-.276-.924-.742-1.798-1.112-2.696-3.959 8.527-6.781 17.137-5.907 26.595 2.3.458 4.26.628 6.032 1.3.849.321 1.886 1.634 1.835 2.432-.05.811-1.2 1.892-2.105 2.238-1.558.603-3.305.735-4.971 1.062-.402 1.533-.603 3.029-1.212 4.336-.315.666-1.389 1.414-2.055 1.363-.667-.05-1.502-.948-1.823-1.671-.427-.955-.427-2.105-.635-3.281-2.224.302-4.172.566-6.365.868.766 1.64 1.338 2.752 1.809 3.902 1.207 2.948 2.684 5.832 3.469 8.886 1.075 4.192 1.854 8.534-1.477 13.078l-.012.012Zm-86.364 6.184c-4.412.93-8.704 2.13-13.078 2.671-3.23.396-6.598.207-9.847-.208-4.11-.528-5.298-2.708-3.651-6.504.942-2.162 2.369-4.135 3.726-6.096 1.144-1.646 2.508-3.148 3.827-4.782-3.695-.873-6.303-.823-9.834.377-7.497 2.545-12.833 7.654-16.547 14.479-.836 1.533-1.049 3.45-1.363 5.216-.384 2.181.634 3.651 2.614 4.657 3.739 1.897 7.717 2.614 11.852 2.865 11.487.685 22.655-1.835 33.941-3.217 2.784-.34 4.254-1.716 5.159-4.148l-6.812-5.304.013-.006Zm-313.32-4.324c-9.67 6.222-12.109 22.661-4.612 30.843.49.534 1.307 1.006 2.011 1.069 5.002.414 10.005.553 14.932-.692 1.445-.364 2.444-1.187 3.43-2.469 2.22-2.879 2.483-5.574.673-8.666-.678-1.163-1.08-2.501-1.52-3.796-1.503-4.412-4.268-8-7.328-11.393-2.093-2.319-4.638-3.978-7.591-4.889l.006-.007Zm87.012-25.313c1.339 3.356 2.809 7.039 4.368 10.941 5.429.258 10.086-1.301 13.172-6.07 2.287-3.538 2.526-7.585 1.508-11.538a89.241 89.241 0 0 0-3.84-11.645c-2.476-6.052-6.045-11.462-10.614-16.182-1.816-1.879-3.946-2.802-6.737-2.463.861 2.954 1.697 5.668 2.445 8.408.402 1.477 1.056 2.658 2.35 3.595 2.627 1.885 3.557 4.707 3.519 7.78-.025 1.91-.182 3.946-.879 5.693-1.496 3.771-3.375 7.39-5.298 11.494l.006-.013Zm275.406 69.862c-15.006-.917-27.682-5.266-35.141-19.16-5.48 2.394-7.698 6.768-7.692 12.48.006 4.946 3.218 9.395 8.446 11.318 11.551 4.248 22.598 3.054 33.055-3.45.346-.214.622-.547 1.339-1.194l-.007.006ZM51.771 91.071c-1.163 2.206-2.306 3.927-3.023 5.813-3.714 9.772-.15 18.029 5.625 25.759.251.333.798.791 1.068.71 2.476-.704 5.254-1.031 7.277-2.432 2.168-1.502 3.664-4.003 3.909-6.938.17-2.042.497-4.072.723-6.108.37-3.23.697-6.448-3.073-8.132-.29-.132-.56-.434-.717-.723-.93-1.697-2.388-1.74-4.09-1.57-5.23.52-6.122-.22-6.932-5.412-.025-.17-.233-.307-.773-.974l.006.007Zm304.465 126.847c-.39-2.583-1.704-3.947-4.048-4.054-.86-.037-1.753.403-2.608.698-6.208 2.137-12.549 3.287-19.135 2.589-3.349-.358-6.724-1.15-8.905-3.802-2.419-2.947-5.222-2.4-8.138-2.118-3.5 10.137 2.728 21.769 16.691 21.964-.616-4.116 1.747-6.592 4.858-8.616 3.576-2.325 7.478-3.84 11.651-4.688 3.198-.654 6.397-1.307 9.634-1.967v-.006Zm44.303 73.883c-.729.214-1.257.409-1.81.528-3.745.798-5.153.157-6.749-3.412a25.196 25.196 0 0 1-1.665-5.185c-.327-1.583-1.075-2.639-2.438-3.475-4.707-2.897-9.842-4.242-15.303-4.097-3.186.088-6.277.899-9.137 2.79.201.603.321 1.144.547 1.634 1.967 4.317 5.354 7.283 9.263 9.778 7.415 4.732 15.654 5.964 24.232 5.763.679-.019 1.395-.088 2.017-.327 1.571-.597 1.948-1.885 1.05-3.997h-.007ZM4.822 222.386c-2.608 7.183 1.652 17.734 8.647 21.561 6.02 3.293 12.681 3.953 19.883 5.31-1.822-1.879-2.482-3.444-.201-4.895-5.423-4.481-9.514-9.571-11.626-15.774-3.16-.779-6.114-1.238-8.86-2.262-2.734-1.018-5.248-2.602-7.85-3.934l.007-.006Zm46.22-97.808c-1.91-3.946-4.01-7.616-5.505-11.519-3.513-9.156-.993-19.801 6.398-26.255 3.255-2.84 5.14-6.536 7.804-9.678-4.241-4.493-8.88-5.015-13.492-1.464-4.512 3.475-6.705 8.37-7.258 13.844-.415 4.166-.453 8.44-.025 12.6.817 7.912 4.04 14.912 9.275 20.933.679.779 1.226 2.029 2.803 1.533v.006Zm72.049 153.109c2.985-5.128 1.414-25.526-2.005-32.483-5.109-1.621-9.866-3.161-14.642-4.619-.811-.245-1.797-.346-2.589-.119-1.615.465-3.149 1.2-4.676 1.816.698 4.235.654 4.298 2.439 5.36 4.989 2.979 9.105 6.837 12.059 11.865.641 1.1 1.439 1.489 2.715 1.621 3.569.365 4.015 1.577 1.91 4.613-.188.276-.345.578-.572.961 1.509 3.689 2.734 7.548 5.367 10.985h-.006ZM27.395 255.12c-.315-.232-.478-.458-.654-.465-6.894-.427-12.72 2.219-17.847 6.505-2.973 2.482-3.588 6.032-1.823 9.64 3.036 6.208 7.491 11.123 13.832 14.139.635.302 1.376.39 2.646.729-6.127-11.494-3.212-21.348 3.846-30.541v-.007Zm342.59-17.143c-4.078 0-7.591-.05-11.104.013-3.626.069-7.246.251-11.318.402-.471 3.343-.93 6.561-1.294 9.175 2.074 1.979 3.864 3.274 5.115 4.971 1.722 2.337-.88 3.77-2.042 5.687 1.948 1.301 3.701 2.47 5.718 3.814 4.971-8.175 10.614-15.453 14.925-24.068v.006ZM151.872 64.35c-1.96-6.567-3.877-13.002-5.863-19.644-.71.138-1.577.427-2.444.44-2.388.031-3.526 1.376-4.506 3.412-1.427 2.96-3.243 5.737-4.914 8.578-.666 1.137-1.402 2.237-2.118 3.374 1.904 1.056 3.588 1.804 5.046 2.86 1.917 1.382 1.691 3.865-.327 5.109-1.47.905-3.066.917-4.593.258-1.421-.616-2.753-1.452-4.123-2.181-2.715 2.828-2.727 3.437-.126 7.208l23.968-9.407v-.007Zm100.177-42.99c.183-.176.365-.346.547-.522-.157-2.262-.289-4.53-.471-6.793-.604-7.315-7.749-11.796-14.517-9.03-1.885.773-3.733 1.728-5.417 2.865-4.091 2.753-7.711 6.046-10.268 10.319-2.074 3.462-1.647 6.51 1.288 9.27 2.765-5.468 5.694-10.854 12.279-12.35 6.75-1.533 11.676 2.35 16.559 6.235v.006Zm102.992 155.654c4.029 3.808 7.975 7.61 9.025 13.178 2.407.314 4.43.672 6.46.804.817.05 1.841-.176 2.457-.666 1.848-1.464 3.538-3.123 5.398-4.807-1.144-4.368-2.312-8.842-3.494-13.367-5.26.735-10.476 2.306-14.209-3.217a5048.84 5048.84 0 0 1-5.637 8.075ZM51.601 298.632c4.846 8.484 16.251 12.33 23.547 7.724-.17-4.424-.207-9.094-.572-13.731-.295-3.771-2.111-4.72-5.592-3.036-2.25 1.088-4.292 2.589-6.517 3.733-3.513 1.81-7.101 3.482-10.866 5.31Zm29.662-105.279c4.908-.937 9.47.081 13.744 2.111 3.06 1.458 5.85 3.501 8.722 5.348.955.616 1.722 1.508 2.665 2.143 1.86 1.251 3.877.691 4.694-1.332.848-2.112 1.665-4.261 2.25-6.454.27-1.024.22-2.288-.132-3.293-.717-2.036-1.641-4.016-2.652-5.926-1.276-2.407-4.047-2.665-5.832-.66-.754.855-1.395 1.892-2.313 2.489-.628.408-1.891.559-2.432.182-.49-.339-.54-1.546-.496-2.357.031-.622.503-1.225.779-1.835-.17-.169-.346-.339-.515-.509-5.41 4.688-11.632 7.812-18.476 10.086l-.006.007ZM189.358 82.009c-5.581 1.37-10.633 2.652-15.711 3.833-1.929.446-2.89 1.584-3.154 3.47-.095.672-.283 1.331-.421 1.998-.616 2.984-.434 3.267 2.482 3.99 5.398 1.345 10.796 2.683 16.188 4.053 1.276.32 2.526.736 3.934 1.15.465-1.677.943-3.073 1.219-4.512.207-1.074.541-2.344.17-3.28-1.358-3.463-2.979-6.825-4.707-10.702ZM329.1 186.717c4.896-5.952 9.54-11.601 14.272-17.351-.956-1.144-1.521-2.225-2.42-2.809-2.143-1.402-4.436-2.564-6.793-3.896-3.211 1.633-6.165 3.871-8.609 6.805-2.024 2.426-3.356 5.16-3.633 8.289-.088 1.025.151 2.407.805 3.098 1.91 2.043 4.103 3.815 6.372 5.864h.006ZM98.444 269.668c-.276-.169-.553-.333-.83-.502-.364.326-.867.584-1.062.993-.54 1.118-.823 2.369-1.432 3.443-3.331 5.882-8.421 8.76-15.183 8.591-2.105-.057-4.085.019-5.593 2.13 1.621 2.614 3.494 5.197 4.877 8.019 1.363 2.771 2.224 5.794 3.43 9.049 9.113-8.98 14.417-19.393 15.787-31.723h.006Zm89.632-252.92c.999-.491 1.785-.893 2.583-1.27 6.655-3.098 11.927-.823 14.183 6.215.648 2.03 1.006 4.147 1.534 6.39 1.765.12 3.569.246 5.366.365 1.867.126 3.733.258 5.612.39-.132-8.025-3.808-13.272-10.212-17.074-4.556-2.709-9.426-3.337-14.472-3.161-6.574.226-6.234.848-5.179 6.334.101.522.321 1.018.585 1.81Zm205.796 233.169c-.157-3.349-.585-6.215-.352-9.03.358-4.362-1.32-7.045-5.065-9.32-2.702-1.64-4.996-2.3-8-.999 1.282 2.407 2.413 4.738 4.902 6.316 3.67 2.325 4.166 5.894 1.602 9.369-.873 1.188-1.866 2.3-2.897 3.362-1.219 1.245-2.042 2.533-2.306 4.381-.484 3.374-2.2 6.183-4.99 8.27-.559.414-1.012.974-1.514 1.47.088.17.182.339.27.509 4.524-.917 9.049-1.835 13.486-2.74.458-2.796.817-5.272 1.288-7.723.383-1.999 1.194-3.708 3.576-3.871v.006ZM62.31 74.769c4.914-4.424 10.438-6.856 17.017-7.396-3.318-5.317-7.911-8.679-11.933-12.732-5.75 4.613-11.394 9.326-16.836 15.547 4.971-.239 8.522 1.345 11.752 4.581ZM394.65 188.131c-1.948 1.709-3.915 2.714-4.682 4.292-1.106 2.275-1.565 4.763-4.562 5.341-.252.051-.478.472-.635.767-1.753 3.343-3.318 6.73-2.664 10.174 2.344 1.533 4.26 2.897 6.29 4.066.817.465 1.929.817 2.822.672 3.173-.509 6.089-1.671 8.232-4.009-3.821-6.441-3.318-13.7-4.807-21.303h.006ZM155.291 75.769c-.873-2.696-1.697-5.241-2.627-8.12-8.069 3.168-15.773 6.203-23.496 9.232.949 5.002 3.588 7.868 8.314 8.565.823.12 1.835-.031 2.57-.42a358.416 358.416 0 0 0 11.984-6.605c1.15-.667 2.099-1.69 3.255-2.652Zm82.487-40.087c3.236-5.128 7.773-8.214 13.203-10.646-1.313-1.156-2.105-1.967-3.01-2.627-1.383-1.005-2.79-1.998-4.28-2.821-4.556-2.527-9.558-1.684-13.021 2.23-2.13 2.407-3.6 5.21-4.757 8.604 3.664 2.3 7.95 2.922 11.865 5.26ZM73.301 208.9c-1.062 2.174-1.898 3.783-2.64 5.436-1.087 2.425-1.074 2.878 1.195 4.16 3.757 2.13 7.635 4.066 11.506 5.989 2.036 1.012 4.254 1.678 6.246 2.771 3.582 1.955 4.041 3.821 2.2 7.56-.082.163.019.421.05.842.867.572 1.835 1.213 3.35 2.218-1.282-8.879-3.683-16.489-9.062-22.918-.497-.597-1.131-1.188-1.829-1.489-3.538-1.534-7.12-2.967-11.01-4.569h-.006Zm-51.631-6.448c-5.977 3.237-11.149 7.189-14.724 12.971-1.39 2.243-1.364 2.696.49 4.367 3.682 3.325 8.163 4.55 12.895 5.078.245-3.28.277-6.24.735-9.131a53.733 53.733 0 0 1 2.13-8.584c.648-1.929.353-3.28-1.533-4.701h.007Zm155.628-57.569c-3.701-2.018-3.707-2.037-6.837-.233-8.835 5.09-17.998 9.238-28.386 9.904-.308.019-.603.27-1.005.459.358 2.438 2.275 3.261 4.154 3.959 3.073 1.144 6.278 1.125 9.414.352 9.149-2.256 16.37-7.573 22.66-14.441Zm190.293-13.248c-3.324-.949-6.108-1.458-8.641 1.018-.773.761-1.986 1.069-2.997 1.584-.604.308-1.54.478-1.747.955-1.282 3.023-4.418 5.248-3.714 9.15.49 2.715-.277 5.593.81 8.459 2.533-.956 4.833-1.923 7.196-2.684 1.634-.521 2.206-1.621 2.677-3.142a100.3 100.3 0 0 1 3.136-8.628c.905-2.193 2.074-4.28 3.274-6.712h.006ZM329.578 81.23c1.106-4.934 2.218-9.678 3.198-14.454.132-.635-.232-1.615-.703-2.086-1.848-1.83-3.827-3.52-5.801-5.298-1.187.716-2.105 1.408-3.129 1.873-3.783 1.703-3.865 5.272-3.67 8.414.22 3.57 1.433 7.076 2.268 10.878l7.843.673h-.006Zm19.318-3.828c1.049-8.464-.654-28.769-2.665-32.2-3.714 4.751-6.077 10.143-8 15.73-.792 2.287.12 4.6 1.534 6.334 2.79 3.425 5.894 6.586 9.124 10.136h.007Zm-26.928 181.005c6.095 1.929 16.251.817 21.699-2.193.239-4.927-2.187-7.799-6.837-8.993-1.094-.283-2.149-.723-3.193-1.169-1.583-.678-2.815-.308-3.858 1.037-2.086 2.684-4.267 5.291-6.284 8.025-.692.943-1.012 2.162-1.521 3.287l-.006.006ZM81.401 159.38c-3.136-.427-5.454-.848-7.792-1.005-.767-.051-1.678.446-2.35.93-2.213 1.59-4.217 3.506-6.542 4.902-3.212 1.935-6.643 3.519-9.98 5.247-3.362 1.747-4.01 3.695-2.476 7.151.34.761.553 1.622.616 2.457.295 3.89 6.221 7.736 9.96 6.398a2.29 2.29 0 0 0 .836-.566c1.546-1.615 3.073-3.242 4.846-5.128-2.187-.628-3.916-1.162-5.663-1.615-1.652-.427-3.355-.672-4.99-1.175-2.324-.716-2.72-2.281-1.13-4.097.295-.34.666-.622 1.018-.905 6.07-4.965 12.77-8.735 20.36-10.872.968-.27 1.823-.936 3.287-1.715v-.007Zm339.725 38.328c.264 6.202.497 12.084.792 17.96.038.76.245 1.621.673 2.225.402.565 1.194 1.187 1.828 1.206 3.607.113 7.221.057 11.343.057-.326-2.03-.358-3.733-.879-5.26-2.407-7.076-7.12-12.267-13.75-16.188h-.007Zm-314.802-22.705c3.055-5.103 5.87-9.734 8.578-14.435.321-.559.333-1.678-.025-2.174-1.37-1.911-2.671-4.085-4.556-5.323-1.005-.66-3.18.245-4.744.716-1.238.371-2.646.899-3.457 1.816-1.483 1.678-2.589 3.689-3.965 5.738 4.361 2.482 6.46 6.089 6.466 10.972 0 .779.956 1.565 1.703 2.69ZM375.962 87.47c.477-.754 1.332-1.496 1.37-2.269.314-6.755-1.125-13.178-4.582-18.997-2.199-3.708-6.422-4.066-10.054-1.037 1.998 4.996 4.015 10.074 6.083 15.126.289.71.735 1.433 1.294 1.955 1.722 1.621 3.538 3.154 5.889 5.228v-.006ZM92.593 218.1c1.352 3.255 2.803 6.768 4.311 10.394 6.404-4.707 12.889-8.22 20.311-1.596 1.005-1.653 1.873-3.067 2.79-4.575-3.368-3.657-6.554-7.126-9.872-10.733-2.206 3.029-3.739 6.699-7.328 7.189-3.337.458-6.856-.402-10.205-.673l-.007-.006ZM75.69 203.904c3.192 1.816 6.372 3.173 8.993 5.241 3.198 2.514 6.736 4.254 10.419 5.738 5.876 2.369 8.71 1.231 11.751-4.343 1.138-2.086.472-3.18-1.985-3.161-1.364.013-2.728.189-4.092.208-8.257.088-15.823-1.779-21.894-7.818-.195-.195-.565-.207-1.068-.377-.798 1.697-1.552 3.312-2.118 4.518l-.006-.006Zm283.098 58.99c2.457 1.106 4.38 1.414 6.404-.572 3.732-3.664 7.666-7.126 11.544-10.645.879-.798 1.583-1.578 1.401-2.904-.534-3.846-1.91-7.384-3.626-11.173-5.373 8.647-10.501 16.892-15.723 25.294Zm-49.941-116.755c-.352 3.476.214 6.681.905 9.904.39 1.81 1.383 2.69 3.155 3.023 4.487.848 8.98 1.401 13.549.798 1.282-.17 2.551-.421 4.568-.76-7.189-5.606-13.379-11.293-22.177-12.965Zm-184.542-33.746c3.707-1.326 5.712-3.463 7.101-6.372 1.024-2.143 2.187-4.267 3.613-6.152 1.358-1.791 1.213-3.243-.069-4.852-.54-.678-1.037-1.389-1.734-2.325-4.72 2.79-9.257 5.467-14.058 8.302 1.785 3.946 3.444 7.629 5.147 11.393v.006ZM69.662 91.68c.83.497.918.597 1.012.597 4.996.296 10.061.22 14.661 2.709.346.188.899.163 1.301.05 3.972-1.112 5.756-3.77 5.342-7.912-.088-.892-.252-1.772-.371-2.589-6.26-2.224-7.686-2.13-12.883 1.138-2.954 1.853-5.825 3.852-9.068 6.007h.006Zm289.992-24.477c-5.216 4.858-6.856 10.69-6.906 17.1-.007.823.735 1.992 1.47 2.413 2.024 1.169 4.223 2.03 6.63 3.142.277-3.657.867-6.881 4.286-8.704-1.829-4.656-3.588-9.143-5.48-13.95ZM38.159 218.772c-2.036-1.835-3.94-3.613-5.907-5.31-1.986-1.715-3.481-4.022-6.051-5.41-1.61 5.806-3.168 11.248-1.967 17.375 3.16.183 6.296.365 9.388.541l4.544-7.196h-.006Zm342.805-129.97c-.251 2.816-.484 5.492-.735 8.264 4.675-2.1 5.668-2.42 9.809 2.966 1.012-.66 2.087-1.27 3.054-2.017 1.069-.836 2.125-1.722 3.036-2.728 3.148-3.456 2.369-6.497-2.017-8.081a5.627 5.627 0 0 0-1.32-.314c-4.003-.421-7.943-.39-11.833 1.904l.006.006Zm40.634 138.957c-.484 5.869-.937 10.84-1.263 15.817-.044.666.364 1.628.886 2.03 2.488 1.91 5.096 3.676 7.465 5.361 2.074-1.088 2.005-2.596 2.03-4.091.107-6.693-3.199-12.217-6.202-17.816-.327-.61-1.571-.729-2.916-1.307v.006Zm-375.57-48.118c-.648-1.119-1.126-2.168-1.823-3.055-.44-.559-1.15-1.062-1.829-1.244-3.638-.98-4.223-1.992-3.01-5.549 1.075-3.148 1.207-7.711.233-11.462-4.494 6.183-6.467 13.14-8.647 20.009 2.557 1.194 4.85 2.507 7.308 3.337 2.784.942 5.612 1.049 7.774-2.036h-.007ZM3.91 213.092c2.847-2.904 5.11-5.562 7.736-7.799 2.646-2.25 5.662-4.072 8.226-5.876-.44-3.337-.842-6.416-1.263-9.583-3.462.012-5.63 2.174-7.641 4.518-4.481 5.228-5.662 11.707-7.064 18.746l.006-.006Zm113.054-77.699c-1.904 1.923-3.771 3.708-2.288 6.988.798 1.779.39 3.828-.691 5.587-.465.754-.918 1.515-1.332 2.2 1.715 1.979 3.305 3.82 5.077 5.869l9.131-15.019c-3.462-1.967-6.604-3.758-9.897-5.631v.006Zm26.852 14.617.434.918c9.495-1.2 17.885-5.216 26.067-10.256-1.439-2.275-2.747-4.336-4.192-6.617-7.585 5.429-14.95 10.696-22.309 15.955Zm116.057-98.863c2.69-1.093 5.103-2.03 7.485-3.048 2.375-1.018 5.09-1.219 7.591-2.89-5.021-3.985-9.709-7.705-14.315-11.356-1.666.723-2.131 1.76-1.967 3.35.465 4.505.791 9.017 1.206 13.95v-.006ZM83.418 66.625c3.01-1.76 5.933-3.469 9.157-5.348-.692-2.438-1.352-4.782-2.062-7.296-5.882.358-11.393.698-16.816 1.03-.088.416-.164.573-.12.617 3.174 3.557 6.36 7.107 9.841 10.99v.007ZM39.36 127.438c2.256-.497 4.405-.968 7.02-1.54-8.246-9.521-11.47-20.317-11.287-32.282-4.43 9.3-1.697 23.666 4.267 33.822Zm21.825 66.738c-2.897 3.532-3.23 7.158-.786 11.148 2.156 0 4.311-.038 6.473.013 1.213.031 1.728-.641 2.357-1.565 1.652-2.432 3.513-4.719 5.247-7.095.34-.465.478-1.081.773-1.778-4.82-.252-9.326-.484-14.064-.729v.006Zm323.87-31.207c2.476-2.256 4.455-3.922 6.246-5.769.528-.547.654-1.615.698-2.458.264-5.228-3.218-8.326-6.504-11.738a2257.855 2257.855 0 0 0-4.638 3.682c1.345 5.229 2.671 10.357 4.198 16.289v-.006ZM244.012 92.013c-1.012 1.515-1.923 2.822-2.772 4.167-.351.56-.911 1.275-.798 1.803.597 2.841.792 5.857 3.777 7.636 3.224 1.923 6.68 2.337 10.621 2.469a3477.16 3477.16 0 0 0-3.488-7.05c-1.552-.792-3.048-1.056-3.545-1.905-1.131-1.916 1.729-2.319 1.986-4.103-.301-.855-.66-1.898-1.055-3.017h-4.726Zm138.014 29.957c-.553 3.896-1.1 7.799-1.659 11.758 1.734 1.376 3.393 2.69 5.373 4.254 1.835-2.607 3.695-4.801 5.015-7.27 1.062-1.98 1.684-4.594-.013-6.41-2.118-2.269-4.832-3.915-8.716-2.332Zm-101.434-.968c2.753-1.772 5.65-3.638 8.509-5.486-.503-1.59-.867-2.771-1.25-3.952-.861-2.659-3.494-4.066-6.027-3.048-3.136 1.263-6.209 2.689-9.307 4.047 1.778 3.733 4.091 6.19 8.069 8.439h.006Zm-231.416 174.3c8.496-1.559 14.17-7.108 21.247-9.917a12349.56 12349.56 0 0 1-10.319-3.456c-2.966 1.935-6.014 3.871-8.986 5.92-.68.471-1.383 1.288-1.534 2.055-.32 1.621-.276 3.305-.415 5.398h.007Zm384.035-14.668c.452-6.988-9.156-24.024-14.598-25.822-.289 1.333-.516 2.678-.88 3.985-.553 1.96-.044 3.374 1.508 4.788 4.833 4.405 8.829 9.464 11.111 15.692.534 1.458 1.451 1.885 2.865 1.357h-.006Zm-30.491-67.241c.66.132 1.307.289 1.967.402 1.112.189 2.011.66 1.967 1.93-.044 1.313-1.106 1.646-2.149 1.753-1.238.132-2.502.088-3.746.144-.716.032-1.433.114-2.589.214 2.929 1.339 15.491 1.885 20.355.955-2.332-4.562-4.6-8.999-6.976-13.636l-8.823 8.238h-.006Zm-42.255-24.175c-2.734-4.72-5.109-8.679-10.005-10.407-.842-.295-1.627-1.558-1.879-2.526-.408-1.559-1.169-2.564-2.683-3.318-1.301 1.47-2.658 2.715-3.67 4.198-1.684 2.482-1.383 3.858 1.32 5.184 4.273 2.105 8.659 3.997 13.033 5.901.993.434 2.124.54 3.884.961v.007ZM262.029 86.917c-1-4.299-1.741-8.094-2.803-11.796-.629-2.174-4.097-2.696-5.216-.823-2.545 4.273-4.631 8.704-1.822 14.165 2.959-.465 6.064-.955 9.841-1.552v.006ZM35.363 236.406c5.574-1.998 11.142-2.011 16.936-.075-.886-4.871-3.865-7.849-6.642-10.671-3.457 1.307-6.523 2.47-9.69 3.664-.717 2.161-1.635 4.367-.604 7.082Zm96.362-146.774c-.484-.742-.641-1.314-.974-1.452-4.405-1.785-8.804-3.588-13.285-5.172-.867-.308-2.055.295-3.349.522.559 2.149.961 3.902 1.496 5.618.188.61.565 1.294 1.068 1.64 1.948 1.351 3.984 2.577 6.045 3.89 3.029-1.697 5.958-3.343 8.999-5.046Zm202.912 54.465c.421 4.506 2.199 8.308 4.304 12.059l8.006-2.331v-9.32c-2.036.101-4.015.761-5.417.132-2.268-1.018-4.336-.873-6.893-.54Zm-66.23-30.372c-2.18.585-4.349 1.163-6.781 1.816.572 2.822.962 5.405 1.634 7.919.679 2.545 1.031 2.721 3.595 2.689 3.488-.044 6.523-1.401 9.451-3.117-2.67-3.142-5.159-6.077-7.899-9.307Zm-4.839-60.661c2.747 2.652 5.109 3.607 8.245 2.476 2.3-.83 4.525-.27 6.793 1.056 3.086 1.803 6.775 1.602 10.344 2.03-1.583-1.949-3.198-3.708-5.102-5.072-2.269-1.621-4.777-2.91-7.894-4.764-3.468 1.194-7.717 2.659-12.392 4.274h.006Zm163.899 238.668c-4.437-5.379-8.433-10.218-12.612-15.277-1.999 2.74-3.771 5.16-5.738 7.849 5.48 3.865 10.771 7.347 18.35 7.428ZM207.218 32.929c-1.012 2.099-1.879 3.89-2.784 5.769 5.241 3.148 10.589 5.115 16.546 6.41V33.162c-.798.71-1.213 1.018-1.552 1.388-2.935 3.224-4.606 3.444-8.258 1.037-1.231-.81-2.444-1.646-3.946-2.658h-.006ZM62.913 151.267c-6.209 3.199-8.798 8.735-10.67 15.24 5.85-1.641 13.881-6.523 16.118-9.389-1.885-2.024-3.72-3.997-5.454-5.857l.006.006Zm169.53-84.183c-2.778.144-5.254.195-7.711.415-2.973.264-3.343 1.03-2.093 3.695 1.973 4.198 3.903 8.42 5.857 12.625.264.565.591 1.106.886 1.659.509-1.301.446-2.501.534-3.69.057-.766.132-1.67.56-2.242 2.708-3.652 2.758-7.674 1.967-12.462Zm-43.77 71.935c4.983-2.023 8.697-4.399 12.33-6.919 3.808-2.639 3.814-2.721 2.645-7.283-.188-.729-.471-1.433-.842-2.564-3.274 2.363-6.259 4.569-9.294 6.693-3.281 2.293-3.865 5.788-4.833 10.067l-.006.006Zm-73.35-62.258c2.407-2.676 4.846-5.127 6.674-8.816-8.842.408-16.15 3.708-24.137 7.503 3.644 2.325 7.195.836 10.067 2.105 1.445-1.876 3.911-2.14 7.396-.791Zm25.502-48.017.113-.842c-.735-.39-1.427-.98-2.206-1.125-1.96-.37-3.827-.019-5.555 1.087-3.752 2.4-6.624 5.593-8.465 9.615-1.081 2.356-1.659 4.895-1.489 7.547 3.506.013 3.594.05 4.361-1.79 2.677-6.392 6.479-11.752 13.241-14.492Zm-95.57 158.023c5.492 5.687 8.967 12.015 8.81 20.223 1.175-.553 1.829-.868 2.57-1.22-1.935-4.901-.735-9.338 1.445-13.561-3.192-3.249-6.183-6.284-9.313-9.47-1.282 1.47-2.243 2.576-3.513 4.028Zm348.994-3.651c-.61-7.252-1.188-14.184-1.823-21.725-2.451 2.03-4.411 3.651-6.252 5.178 1.263 5.7 2.457 11.073 3.67 16.547h4.405Zm8.93 45.63-.283.697c4.041 4.525 8.76 8.283 13.863 12.606.333-4.147.616-7.516.873-10.89.057-.761.007-1.527.007-2.413h-14.46ZM36.463 199.593c-6.07-.861-6.555-.559-8.515 5.084 3.852 4.154 7.968 8.125 12.474 11.814.88-1.778.898-1.791.364-2.922-2.086-4.405-4.26-8.779-4.323-13.976ZM235.27 48.036c.158-2.476.283-4.474.403-6.39-1.942-1.258-3.626-2.408-5.367-3.463-1.76-1.062-3.111-2.866-5.75-3.337-.05 3.343-.113 6.372-.138 9.407-.007 1.301.584 2.112 1.967 2.325 2.79.428 5.58.912 8.885 1.458Zm72.979 52.153c2.162 1.565 4.255 2.872 6.108 4.462 2.96 2.539 6.027 2.602 9.728.76-1.269-3.406-2.538-6.8-3.758-10.08-4.122 1.66-7.786 3.136-12.078 4.858Zm39.201 88.601c-3.211-1.979-6.686-4.116-10.275-6.322-1.52 1.986-3.091 4.035-4.794 6.247 4.386 3.067 8.772 5.329 13.718 5.832.503-2.137.924-3.94 1.345-5.757h.006ZM240.889 37.215l5.913 4.462c6.504-5.097 8.433-9.351 6.159-13.656-4.94 1.71-9.125 4.374-12.072 9.2v-.006Zm-58.808 31.383c-4.368 4.89-8.786 11.375-9.401 13.838 4.996-1.137 9.878-2.256 15.132-3.456-.918-1.829-1.628-3.35-2.445-4.82-.986-1.772-2.061-3.488-3.293-5.568l.007.006Zm27.518 43.877c3.538-2.464 6.882-4.814 8.333-8.038 1.81-4.034 2.118-8.754 2.992-13.19.075-.396-.44-.912-.956-1.898-1.112 7.346-6.139 11.154-11.167 15.195.245 2.407.49 4.877.798 7.937v-.006Zm143.966-15.667c-.993-1.024-1.628-1.602-2.175-2.262-.553-.672-1.445-1.427-1.451-2.143-.025-3.488-2.376-4.217-5.084-4.732-2.57-.49-5.122-1.119-7.698-1.596-1.521-.283-3.073-.377-4.795-.578-.082 1.137-.132 1.885-.183 2.576 4.23 1.948 8.773 3.042 11.105 6.574 2.092 0 3.764-.02 5.442 0 1.734.025 1.866 2.972 4.832 2.155l.007.006Zm-19.915 59.543c-1.559-4.128-4.474-7.157-7.246-10.312-1.508-1.716-3.255-2.614-5.549-2.935-2.344-.333-4.644-1.112-6.9-1.873-2.224-.747-4.38-1.721-6.743-2.664a738.479 738.479 0 0 1-1.753 3.217c5.555.78 10.639 2.351 15.151 5.248 4.487 2.884 8.704 6.196 13.034 9.313l.006.006Zm-.415 75.034c4.248 3.117 5.166 3.104 8.597.54 2.275-1.703 4.613-3.324 6.932-4.971 1.545-1.099 2.89-2.344 3.764-4.675-7.359 1.59-14.441 2.564-19.293 9.106Zm80.702 27.556c.252-1.219.371-1.766.478-2.319 1.225-6.435 1.803-4.323-3.13-8.779-2.099-1.898-4.367-3.751-7.641-5.09 1.055 4.028 1.948 7.522 2.909 10.997.139.503.497 1.081.924 1.352 1.986 1.256 4.035 2.413 6.46 3.839Zm-47.194 13.951c7.71-1.257 15.025-.151 22.013 3.444v-10.143c-7.49 2.482-14.975 3.746-22.013 6.699Zm-261.675-36.561c3.776-1.923 6.849-3.934 9.369-6.712-3.858-4.851-12.285-3.387-15.207 2.853 1.885 1.244 3.827 2.526 5.844 3.852l-.006.007Zm298.821-90.412c-.861 1.685-1.257 2.778-1.917 3.664-1.188 1.596-1.313 3.199-.792 5.078 1.006 3.594 1.804 7.252 2.778 10.859.364 1.345.98 2.62 1.627 4.317 1.389-1.898 2.784-3.186 2.527-5.203-.786-6.171-2.351-12.166-4.223-18.715ZM263.034 31.409c4.317 3.412 8.408 6.642 12.839 10.142.559-1.835.936-3.092 1.307-4.31-2.778-3.79-5.436-7.429-8.283-11.313-1.998 1.867-3.776 3.526-5.869 5.48h.006ZM120.879 64.645c-.786-2.64-.78-2.747-2.269-2.797-2.614-.082-5.254-.232-7.849.032-5.48.553-10.268 4.342-12.047 9.514 7.171-3.28 14.221-6.052 22.165-6.75Zm229.16 169.598c5.512-.182 10.627-1.495 16.006-3.343-2.174-2.583-3.978-4.719-5.744-6.818-6.592 3.311-8.376 4.304-10.262 10.155v.006ZM104.094 133.489c-2.439 5.461-4.588 10.262-6.8 15.208 1.973-.289 3.871-.515 5.744-.886.477-.094.968-.572 1.288-.999 1.816-2.457 3.588-4.952 5.656-7.824-2.005-1.873-3.94-3.676-5.888-5.499Zm230.499-51.637c4.713.986 9.3 1.942 13.982 2.922-1.219-4.003-6.41-10.645-9.734-12.575-1.395 3.167-2.79 6.341-4.248 9.66v-.007Zm-42.463 21.002c.201.333.264.609.434.697 4.801 2.539 9.608 5.072 14.441 7.56.459.233 1.156.421 1.571.239 1.577-.698 3.079-1.565 4.606-2.363-.025-.27-.056-.54-.081-.811-5.304-2.243-10.646-4.417-15.906-6.761-2.105-.937-3.664-.667-5.065 1.432v.007Zm101.943 162.151c-.283.026-.572.057-.855.082-.226.767-.641 1.534-.653 2.306-.038 2.608.106 5.216.106 7.824 0 2.797.937 4.927 3.425 6.517 1.597 1.018 2.809 2.621 4.211 3.94.226.214.553.321.949.534.597-.546 1.181-1.055 1.728-1.608.132-.139.113-.415.22-.855-5.178-5.034-6.819-12.059-9.131-18.746v.006ZM153.745 35.311c-2.979 3.16-3.645 6.912-3.777 10.802-.075 2.15 1.15 3.72 2.86 4.054 1.828.352 3.324-.566 4.242-2.608 1.998-4.462.911-8.704-3.319-12.248h-.006Zm136.588 27.776c-3.457-.698-6.944-1.395-10.457-2.105-.522 1.873-.886 3.412-1.389 4.902-.496 1.464-1.131 2.884-1.741 4.417 8.415.478 13.203-2.042 13.581-7.214h.006Zm-98.619 62.968 10.395-7.73c-.836-3.041-1.603-5.838-2.42-8.804-2.049.88-3.777 1.628-5.178 2.231.754.874 1.986 1.684 2.067 2.596.063.716-1.175 1.759-2.054 2.306-2.879 1.778-4.079 5.191-2.81 9.407v-.006Zm-115.302 15.83c.377 2.25.722 4.324 1.1 6.573 3.079 1.351 6.328 2.388 10.463 2.332-.767-3.62-1.458-6.85-2.162-10.156-3.457.459-6.454.861-9.401 1.251Zm43.807 22.064c3.821-3.149 7.547-6.222 11.261-9.288-1.068-2.91-2.017-5.48-3.198-8.698-3.073 5.059-5.725 9.433-8.384 13.794-.817 1.339-.477 2.596.321 4.192Zm-38.918 33.526c5.938 5.863 12.864 7.139 20.738 6.724-5.474-6.077-14.454-8.992-20.738-6.724Zm65.965-108.321c5.354 2.445 9.37 1.91 12.914-1.803a8054.112 8054.112 0 0 1-3.418-7.209c-3.815 1.534-7.535 5.128-9.496 9.018v-.006ZM64.823 242.307c0 1.426-.477 2.947.082 3.67 2.357 3.023 5.021 5.806 7.44 8.528 4.268-.654 3.23-4.645 5.28-6.775-4.098-2.344-8.02-4.267-12.808-5.423h.006Zm286.9-32.747c-.678-3.727-2.048-6.134-5.97-6.454-2.582-.214-5.102-1.163-7.685-1.464-3.777-.44-7.592-1.213-11.777-.032 8.641 2.702 16.911 5.285 25.432 7.95ZM238.626 67.109c-3.073 8.697-4.839 17.018.352 25.483.943-1.622 1.031-1.71.421-2.332-2.011-2.042-2.237-4.349-1.269-6.913 1.64-4.354 3.261-8.716 4.883-13.07.22-.598.408-1.214.703-2.1l-5.09-1.068Zm79.332 107.988c2.539-3.953 4.883-7.604 7.246-11.293-4.305-.333-8.66-.666-13.323-1.024 1.527 4.544 3.425 8.616 6.077 12.311v.006ZM127.98 117.986c.855 1.188 1.54 2.231 2.325 3.192.861 1.056 1.747 2.106 2.734 3.042 2.482 2.363 4.499 1.822 5.417-1.533.528-1.923.716-3.934 1.087-6.052-2.652-.54-4.971-1.05-7.302-1.464-.761-.139-1.565-.019-2.502-.019-.515.829-1.043 1.684-1.759 2.84v-.006Zm-64.1-34.695c-6.334 1.364-9.212 5.693-7.295 11.21 1.332-.137 2.771-.181 4.166-.452 4.16-.804 5.706-3.487 4.368-7.503-.352-1.056-.786-2.08-1.238-3.255Zm23.541 96.947c3.243 0 5.732-.12 8.208.037 2.055.126 3.224-.854 3.984-2.539.459-1.011.773-2.092 1.162-3.179-2.545-2.131-5.303-2.929-8.615-3.199-1.464 2.746-2.935 5.505-4.739 8.873v.007Zm10.646-57.576c-1.445-3.752-3.595-6.153-7.849-5.512-4.53.679-6.573 2.47-7.573 6.787 5.204.239 10.35.214 15.422-1.275Zm1.778 10.312c-3.104 3.217-7.076 4.845-10.997 6.165.848 3.657 1.59 6.837 2.42 10.419 4.901-4.669 7.277-10.287 8.571-16.59l.006.006Zm214.217-10.702c-2.866-1.571-5.624-3.092-8.264-4.537-3.318 2.501-3.909 3.908-2.438 5.976 1.797 2.526 4.016 4.606 6.944 5.675 1.219-2.313 2.382-4.506 3.758-7.114ZM119.138 51.574c-8.088 3.96-15.422 7.554-22.906 11.218.27 1.401.465 2.42.817 4.28 5.851-8.49 13.901-9.195 22.705-8.371-.208-2.42-.377-4.4-.616-7.127ZM54.335 245.568c-2.872 1.006-5.16 2.137-7.572 2.558-2.313.409-4.758.088-7.146.088-.075.195-.15.396-.226.591 4.04 2.438 8.082 4.876 12.688 7.66.377-4.078 3.067-7.026 2.262-10.897h-.006Zm86.867-105.556c6.573-3.808 12.933-7.491 19.588-11.349-1.64-.666-2.872-1.156-4.135-1.672-3.997 3.318-8.314 5.744-13.436 5.989-1.571 2.099-2.734 4.148-2.017 7.032ZM53.248 240.817c-5.719-1.992-11.368-1.558-17.112-.219.019 3.198 2.356 3.343 4.204 3.915 4.965 1.52 9.326.509 12.908-3.689v-.007Zm-2.551-36.046c-.107-6.385-3.105-10.815-7.058-15.164-1.866 2.445-3.406 4.588-3.544 7.164 3.576 2.696 6.888 5.197 10.608 8.006l-.007-.006Zm183.009-98.134c-4.757 4.612-4.845 5.819-.805 10.809.503.615 1.037 1.244 1.678 1.696.704.497 1.546.786 2.281 1.144 2.137-3.06 2.571-6.001 1.276-7.736-1.42-1.91-2.853-3.808-4.437-5.913h.007ZM79.856 278.868c7.56-.012 12.913-4.179 13.404-10.563-4.173 1.822-8.17 3.575-12.424 5.436-.264 1.382-.604 3.142-.98 5.127ZM176.43 30.283c1.113-1.57 2.074-2.953 3.061-4.317 1.011-1.401 2.036-2.784 3.135-4.28-6.962-2.255-10.852-1.445-12.555 4.663 1.992 1.232 4.009 2.483 6.359 3.934ZM74.627 264.245c-.918-1.527-1.71-2.765-2.413-4.041-.616-1.118-1.502-1.458-2.765-1.564-2.872-.239-5.725-.704-8.817-1.113.126-.144-.126.013-.151.195-.176 1.32-.308 2.652-.446 3.909 4.53 2.583 9.709 3.557 14.592 2.614Zm86.295-149.992c1.747-3.098 1.596-6.07.974-9.175-2.225-.553-4.185.101-6.008.955-.804.378-1.759 1.377-1.841 2.175-.195 1.96-.465 4.041.603 6.045h6.272ZM87.61 162.855c-3.098.503-5.813.019-7.629 2.137-2.287 2.671-4.65 5.379-5.304 9.2 3.928-1.873 7.497-3.55 11.035-5.297.446-.22.93-.742 1.043-1.213.346-1.389.516-2.822.855-4.833v.006Zm93.453-115.202c1.137-7.264.056-8.754-5.876-8.377-1.156 2.89-2.891 5.694-2.721 9.508l8.603-1.131h-.006Zm200.856 117.301a56227.41 56227.41 0 0 0-4.16-15.515c-2.859 1.087-3.18 1.979-2.702 4.273.534 2.545.798 5.147 1.263 7.711.333 1.828.798 3.632 1.276 5.775 1.596-.83 2.777-1.446 4.317-2.244h.006ZM285.783 31.169c-2.495-4.304-4.06-8.728-7.447-11.443l-4.028 3.16c2.181 3.596 4.638 7.052 8.012 9.792 1.132-.49 2.055-.899 3.463-1.508Zm78.132 162.73-3.764 4.299c1.589 2.633 4.977 4.38 6.812 3.28 2.589-1.552 5.033-3.406 6.919-6.322-3.406-.433-6.53-.823-9.967-1.263v.006ZM60.764 174.274l9.696 2.457c1.377-3.789 2.627-7.214 3.922-10.771-4.833 1.885-9.408 4.166-13.612 8.314h-.006ZM351.346 47.571c-.15.07-.301.139-.458.208.647 7.05 1.294 14.108 1.985 21.624l5.185-6.26c-2.231-5.184-4.468-10.38-6.705-15.572h-.007ZM101.077 251.344c.434 4.166.83 7.999 1.238 11.971 3.061-.27 5.92-.396 8.685-1.86-2.577-4.185-5.455-7.686-9.923-10.111ZM247.248 70.056c-2.972 4.971-4.543 10.049-5.92 15.183-.182.679.258 1.52.528 2.897 4.305-5.417 6.335-11.167 9.345-16.88-1.433-.433-2.564-.779-3.953-1.2Zm-67.411 64.458c1.879-1.389 3.312-2.445 4.713-3.482-.339-2.595-.641-4.889-.942-7.208-3.111.616-6.14 2.357-9.125 5.159 1.703 1.76 3.4 3.513 5.354 5.524v.007Zm167.311-12.223c.956-4.726-.766-7.334-6.479-10.376l-4.637 5.424c3.896 1.734 7.352 3.274 11.116 4.952ZM185.826 67.203c1.885 3.557 3.463 6.567 5.072 9.552 1.156 2.15 1.175 2.137 3.833 1.094v-9.351c-2.903-.421-5.58-.817-8.905-1.301v.006Zm-24.27-5.907c-.15-2.489-.289-4.694-.421-6.938h-8.49c1.088 3.042 1.326 6.065 2.891 8.861 1.986-.635 3.796-1.206 6.027-1.923h-.007Zm-60.46 47.471c1.697-1.257 2.828-2.017 3.865-2.884 1.275-1.069 1.527-3.809.383-4.833-1.734-1.552-3.582-2.972-5.511-4.556-.899.804-1.804 1.621-2.941 2.633 1.37 3.142 2.702 6.203 4.204 9.64Zm109.465-54.214c1.489 1.716 2.834 3.375 4.305 4.92 1.483 1.56 2.256 3.796 4.587 5.09.804-4.266.786-7.949-2.193-11.053-2.577-2.677-3.966-2.52-6.693 1.043h-.006ZM77.448 273.61c-5.159-.346-9.74-.66-14.925-1.006.497 1.068.648 2.2 1.175 2.413a152.265 152.265 0 0 0 10.124 3.714c1.402.465 2.439-.345 2.885-1.684.34-1.031.471-2.137.748-3.437h-.007Zm18.15-214.135 16.351-8.239c-.044-.132-.094-.264-.138-.39-5.92.918-11.846 1.835-17.955 2.778.579 1.936 1.088 3.657 1.741 5.85ZM261.77 65.99c3.048 5.128 5.989 6.247 10.488 4.192-1.414-2.897-2.815-5.782-5.153-8.352a3831.45 3831.45 0 0 1-5.341 4.16h.006ZM22.141 189.62c-.276 3.261-.44 5.901 1.225 8.094 4.594-.176 7.045-2.954 9.295-6.548-3.545-.522-6.787-.999-10.52-1.546Zm122.888-79.91c2.275-2.168 4.531-3.482 5.499-5.436 1.363-2.746 1.766-5.964 2.658-9.257-1.257-.239-2.313-.44-3.456-.653-1.942 4.882-4.55 9.256-4.701 15.346Zm69.497-24.144c-2.162 3.318-4.392 6.441-6.271 9.765-.805 1.42-.503 3.193.502 4.978 2.834-2.326 5.424-4.531 6.85-7.718 1.062-2.369 1.408-4.788-1.081-7.025ZM198.42 68.693c0 1.81-.025 3.261.006 4.713.038 1.533.132 3.066.214 4.713 2.281.107 4.141.195 6.466.308-.396-3.557-.735-6.611-1.087-9.734h-5.599ZM75.852 102.684c2.193-1.602 4.48-3.274 7.208-5.272-4.5-1.59-8.427-1.867-12.436-1.666-.097 3.364 1.646 5.679 5.228 6.944v-.006Zm271.246 24.515c.051-.352.107-.71.157-1.062-4.248-1.867-8.502-3.733-13.479-5.92 1.414 3.607 2.513 6.404 3.733 9.508 3.33-.88 6.46-1.703 9.589-2.526ZM203.133 65.525c.163-2.576-1.414-13.599-2.168-14.962-.226-.403-.792-.623-1.458-1.113-.779 5.455-1.332 10.526-.848 15.85 1.652.08 3.066.156 4.474.225Zm168.436 42.677c-1.395-1.559-2.432-2.904-3.657-4.029-1.402-1.288-4.003-.999-5.059.585-1.245 1.86-2.288 3.865-3.683 6.271 4.613-.1 8.352-1.043 12.405-2.827h-.006ZM32.548 291.186c1.74 3.563 7.698 5.492 13.58 4.273-.17-1.835-.333-3.676-.478-5.241-4.606.339-8.88.653-13.109.968h.007Zm366.307-103.238c.295 8.182.924 11.758 2.577 14.561l4.166-12.543c-2.388-.711-4.405-1.314-6.749-2.011l.006-.007ZM222.413 53.46c.471 3.883.88 7.29 1.326 10.972 2.331-.182 4.763-.37 7.547-.59-1.872-4.77-4.656-8.12-8.867-10.376l-.006-.006Zm148.71 149.79c2.325 1.169 4.474 2.25 6.403 3.218 1.534-4.053 2.967-7.836 4.393-11.613-2.476.113-2.482.107-3.594 1.213-2.338 2.325-4.67 4.662-7.202 7.189v-.007ZM82.407 70.986c-3.312 2.15-6.85 3.507-9.628 6.272 2.464.29 4.84.264 7.22.295 2.232.032 4.582 1.647 6.913-.628l-4.499-5.939h-.006ZM305.459 130.6c-1.288-1.157-2.174-1.873-2.96-2.678-4.254-4.342-4.399-6.585-.842-11.55.094-.138.013-.402.013-1.106-1.251-.239-2.734-.974-3.909-.635-1.653.478-2.891 5.373-1.911 6.844 1.628 2.451 3.394 4.814 5.147 7.176.911 1.232 2.105 2.024 4.468 1.942l-.006.007ZM290.81 34.582c.547 1.558.981 2.84 1.452 4.11.811 2.168 4.669 4.7 6.976 4.417.653-.081 1.42-.672 1.765-1.244.239-.408.038-1.338-.308-1.772-2.073-2.633-4.618-4.675-7.918-5.58-.546-.151-1.187.037-1.973.081l.006-.012Zm36.386 96.789c-3.016-3.456-6.435-4.952-9.69-6.83-1.483 1.759-2.872 3.223-3.01 5.831 3.984 1.427 7.949 1.502 12.7.999Zm-204.187-13.869c-4.512 1.973-8.597 3.764-13.203 5.782 3.123 1.64 5.945 2.092 8.861 2.143.314 0 .785-.076.93-.289 1.451-2.206 3.531-4.136 3.418-7.636h-.006Zm79.225-91.787c-.433-3.544-1.213-6.423-4.21-7.717-3.01-1.295-5.65.075-8.239 2.256 4.173 1.828 8.063 3.538 12.449 5.454v.007Zm49.061 30.051c-2.853-4.92-6.265-5.197-11.82-1.05.634 1.345 1.294 2.728 1.847 3.89 3.513-.999 6.636-1.891 9.973-2.84ZM39.9 201.221c.597 4.908 2.52 9.395 4.688 11.129 1.446-1.075 2.904-2.156 4.349-3.249.075-.057.075-.207.113-.314-2.23-3.155-5.838-6.19-9.156-7.566h.006Zm64.476-71.527c2.728 2.249 5.16 4.254 7.824 6.447.742-.974 1.515-2.004 2.363-3.123-3.104-2.991-5.134-7.001-10.187-6.781V129.694Zm26.664-85.956c2.665-.735 4.519-1.2 6.341-1.766.497-.157 1.163-.503 1.32-.917.974-2.583 2.243-5.122 1.91-8.296-4.87 2.062-7.195 5.952-9.564 10.985l-.007-.006Zm29.203-6.115c.83-.377 1.722-.622 2.394-1.143.654-.503 1.754-6.819 1.571-8.082-3.355.07-6.064 1.263-7.899 4.06l3.928 5.16.006.005Zm98.933-15.132c1.847-.478 3.77-.98 5.737-1.49-1.671-3.292-7.239-10.186-9.294-11.581 1.15 4.216 2.293 8.44 3.557 13.071ZM53.311 155.208c-1.703-.786-2.225.358-2.797 1.319-1.76 2.929-3.437 5.907-5.247 8.811-1.163 1.866-1.213 3.557.226 5.234 2.1-.22 2.753-1.539 3.293-3.362 1-3.362 2.37-6.617 3.6-9.91.265-.697.604-1.37.918-2.086l.007-.006Zm83.171-108.78c-2.344.408-4.116.653-5.856 1.062-.465.106-1.062.615-1.194 1.055-.956 3.23-1.113 6.505-.579 10.633 3.092-4.361 5.612-8.043 7.629-12.75Zm-27.286 63.778h9.892c-1.075-2.551-2.03-4.82-2.992-7.088-5.611 2.444-6.655 3.475-6.9 7.088Zm264.478 58.073c-2.256-2.979-4.996-5.04-8.213-6.844-.585.874-1.175 1.559-1.546 2.35-.937 1.986.49 5.072 2.639 5.342 2.313.289 4.713.415 7.12-.848ZM144.652 31.333c-.742 3.343-1.383 6.259-2.086 9.445 1.439-.126 2.576-.113 3.644-.37.566-.133 1.22-.635 1.483-1.15 1.012-1.974 1.879-4.023 2.929-6.335-2.08-.553-3.984-1.062-5.976-1.59h.006Zm175.468 89.512c.396.899.427 1.194.578 1.289 3.714 2.388 7.522 4.625 10.47 8.037.836.968 1.803.591 2.658-.565-.918-2.212-1.854-4.468-2.79-6.731-4.657 2.005-5.373 1.779-7.183-2.294a634.86 634.86 0 0 1-3.733.258v.006ZM70.353 231.448a9900.724 9900.724 0 0 1-3.311-9.383c-1.64 3.356-3.035 6.215-4.43 9.068.458-.289.917-.578 1.376-.873.741 1.087 1.489 2.181 2.369 3.469.892-.509 2.35-1.339 3.996-2.281ZM330.91 95.576c-.452 3.463-.848 6.511-1.244 9.559.257.126.515.257.779.383 3.067-1.954 5.216-4.952 8.622-7.553l-8.151-2.382-.006-.007ZM116.587 232.51c-2.508 1.916-4.764 3.638-7.579 5.794 3.909 1.03 7.126 1.879 10.903 2.878-.61-3.393-1.527-5.951-3.324-8.672ZM335.196 58.512c1.785-3.89 3.4-7.428 5.304-11.588-2.464 1.075-4.682 1.012-5.882 2.935-1.119 1.797-2.068 3.701-3.149 5.668 1.144.918 2.288 1.835 3.727 2.985ZM116.059 184.6c.685-4.336 1.407-8.006.704-11.909-2.439 2.2-4.601 4.154-7.158 6.467 2.275 1.923 4.122 3.475 6.454 5.442Zm78.772-149.307c-1.212-.83-2.262-2.143-3.129-2.036-3.274.408-6.617.842-10.143 2.715 3.469 1.213 6.404 2.237 9.483 3.318 1.2-1.263 2.344-2.476 3.789-3.99v-.007Zm164.767 127.262c-.29-.195-.579-.396-.874-.591-1.389.962-2.79 1.904-4.166 2.878-3.538 2.508-4.01 4.613-1.835 9.125 2.369-3.921 5.863-6.944 6.875-11.412ZM81.665 250.407c-2.57 3.293-2.633 3.444-.848 6.234.848 1.326 1.904 2.533 2.934 3.727.956 1.112 1.923 1.011 2.615.031-.24-1.979-.39-3.764-.704-5.511-.132-.717-.484-1.496-.987-2.011-.854-.88-1.904-1.577-3.016-2.47h.006Zm97.575-217.95 10.482-2.588-3.443-6.48c-2.872 2.57-4.802 5.48-7.045 9.063l.006.006ZM397.743 238.14c-.283.088-.566.183-.849.271.302 4.279.604 8.559.918 13.052l4.355.723c-1.125-4.732-2.086-8.93-3.155-13.097-.1-.396-.829-.641-1.263-.949h-.006ZM58.558 135.638l-13.668-2.771c-.088.239-.176.478-.264.71 3.4 2.721 7.208 4.739 11.563 6.511.723-1.358 1.338-2.52 2.363-4.45h.006Zm276.11 106.914c2.916 1.169 5.379 2.149 8 3.199.389-2.615.729-4.871 1.056-7.045-4.223-1.376-6.448 1.049-9.056 3.846ZM225.159 84.548c-1.458-3.55-2.865-7.026-4.757-10.288-3.921 4.362-1.496 7.68 1.125 11.054 1.156-.245 2.312-.49 3.632-.766ZM77.763 107.133c-2.985.138-5.788 2.96-6.913 6.925 4.286-1.37 8.49-2.124 12.839-1.74 1.533.132 1.684-1.169 1.86-2.307-2.017-1.992-3.55-.1-5.241.503-1.282.459-2.615 2.017-3.94.308-1.232-1.596 1.018-2.193 1.395-3.683v-.006Zm140.395 9.91.811.409c1.854-1.986 3.746-3.94 5.537-5.983.402-.458.735-1.263.628-1.816-.339-1.803-.899-3.563-1.552-6.014-3.519 4.431-3.331 9.351-5.43 13.404h.006Zm-76.893 30.29c6.498-4.675 12.826-9.225 19.148-13.775-3.362 1.232-6.473 2.841-9.464 4.644-2.916 1.754-5.719 3.702-8.559 5.581-1.106.729-1.949 1.609-1.125 3.55ZM31.932 238.505v-9.408h-6.517c1.232 3.595 3.086 6.467 6.517 9.408ZM72.566 51.782c4.939-.566 10.01-.057 15.189-1.062-3.708-4.519-10.394-3.161-15.19 1.062Zm140.754 28.63c.15-.973.446-1.59.276-2.023-1.188-3.06-2.426-6.102-3.77-9.1-.164-.358-1.05-.389-2.168-.76.395 3.809.741 7.114 1.08 10.407l4.575 1.47.007.007Zm-42.048-8.74c-1.577.867-3.193 1.67-4.707 2.632-.503.32-1.037 1.025-1.062 1.578-.113 2.532-.05 5.077-.05 8.194 3.921-3.594 4.851-7.842 5.819-12.405Zm-75.266 59.63c-4.305-.804-8.013-.301-12.141.78 1.388 1.483 2.5 2.67 3.519 3.764 4.292-.83 5.819-1.609 8.622-4.537v-.007Zm134.671-75.75c1.206 2.124 2.287 3.834 3.173 5.637 1.779 3.626 1.973 3.67 4.563.384.125-.157.125-.415.219-.767-.829-1.703-1.709-3.5-2.563-5.254h-5.392Zm23.917 43.016c.667 3.406 1.829 5.58 4.041 7.528.729-3.079 1.446-6.108 2.175-9.175-2.64-.86-4.607-.2-6.209 1.647h-.007Zm51.179-44.518c-2.287.176-4.656.264-7.007.572-2.011.264-2.633 1.666-1.596 3.381.459.76 1.087 1.427 1.672 2.18 2.048-.998 3.971-1.985 5.932-2.884 1.426-.653 1.741-1.615.999-3.242v-.007ZM181.1 101.1l-.402.962c2.225 3.55 5.687 4.983 9.923 5.656.308-1.201.553-2.137.911-3.513-3.588-1.069-7.013-2.087-10.432-3.111v.006Zm-63.495 105.255c-1.509 0-2.633-.126-3.714.031-1.76.258-2.37 1.521-1.276 2.878 1.81 2.244 3.833 4.311 5.769 6.448l.616-.358c-.44-2.834-.874-5.669-1.389-8.993l-.006-.006Zm293.108-49.62c.239-.038.478-.07.717-.107.911-6.536-.541-12.424-5.147-17.445a89954.2 89954.2 0 0 1 4.43 17.552Zm-259.274-39.088c-1.288-.076-2.338-.321-3.293-.12-.616.132-1.508.874-1.565 1.414-.163 1.603-.704 3.274 0 5.078 2.231-.478 4.311-.924 6.586-1.408a3157.09 3157.09 0 0 1-1.728-4.964Zm229.116 52.278 3.815 13.719c1.131.163 1.703-.528 1.376-1.974-.924-4.097-1.898-8.188-2.872-12.273-.037-.144-.345-.226-.634-.408-.623.345-1.295.723-1.685.936Zm-179.15-71.602c1.03-1.578 2.356-2.677 2.337-3.752-.062-3.186-.565-6.385-1.835-9.734-3.23 4.449-1.772 8.615-.496 13.48l-.006.006Zm138.661 8.798c2.118-2.256 4.185-4.45 6.8-7.227-1.728-.076-3.061-.534-3.934-.095-2.702 1.364-4.883 3.432-6.869 6.033 1.546.497 2.709.868 4.009 1.289h-.006Zm7.434 50.852c-2.243.76-4.091 1.388-6.384 2.168 1.671 2.425 3.047 4.43 4.656 6.768 3.318-2.709 1.697-5.713 1.728-8.936ZM78.906 226.138c.78 3.745 2.501 5.643 5.782 5.963.766.076 1.514.453 2.25.748.886.352 1.76.673 2.356-.402.73-1.313-.283-1.936-1.181-2.35-2.872-1.308-5.8-2.501-9.207-3.959Zm221.362-20.198c.006.258.019.522.025.779 2.64.17 5.279.358 7.918.497 2.967.157 3.092.025 3.846-3.507-4.172-.094-8.213-.132-11.789 2.225v.006Zm81.117-97.236c2.501 3.293 4.229 3.909 7.836 2.696-.427-1.797-.854-3.613-1.37-5.794-2.413 1.156-4.424 2.124-6.466 3.105v-.007ZM228.27 106.97c2.601-2.885 5.398-4.914 3.004-8.823-.974-.107-2.068-.22-3.136-.333-2.174 3.041-.434 5.737.132 9.156Zm196.3 171.509.629-.647c-1.389-3.469-3.696-6.259-6.542-9.131-.742 1.64-1.295 2.859-2.024 4.474l7.937 5.31v-.006ZM177.21 61.221c-4.744.345-8.584.76-12.166 2.934.189 1.05.358 1.999.522 2.916 3.268-1.15 6.347-2.149 9.338-3.355.748-.302 1.226-1.289 2.3-2.49l.006-.005Zm-70.106 59.071c3.996-1.187 7.227-2.381 10.142-4.707-2.959-.377-5.919-.754-9.043-1.15-.377 2.005-.678 3.608-1.099 5.864v-.007Zm33.369-14.504a8139.88 8139.88 0 0 0-8 5.939c2.897.566 5.159 1.005 7.617 1.483.546-2.576 1.935-4.713.383-7.422Zm54.321-40.564v-5.75c-3.802 1.106-7.397 3.085-8.515 4.72 2.721.326 5.391.653 8.515 1.03ZM76.613 269.983c.194-1.345-.05-2.093-1.289-2.106-.798-.006-1.602.095-2.388.019-3.563-.32-7.126-.691-11.494-1.118 1.1 1.037 1.647 1.992 2.407 2.205 4.192 1.169 8.478 1.264 12.77 1h-.006Zm97.946-236.872c-2.049-1.3-3.972-2.52-6.36-4.04l-1.571 6.61c3.117-.213 5.8.283 7.937-2.57h-.006Zm195.15 58.481c-1.194-2.268-1.395-4.964-3.507-6.774-2.249 2.878-2.017 6.485.34 9.483 1.005-.861 2.029-1.735 3.167-2.709Zm-17.722 9.873v9.401c.66.057 1.213.163 1.754.126.521-.032 1.03-.208 1.495-.308.522-6.517-.037-8.352-3.242-9.219h-.007ZM161.494 64.821c-1.936.704-3.557 1.289-5.323 1.936l1.917 6.052c3.959-1.376 4.053-4.236 3.399-7.981l.007-.007Zm54.559 48.012a37.118 37.118 0 0 0-.741-.277c-5.983 4.839-6.09 5.122-3.884 11.614l4.625-11.337ZM113.526 96.94c-.333-4.738-1.382-5.932-5.938-6.73.699 4.386 2.679 6.63 5.938 6.73Zm-37.083 93.912c1.175-.509 2.3-.629 2.658-1.219 1.245-2.03 2.596-4.073 3.08-7.284-2.734 1.647-4.89 2.941-7.24 4.355.471 1.307.886 2.445 1.502 4.148Zm22.183-36.078c-2.067 0-3.5-.013-4.94 0-1.445.019-2.375.66-2.45 2.206-.038.773-.006 1.552-.006 2.595 1.25.258 2.425.497 3.783.779l3.607-5.58h.006Zm-25.432-4.311-7.617-4.474c-.86 2.758 2.024 6.303 6.09 7.673.471-.987.955-1.992 1.527-3.199Zm221.443-67.662-.131.76c1.589.78 3.462 1.25 4.713 2.4 2.369 2.175 4.587 1.056 7.654.503-4.311-2.293-7.711-5.033-12.242-3.657l.006-.006ZM69.021 87.985c2.734-1.627 5.222-2.978 6.95-5.712-2.764.176-5.53.358-8.59.553.629 1.967 1.1 3.45 1.64 5.153v.006Zm327.421 43.179 2.752 14.649c2.596-5.549.685-10.244-2.752-14.649Zm-64.602 5.367c-3.217.327-6.133.622-9.213.936 2.169 3.526 5.185 3.262 8.402 2.885.258-1.207.484-2.282.811-3.821Zm-1.772-24.911c.786 1.339 1.527 2.614 2.551 4.361 1.886-2.249 3.35-3.996 4.921-5.863-3.113-1.131-5.604-.63-7.472 1.502ZM65.326 129.392c3.746 1.043 7.334-.352 9.766-3.607-1.54-1.571-3.098-1.439-4.801-.201-1.188.861-2.552 1.483-3.764 2.312-.478.327-.76.93-1.2 1.496Zm331.455 32.288c-.59 4.563.346 13.291 1.471 15.246 1.665-5.373.829-10.357-1.471-15.246Zm-84.969-47.973c2.376 1.124 4.154 1.998 5.964 2.815 1.634.735 2.457-.101 2.998-1.439-3.23-4.38-3.388-4.412-8.962-1.37v-.006Zm-135.073 22.868c-2.03-2.168-3.695-3.953-5.329-5.7-1.514.396-2.074 1.175-1.288 2.501 1.018 1.716 2.111 3.381 3.287 5.247 1.244-.76 2.168-1.332 3.33-2.042v-.006Zm-47.496.484c1.986-2.646 3.714-4.651 4.657-7.34h-6.373c.585 2.501 1.088 4.644 1.716 7.34Zm240.378-16.66v-3.349c-.434.1-.691.088-.842.207-2.891 2.231-5.807 4.255-9.778 4.022-1.565-.088-1.59 1.194-1.207 2.539 4.009-1.163 7.899-2.281 11.833-3.419h-.006ZM125.548 136.77c-.66-3.004-1.131-5.141-1.577-7.164-2.347-.118-3.936.917-4.77 3.104a3379.44 3379.44 0 0 0 6.347 4.053v.007Zm165.859-53.643c-.854-.791-1.124-1.263-1.451-1.307-3.149-.427-6.31-.785-9.464-1.156-.076-.006-.17.12-.509.377.069.754.151 1.672.251 2.797 3.695-.447 7.145-.038 11.173-.71ZM85.656 183.808c-.623 1.351-1.25 2.734-2.118 4.619 3.676-.918 6.554-2.005 9.401-4.619h-7.283Zm-22.699 6.881c3.689.767 6.724 1.351 10.055.409-.428-1.1-.773-2.005-1.25-3.23-2.684 1.42-6.015.056-8.805 2.821Zm26.538 62.007c1.043 1.093 1.86 1.948 2.69 2.815 2.281-1.483 2.099-3.676 2.363-5.631.069-.515-.302-1.464-.679-1.583-.496-.157-1.42.113-1.753.528-.98 1.2-1.76 2.564-2.62 3.877v-.006Zm253.638-143.702a2106.4 2106.4 0 0 1 3.418 2.646c2.91-2.193 1.691-4.939 1.748-8.295-2.005 2.193-3.438 3.758-5.166 5.656v-.007Zm-166.432 4.029.302-.83c-2.03-1.458-4.053-2.922-6.598-4.751-.139 2.514-.233 4.255-.346 6.379 2.457-.296 4.55-.547 6.642-.792v-.006Zm177.7-22.178c1.036 3.306 2.827 5.003 4.876 6.48 1.332.961 2.275.452 3.086-.817-1.553-3.155-4.538-4.016-7.962-5.663ZM79.302 240.334c-2.149 0-4.066.132-5.957-.038-1.86-.17-3.689-.641-5.53-.987-.013.076-.032.157-.044.233 3.77 1.671 7.54 3.343 11.531 5.109v-4.324.007Zm292.242-86.452c-2.533.641-3.752 2.011-4.198 4.367 1.596 1.1 3.186 2.187 5.323 3.658-.428-3.08-.754-5.399-1.119-8.019l-.006-.006ZM125.215 49.475c-1.314.377-2.746.472-2.677 2.162a53.09 53.09 0 0 0 .653 6.385c.063.39 1.006.635 2.03 1.232v-9.785l-.006.006Zm184.668-13.052c-1.697 1.954-2.84 3.274-4.034 4.65.905 1.213 1.615 2.169 2.312 3.099 1.27-1.106 2.288-1.986 3.488-3.03-.478-1.281-.98-2.626-1.766-4.719Zm-225.07 117.76c-3.135-.88-5.7-1.596-8.54-2.388-.496 1.194-.942 2.263-1.47 3.538 3.525.516 6.517.673 10.01-1.144v-.006Zm172.389-42.249c-4.97 0-9.816-.622-14.428-2.758-.735 2.023.597 2.362 1.753 2.752 4.204 1.414 8.427.993 12.675.006Zm27.01-24.646c-.101.245-.201.496-.302.741 1.471.98 2.96 1.936 4.406 2.948 1.502 1.055 2.444.47 3.249-1.006-.516-.968-1.031-1.93-1.433-2.69h-5.92v.007Zm6.272 31.496c-2.225 1.408-4.274 2.709-6.75 4.273 1.892.943 3.337 1.666 4.758 2.37 1.487-2.657 2.151-4.873 1.992-6.649v.006ZM94.083 168.008c2.482.843 4.55 1.54 6.919 2.345-.56-3.205-1.898-5.116-4.933-5.725-.635 1.074-1.194 2.029-1.993 3.38h.007Zm232.183 43.456c3.148 2.683 10.853 3.098 14.253.987-4.688-.327-9.288-.648-14.253-.987Zm-3.023-4.097c4.179.936 7.956 1.074 11.337.245-3.978-1.006-7.34-1.854-10.909-2.759-.183 1.093-.308 1.81-.428 2.514Zm-8.458-113.676c-4.123.44-8.377.126-12.255 1.936 4.519 1.992 8.371-.12 12.255-1.936Zm102.998 130.322c.013-.251.019-.496.032-.747-4.387-.082-8.767-.189-13.153-.195-.233 0-.459.823-.723 1.32 3.437.703 11.613.446 13.844-.378Zm-10.947-37.541c.817-1.942 2.011-3.394 1.986-5.575-1.552.673-2.815 1.182-4.041 1.754-1.131.528-2.231 1.118-3.909 1.973 2.395.742 3.997 1.244 5.964 1.854v-.006Zm11.978 1.407c1.728-5.8 1.263-7.308-2.288-8.176-.572 2.973.283 5.531 2.288 8.176Zm-288.182-46.528c.892 2.79 1.602 5.008 2.35 7.359 2.552-2.263 1.854-5.021 1.999-7.975-1.44.201-2.602.364-4.349.616Zm-77.44 136.625c1.885-.779 2.482-1.609 1.665-3.305-1.132-2.357-2.32-4.575-5.216-6.052l3.55 9.363v-.006ZM93.906 71.42l-.685-6.73-5.794 3.531c2.187 1.081 3.984 1.967 6.479 3.199Zm3.978 183.198c-1.848 2.381-2.175 4.713-2.187 7.013-.006 1.558 1.232 2.011 3.004 1.64.081-2.721.037-5.442-.817-8.653Zm43.845-154.511c3.997-3.4 4.6-5.473 2.187-7.434-1.207 1.609-2.413 3.212-3.677 4.896l1.49 2.538Zm222.047 121.826c3.33 5.009 4.493 6.033 6.372 5.7-1.628-4.726-1.98-6.51-6.372-5.7ZM80.515 269.825c2.753-.578 5.147-.898 7.082-2.658-2.802-2.809-5.153-.892-7.792.057l.71 2.601Zm-3.997-13.548c-2.356 3.5.71 5.178 1.716 7.723 1.062-.302 1.973-.566 3.155-.899-1.697-2.375-3.174-4.449-4.87-6.824Zm.51-25.653c-1.792-3.45-3.218-5.944-5.763-7.798.157 2.639 1.477 6.617 2.614 7.271.66.383 1.596.295 3.148.527Zm-.78-53.07c.05.346.1.691.145 1.037 1.263.069 2.916.679 3.701.107 1.697-1.238 3.035-3.035 3.846-5.021l-.572-.534c-2.375 1.47-4.744 2.941-7.12 4.411ZM276.363 60.41c-2.25-.226-3.783-.383-5.983-.603 1.496 2.463 2.665 4.399 3.84 6.334.251-.025.509-.05.76-.069.428-1.747.855-3.488 1.383-5.656v-.006Zm92.925 75.957c-1.885 3.626-3.676 6.951-4.443 11.073 1.671-.377 2.551-.603 2.721-2.168.163-1.514.855-2.997 1.47-4.43.572-1.339 1.345-2.583.246-4.475h.006Zm-57.834-69.44c.735 3.996.867 4.298 2.526 5.87 1.446-2.194 2.269-4.394.308-6.939-.873.334-1.784.673-2.828 1.069h-.006Zm96.438 128.575c-1.2 3.664-2.156 6.586-3.249 9.935 4.518-3.117 5.291-5.278 3.249-9.935ZM267.917 79.564c-1.716-1.866-3.111-3.387-4.512-4.914-.163.113-.327.226-.497.346.629 2.69 1.257 5.373 2.037 8.716 1.194-1.665 2.01-2.81 2.966-4.141l.006-.007ZM417.45 200.033l-.71-.358c-.748.911-1.489 1.822-2.281 2.784 1.15 2.224 2.187 4.216 3.217 6.215.208-.088.415-.176.616-.264l-.842-8.377ZM171.398 39.195c-1.081.295-1.647.358-2.124.603-1.138.584-2.904 1.024-3.205 1.929-.579 1.734 1.558 2.08 2.582 2.985.113.1.415-.006.723-.025.597-1.628 1.213-3.287 2.024-5.486v-.007Zm105.977 67.26c-1.898-.547-3.054-.824-4.173-1.213-1.276-.453-2.658-.635-3.224.735-.32.773.296 1.929.528 3.136l6.862-2.658h.007Zm92.145 18.004c-2.872.616-5.26 1.106-8.094 2.708 3.23.409 5.612.704 8.094 1.018v-3.726Zm-259.827-42.45c-.05-.333-.107-.666-.157-1-2.256-.27-4.512-.534-7.485-.892l2.772 4.456c1.765-.93 3.318-1.747 4.876-2.564h-.006Zm-51.179 63.244-.955.088c-.471.604-1.006 1.169-1.395 1.816-.798 1.326-1.527 2.69-2.545 4.513 1.231-.164 2.187 0 2.614-.403 1.137-1.068 2.218-2.281 2.96-3.632.282-.515-.421-1.571-.679-2.382Zm180.47-96.89c1.289 0 2.319.145 3.274-.056.503-.107 1.138-.78 1.238-1.289.101-.509-.232-1.395-.659-1.652-1.094-.673-2.344-1.094-3.859-1.76v4.763l.006-.006ZM82.777 245.154c2.338-.233 4.242-.553 6.153-.579 3.538-.044 3.538-.006 5.26-1.489H82.916c-.032.44-.076 1.081-.138 2.068Zm322.507 28.26c1.068-5.285.239-7.629-3.695-7.233 1.275 2.494 2.488 4.864 3.695 7.233ZM79.974 103.828c3.79 1.998 5.26-1.075 7.58-2.47-.623-1.213-1.27-1.942-2.426-1.175-1.754 1.162-3.438 2.426-5.153 3.645Zm306.91-1.879c-.981-1.106-1.659-2.489-2.344-2.495-.811 0-1.791 1.062-2.407 1.879-.673.899-1.018 2.049-1.502 3.092.195.138.383.276.578.408 1.741-.886 3.481-1.772 5.675-2.884ZM215.89 74.638c.584-1.289.936-2.1 1.313-2.898.49-1.055.924-2.168-.044-3.116-1.125-1.1-2.363-.736-3.846-.038.855 2.01 1.628 3.82 2.577 6.052ZM75.343 130.542c4.418-1.024 8.258-1.91 12.556-2.903-2.614-.22-4.75-.478-6.9-.541-.817-.025-1.76.226-2.444.666-1.019.654-1.86 1.584-3.212 2.784v-.006Zm-20.53 79.42c1.407 2.105 2.488 3.714 3.795 5.668.824-1.344 1.333-2.18 1.91-3.129l-2.262-3.35c-1.156.271-2.017.472-3.443.811Zm285.065-73.086c.892 1.396 1.395 2.187 1.992 3.111 1.835-1.276 4.744-.176 5.178-3.613-2.275.157-4.368.301-7.17.496v.006Zm-84.775-91.04c1.081-2.3 1.163-4.398-.088-6.987-1.194 2.067-2.18 3.777-3.299 5.712 1.307.49 2.313.874 3.381 1.276h.006Zm27.714 57.853c.069-.27.138-.54.214-.804-2.169-.848-4.311-1.766-6.511-2.526-1.15-.396-1.942.144-2.118 1.596 2.853.396 5.442 2.237 8.421 1.728l-.006.006Zm40.301-10.557 2.903 7.604c.214-.05.427-.101.647-.157.239-1.98.472-3.953.723-6.046-1.357-.446-2.407-.785-4.273-1.401ZM191.444 24.716c1.207 4.248 1.967 5.51 7.541 3.255-2.62-1.131-4.939-2.13-7.541-3.255Zm217.328 236.839c.088 2.598 1.192 4.517 3.311 5.757.289-1.345.56-2.621.886-4.173-1.439-.54-2.614-.987-4.204-1.584h.007ZM81.565 115.717c-3.601-.069-7.202-.081-10.118 2.514 3.607.138 6.8-1.433 10.118-2.514Zm271.962 5.223c.295-.032.591-.069.886-.101v-5.869h-2.878c-.754 2.67 1.37 4.028 1.992 5.97Zm-52.536-50.142c-1.98 1.552-5.185 1.615-5.009 5.574l6.102-3.626c-.402-.716-.704-1.257-1.093-1.948ZM205.1 115.472c.339-.056.679-.119 1.018-.176-.27-2.765-.534-5.53-.804-8.27-1.314-.081-2.2.34-1.986 1.446.465 2.356 1.162 4.669 1.766 7h.006Zm4.656-69.434.057-.566c-2.269-1.137-4.543-2.268-7.315-3.657.534 1.628.899 2.746 1.276 3.915 2.168.113 4.072.207 5.976.308h.006ZM71.912 136.713c3.657-.39 7-.748 10.187-1.087-3.124-1.936-6.599-1.647-10.187 1.087Zm-15.39 115.793c-1.76 5.279-1.753 5.43.496 6.674-.496-2.187 2.47-4.273-.496-6.674ZM289.239 42.714l-6.529-4.84c-.151.19-.302.378-.446.566 2.13 1.42 1.961 5.662 6.982 4.274h-.007Zm-82.857 12.543-.842.15c.528 3.162 1.043 6.329 1.615 9.484.038.194.509.314 1.602.93-1.615-3.821-1.011-7.397-2.375-10.564ZM320.277 84.12c-.302 2.363 1.2 2.275 2.545 2.42 1.54.163 3.168.553 3.821-2.005-2.243-.144-4.298-.276-6.366-.415Zm-.898 123.328c.113-1.081.213-2.086.32-3.129-3.243-.025-3.507.182-4.292 3.129h3.972ZM68.732 143.613c1.358 1.508 2.973 2.382 5.034 3.073-.742-4.374-1.797-4.964-5.034-3.073ZM184.94 40.64v5.612c.182.075.365.144.547.22.961-1.383 1.923-2.772 3.073-4.425l-3.62-1.407ZM47.975 218.892l2.156-5.857c-.208-.132-.409-.264-.616-.396-1.257 1.024-2.507 2.049-3.84 3.136.736.993 1.257 1.703 2.3 3.117Zm-.433-63.842c-3.689-.421-4.424.792-3.475 5.732 1.263-2.08 2.331-3.84 3.475-5.732Zm303.597 2.344c.107 1.76.182 3.042.302 5.072 1.828-1.76 3.129-3.017 4.952-4.776-2.124-.12-3.438-.195-5.254-.296ZM62.523 224.045c.93-2.011 1.515-3.287 2.288-4.965-1.534-.188-2.665-.326-4.456-.54.798 2.023 1.351 3.431 2.175 5.505h-.007Zm296.459-108.818c-.534 1.565-.277 2.558 1.552 2.369 1.552-.157 2.979-.691 4.336-2.369h-5.888ZM26.207 181.771c-2.118 1.194-2.753 2.721-3.3 4.782 1.295.113 2.3.201 3.3.283v-5.071.006Zm58.833 57.664c2.3 1.144 4.21 1.018 6.83.452-1.357-1.055-2.199-1.715-3.053-2.381-1.17.597-2.175 1.112-3.777 1.929ZM308.947 71.671c-.39-1.162-.761-2.28-1.194-3.582-1.238.434-2.156.76-3.067 1.081.691 2.024 2.111 2.857 4.261 2.501Zm-48.552-42.644c1.64-1.47 2.928-2.634 4.223-3.79-1.502-.257-2.696-.019-3.865.314-.716.202-1.395.54-2.388.943.716.899 1.244 1.552 2.03 2.533ZM94.919 112.079c-3.587-1.031-5.704-.848-6.354.547 2.036.967 3.96.905 6.354-.547Zm171.408-22.202.094 1.093c2.407-.44 4.82-.873 7.227-1.326.691-.132 1.376-.308 2.061-.465-.044-.251-.094-.509-.138-.76-3.136.113-6.184.817-9.244 1.458Zm33.501-11.783.145.729c1.445.226 2.891.459 4.927.779-.623-1.47-1.018-2.407-1.515-3.588-1.389.817-2.476 1.445-3.557 2.08Zm16.723 8.107c-.792-2.898-1.421-3.124-6.291-2.093 2.357.823 3.921 2.425 6.291 2.093Zm-209.152 61.748c1.785 1.188 2.445.038 3.136-.754 1.081-1.244 1.093-1.722.364-4.116-1.219 1.697-2.293 3.186-3.5 4.87Zm197.909-97.374c-1.081-1.464-2.576-1.885-4.292-2.281l-1.559 2.84c2.332-.226 4.092-.39 5.851-.559Zm-268.7 145.417c.609-1.615 1.162-3.079 1.715-4.55-.208-.119-.421-.232-.629-.352-1.332 1.402-2.664 2.809-4.392 4.626 1.52.125 2.363.194 3.305.276Zm344.199 44.951c-.201.132-.402.258-.603.39.515 1.577 1.03 3.154 1.703 5.209.974-1.162 1.583-1.885 2.325-2.771-1.27-1.043-2.344-1.935-3.425-2.828ZM196.421 42.607l2.464-4.06c-2.42.138-4.242 1.603-4.079 3.03.365.232.817.52 1.622 1.023l-.007.007Zm-34.55 55.056c-.239-.094-.484-.182-.723-.277-.83 1.226-1.659 2.451-2.935 4.33 1.842-.239 2.784-.358 3.658-.471v-3.582Zm229.229 46.12v-6.316l-2.922 3.035c.899 1.012 1.697 1.905 2.922 3.281ZM55.296 216.498c-.728-.893-1.244-1.521-2.023-2.476-.767 1.923-1.364 3.443-1.967 4.958.157.069.314.138.465.207 1.062-.81 2.124-1.621 3.52-2.689h.006Zm311.729-6.857c.761 3.513 3.394 2.257 5.644 2.143a2599.07 2599.07 0 0 0-5.644-2.143Zm.742-110.778c2.419 1.087 3.419-.031 4.726-.93-.409-.836-.761-1.558-1.282-2.633-1.207 1.244-2.149 2.225-3.444 3.563ZM270.324 82.01c-.823 1.2-1.508 2.193-2.614 3.808l5.787-1.018c-1.288-1.137-2.092-1.841-3.173-2.79Zm-129.587 9.558c-1.659-.345-2.64-1.395-4.16-.333.628 1.087 1.213 2.093 1.96 3.387.773-1.068 1.326-1.847 2.2-3.054Zm25.859-38.384c1.201 2.69 2.319 4.393 5.003 4.374-2.194-.622-1.578-4.066-5.003-4.374ZM38.241 224.541l.453.528c1.282-.59 2.564-1.181 4.229-1.942a590.257 590.257 0 0 1-2.457-1.866 857.922 857.922 0 0 0-2.219 3.287l-.006-.007Zm7.956-73.544c2.547.465 4.33-.718 5.348-3.55-1.98 1.313-3.444 2.287-5.348 3.55Zm10.092 69.472c-3.003 1.659-3.387 3.004-1.652 5.562.565-1.892 1.055-3.545 1.652-5.562Zm70.572-138.416c.157-.17.314-.34.478-.503-.522-.993-1.037-1.98-1.628-3.104-1.187.603-2.03 1.037-3.588 1.835 2.036.76 3.387 1.27 4.745 1.772h-.007Zm253.305 60.379c1.03-.83 1.778-1.433 2.765-2.219-1.226-.974-2.187-1.74-3.155-2.507-.169.138-.345.276-.515.421.276 1.307.547 2.608.905 4.311v-.006Zm-84.875-92.165.754.113c.597-1.106 1.194-2.205 2.011-3.733-1.408-.15-2.294-.238-3.444-.364l.679 3.984ZM69.071 236.28c2.018.333 3.526.578 5.034.824.082-.189.157-.378.239-.572-.616-.729-1.225-1.458-1.91-2.275-.736.289-1.364.484-1.936.785-.364.189-.64.541-1.426 1.238Zm24.754-109.307c4.091 1.684 4.97 1.558 5.775-.943-1.941.314-3.79.616-5.775.943ZM317.23 55.778c-.999.61-1.992 1.031-1.948 1.213.296 1.264.811 2.483 1.251 3.714.232-.063.465-.119.697-.182v-4.745Zm-60.303 35.833c-1.395.12-2.784.233-4.248.358.886 2.458 1.433 2.451 4.248-.358Zm119.155 50.752c-1.144 1.275-2.715 2.124-1.734 4.204 1.663-.918 2.241-2.319 1.734-4.204Zm-111.897-82.67h-5.027c.446 1.15.754 1.93 1.2 3.086 1.276-1.03 2.275-1.835 3.827-3.085Zm-52.668 1.088c.289 3.163 1.2 4.3 2.734 3.412a1002.82 1002.82 0 0 0-2.734-3.412Zm79.213 17.514c-1.471-2.407-1.659-2.426-5.097-.421 1.961.163 3.438.283 5.097.42Zm20.932-1.697c-1.885-.54-3.035-.867-4.53-1.3 1.338 3.45 1.382 3.468 4.53 1.3Zm-39.295 2.332c1.157 1.344 2.093 2.545 3.827 3.135-.331-2.019-1.606-3.064-3.827-3.135Zm59.619 118.357c.075-.176.15-.359.226-.534-1.263-.648-2.52-1.295-3.934-2.011l-1.125 2.551h4.826l.007-.006ZM311.863 90.21c.031-.157.062-.32.088-.478l-8.409.83c.025.239.057.477.082.71 2.746-.352 5.492-.71 8.239-1.062ZM59.243 229.946c.088-2.005.71-3.563-.735-4.908.05 1.502-2.2 3.085.735 4.908Zm-29.354-48.364c-.22 1.062-.358 1.754-.61 2.954 1.71-.427 2.98-.742 4.255-1.062-.012-.207-.019-.415-.031-.622-1.05-.371-2.1-.735-3.62-1.276l.006.006Zm24.182-54.32c-.195.22-.39.433-.584.653 1.533 1.584 3.198 2.973 5.31 3.664.132-.189.258-.377.39-.566-1.704-1.25-3.407-2.501-5.116-3.751Zm-21.7 60.014c3.501 1.25 3.702 1.188 5.361-1.621-1.822.553-3.513 1.062-5.36 1.621Zm122.568-69.365c.717 1.344 1.138 2.143 1.779 3.343.879-1.288 1.47-2.156 2.275-3.343h-4.054Zm56.609-34.645-2.715-.434v4.154l.496.094c.647-1.112 1.295-2.224 2.212-3.814h.007Zm148.559 109.892c-1.936-.578-3.193-.949-4.456-1.326.182 1.024.591 1.546 1.043 2.023.371.39.798.723 1.332 1.194.572-.521 1.037-.942 2.074-1.891h.007ZM291.376 50.091c.17-2.784.082-3.487-.848-3.84-.415-.157-1.075.334-1.861.617a972.033 972.033 0 0 0 2.709 3.23v-.007Zm-11.789 23.516c3.067.81 3.255.785 6.108-.534-2.488.213-4.298.377-6.108.534ZM120.59 76.322l.521.496 3.375-1.609c-.402-.791-.679-1.338-1.087-2.149-1.069 1.238-1.942 2.25-2.809 3.262Zm-3.865 126.614c-.321-1.238-.038-2.47-1.515-3.198-.383 1.118-.697 2.029-1.099 3.198h2.614ZM306.402 61.283c-.139-.22-.271-.44-.409-.66-1.257.604-2.507 1.207-3.902 1.873 1.654 1.136 3.089.731 4.304-1.213h.007ZM63.749 132.969c1.156 2.356 2.344 1.74 4.185.301-1.835-.132-3.01-.213-4.185-.301Zm270.819 7.478c1.25-.164 2.017-.264 3.148-.409l-1.86-3.776c-.56 1.822-.861 2.796-1.288 4.179v.006Zm-152.28.05c-1.801-1.32-3.297-1.133-4.487.559 1.565-.194 2.759-.345 4.487-.559Zm27.626-90.87c-1.911-.132-2.979-.207-4.381-.301.843 1.068 1.427 1.822 2.118 2.702.723-.767 1.226-1.295 2.263-2.395v-.006Zm162.761 171.201c.83.918 1.766 1.955 2.796 3.099.311-1.768-.622-2.801-2.796-3.099ZM320.811 55.031v3.575c.987-.603 1.647-1.005 2.539-1.558-.88-.704-1.464-1.169-2.539-2.024v.007ZM92.977 163.547c-2.275 0-2.344.125-2.25 3.846.798-1.37 1.408-2.407 2.25-3.846ZM280.09 41.312l-.597.227v3.041c.93-.295 1.539-.49 2.457-.785-.736-.98-1.295-1.729-1.86-2.477v-.006ZM72.019 73.13c-2.935.377-3.11.478-5.046 2.922 1.684-.974 3.362-1.948 5.046-2.922Zm302.548 28.851c-.183-.144-.359-.295-.541-.44-.76.409-1.521.817-2.558 1.37.811.71 1.289 1.131 2.055 1.804.421-1.106.736-1.917 1.044-2.734ZM84.537 248.327c1.326 1.27 1.898 2.57 3.08.974.22-.295.288-.697.546-1.357-1.22.132-2.061.22-3.626.383ZM50.91 130.548c-1.86-2.325-3.186-1.854-5.033-.603 1.765.214 3.054.364 5.033.603Zm128.123-79.194-3.456.704c.997 1.358 2.149 1.123 3.456-.704Zm15.761 33.37.779-.189-.83-3.35c-1.539 1.88-.314 2.621.051 3.539ZM92.122 74.304c-1.464-.71-2.514-1.219-3.557-1.728.585 1.496.792 3.639 3.557 1.728ZM310.06 63.081c3.601-.402 3.62-.434 1.98-2.797-.585.83-1.138 1.603-1.98 2.797Zm85.604 83.272c-.302 1.797.058 3.347 1.081 4.65-.453-1.935-.767-3.293-1.081-4.65Zm-329.118 67.65c.076-1.144.139-1.986.227-3.306-1.804 1.182-2.288 1.992-.227 3.306Zm70.484-58.117-.71.283c.159 1.278.748 2.424 1.766 3.437-.434-1.533-.748-2.626-1.056-3.72Zm24.565-78.565c-1.051.926-.949 2.302.308 4.129-.126-1.697-.207-2.79-.308-4.13Zm66.292 14.718c-.641-1.748-1.08-2.942-1.514-4.142-.427 1.527-1.169 3.18 1.514 4.141Zm-33.557-46.296c-1.601-1.11-2.816-.943-3.645.502 1.125-.157 2.055-.282 3.645-.502Zm91.184 54.503c-.44-1.647-1.314-2.395-3.035-1.188 1.194.465 2.111.83 3.035 1.188Zm-89.437 2.708.867.189c1.263-.905 1.301-1.904-.214-3.413l-.653 3.224Zm116.264 33.181-.276.811c1.464.515 2.934 1.024 4.399 1.539.094-.27.182-.54.276-.817-1.47-.515-2.935-1.024-4.399-1.539v.006Zm-202.993-36.21c.069.968.12 1.647.201 2.847 1.081-.861 1.766-1.408 2.866-2.287-1.358-.246-2.074-.378-3.067-.56Zm119.991-49.23-.113.672c1.577.258 3.155.515 4.726.78l.094-.598-4.713-.848.006-.006Zm-93.22 53.302c1.734-.854 2.319-1.805 1.753-2.853-.628 1.025-1.194 1.942-1.753 2.853Zm-9.263 18.998c-.101 1.776.584 2.641 2.055 2.595-.704-.892-1.301-1.64-2.055-2.595Zm178.302 24.508-.333.019v4.154c.182-.006.365-.019.553-.025-.069-1.383-.144-2.765-.213-4.148h-.007Zm11.84-72.514c-.599 1.333-.304 2.455.886 3.369-.314-1.194-.547-2.074-.886-3.369ZM79.019 302.076c-.182-.006-.37-.019-.553-.025-.094.691-.232 1.376-.25 2.067 0 .139.452.29 1.023.629l-.213-2.671h-.007Zm307.148-113.889c-1.692-.289-2.486.155-2.381 1.332.873-.483 1.627-.911 2.381-1.332ZM123.644 62.371c.465 1.137.716 1.74 1.081 2.633.603-.836 1.03-1.44 1.684-2.344-.974-.1-1.578-.164-2.765-.29Zm-52.932 41.915.163 2.891c.83-.93 1.238-1.389 1.823-2.048-.704-.296-1.176-.497-1.986-.836v-.007Zm303.961 11.482c-.821 1.16-.905 2.373-.251 3.638.107-1.52.176-2.583.251-3.638Zm-45.422-64.106c-.911.315-2.212-.037-2.633 1.414 1.609.78 2.225-.15 2.633-1.414ZM68.173 184.938c1.697-.167 2.499-.932 2.407-2.294l-2.407 2.294ZM246.45 60.825c-1.125.521-1.753.81-2.991 1.389l1.91 1.929c.453-1.395.679-2.093 1.081-3.325v.007Zm-84.881 63.514c.057.296.119.585.176.88.742-.151 1.483-.301 2.225-.446l-.113-.672c-.761.081-1.521.163-2.282.238h-.006ZM98.815 82.7c.17-.283.345-.56.515-.842-.691-.364-1.364-.76-2.08-1.056-.12-.05-.427.371-.899.805.968.433 1.716.766 2.457 1.093h.007Zm194.189 44.511c.999.296 1.747.516 3.154.93a700.55 700.55 0 0 1-2.105-2.746c-.339.585-.553.955-1.049 1.816Zm-202.05-21.988c0 1.175-.196 1.873.068 2.268.183.271.987.126 1.992.208a840.033 840.033 0 0 0-2.06-2.476Zm266.809 101.528c-1.094-.333-1.886-.578-2.916-.893.458 2.049 1.25 2.282 2.916.893Zm-255.36-26.934c2.124-.61 2.13-.616 1.376-2.86-.515 1.075-.917 1.904-1.376 2.86Zm-53.868-3.777c-.12-.836-.245-1.672-.409-2.809-1.879 1.301-.867 2.055.409 2.809Zm225.113-80.69c0-.37.006-.741.013-1.112-.842.044-1.678.088-2.52.126 0 .239 0 .471-.007.71l2.52.276h-.006Zm-56.966-62.716c-1.615-.201-2.514-.315-3.809-.478 1.125 1.401 1.98 1.835 3.809.478Zm67.027 14.919c.698 1.074 1.37 2.18 2.721 2.431-.691-1.068-1.049-2.482-2.721-2.431Zm69.648 148.031-2.696-2.124c-.094 1.86.491 2.45 2.696 2.124Zm-252.519 42.412c-.867-.654-1.445-1.081-2.25-1.684v2.363c.786-.239 1.352-.409 2.25-.685v.006Zm261.77-27.066c-1.175-1.942-2.068-1.27-2.935-.604-.082.063-.013.327-.013.604h2.948ZM181.578 60.567c.258.195.515.383.779.578.528-.722 1.062-1.439 1.59-2.162-.245-.182-.484-.364-.729-.546l-1.64 2.13Zm-36.323 67.373c.057.308.113.616.176.924.968-.302 1.936-.597 2.903-.899a85.262 85.262 0 0 1-.131-.571c-.981.182-1.961.358-2.948.54v.006Zm117-22.579c.195.126.396.251.591.383l.678-3.374-.414-.095c-.29 1.031-.572 2.055-.861 3.086h.006Zm25.369-68.209c-.056-1.376-.1-2.771-2.394-1.854 1.018.792 1.709 1.32 2.394 1.854ZM166.125 47.691l-.465.264c.245.584.49 1.169.735 1.76l1.534-.654c-.805-.61-1.307-.993-1.804-1.37Zm27.412 5.096c2.4.126 2.13-.923 1.942-2.294-.66.78-1.131 1.333-1.942 2.294Zm-76.41 113.399c-.276-.163-.547-.327-.823-.49l-1.244 2.306c.182.107.358.208.54.314.509-.71 1.018-1.42 1.527-2.136v.006Zm-22.812-64.564-1.011.352c.402.735.798 1.477 1.2 2.212.195-.088.39-.17.584-.258l-.773-2.312v.006Zm185.617-12.04a35.28 35.28 0 0 1-.515.842c.974.49 1.954.973 2.929 1.464.106-.195.207-.396.314-.591l-2.728-1.716ZM56.315 263.886c-.157.113-.315.226-.478.339.446.641.886 1.282 1.332 1.923.17-.119.34-.239.503-.358-.453-.635-.911-1.269-1.364-1.904h.007Zm268.751-152.933c-.025-1.303-.625-1.605-1.798-.905l1.798.905Zm70.075 174.94c.532 1.555 1.37 2.441 2.514 2.658-.861-.911-1.49-1.571-2.514-2.658Zm-67.034-165.878c1.546-.962 1.509-1.678 0-2.69v2.69ZM188.786 50.531c-.157-.176-.308-.358-.465-.534-.591.528-1.181 1.056-1.778 1.584.15.176.301.345.446.521.597-.521 1.194-1.043 1.797-1.564v-.007ZM79.472 120.996c-1.08.591-1.716.937-2.59 1.414 1.635.836 2.112.233 2.59-1.414Zm2.331 113.726c.784 1.123 1.662 1.37 2.633.741-.76-.213-1.357-.383-2.633-.741Zm-22.818 14.78c.327-.044.654-.081.98-.125l-.647-2.005-.622.151c.1.66.195 1.319.296 1.979h-.007ZM330.212 143.94c-.263.264-.527.528-.785.792.339.421.679.842 1.018 1.269.302-.295.597-.591.899-.886-.377-.39-.748-.779-1.125-1.169l-.007-.006Zm98.657 79.835c.012-.208.018-.415.031-.622-.836.05-1.672.094-2.507.144l.025.484h2.451v-.006Zm-1.515 62.088c.264-1.653-.025-2.269-1.753-2.363.666.899 1.062 1.439 1.753 2.363ZM170.618 117.226l-.094.716c.377 0 .767.057 1.125-.012.415-.082.811-.283 1.213-.428-.032-.126-.069-.245-.101-.371l-2.143.095Z" fill="#F0F0F0"/></svg>